<svg id="Layer_1" data-name="Layer 1" xmlns="http://www.w3.org/2000/svg" viewBox="0 0 343.56 60.53"><defs><style>.cls-1{fill:#404040;}.cls-2{fill:#e22a7f;}</style></defs><path class="cls-1" d="M4.32,34.77V11.07h7.8v23.4c0,8.64,3.89,12.36,10.67,12.36s10.62-3.72,10.62-12.36V11.07h7.68v23.7c0,12.24-6.9,18.9-18.36,18.9S4.32,47,4.32,34.77Z"/><path class="cls-1" d="M82.85,34.71V53.07h-7.5V35.67c0-5.7-2.82-8.46-7.62-8.46-5.34,0-8.94,3.24-8.94,9.66v16.2h-7.5V21h7.14v4.14c2.46-2.94,6.36-4.5,11-4.5C77.15,20.67,82.85,25.05,82.85,34.71Z"/><path class="cls-1" d="M91.37,11.25a4.57,4.57,0,0,1,4.8-4.5c2.76,0,4.8,1.86,4.8,4.32a4.81,4.81,0,0,1-9.6.18Zm1,9.78h7.5v32h-7.5Z"/><path class="cls-1" d="M107.45,32.07c0-12.54,9.6-21.6,22.5-21.6,6.84,0,12.72,2.46,16.62,7l-5,4.74a14.75,14.75,0,0,0-11.22-4.92c-8.7,0-15,6.12-15,14.76s6.3,14.76,15,14.76a14.6,14.6,0,0,0,11.22-5l5,4.8c-3.9,4.56-9.78,7-16.68,7C117.05,53.67,107.45,44.61,107.45,32.07Z"/><path class="cls-1" d="M171.89,20.67v7.14a9.52,9.52,0,0,0-1.74-.18c-5.7,0-9.3,3.36-9.3,9.9V53.07h-7.5V21h7.14v4.68C162.65,22.35,166.55,20.67,171.89,20.67Z"/><path class="cls-1" d="M175.31,37.05c0-9.6,7.2-16.38,17-16.38s17.1,6.78,17.1,16.38-7.14,16.44-17.1,16.44S175.31,46.65,175.31,37.05Zm26.58,0c0-6.12-4.08-10-9.54-10s-9.48,3.9-9.48,10,4.08,10,9.48,10S201.89,43.17,201.89,37.05Z"/><path class="cls-1" d="M265.73,21l-11.82,32h-7.2L238.43,31,230,53.07h-7.2L211.07,21h7.08l8.46,23.64L235.43,21h6.3l8.64,23.76L259.07,21Z"/><path class="cls-1" d="M301.37,8.55V53.07h-7.2V48.93c-2.52,3.06-6.24,4.56-10.62,4.56-9.3,0-16.2-6.48-16.2-16.44s6.9-16.38,16.2-16.38A13.12,13.12,0,0,1,293.87,25V8.55ZM294,37.05c0-6.12-4.14-10-9.54-10s-9.54,3.9-9.54,10,4.14,10,9.54,10S294,43.17,294,37.05Z"/><path class="cls-2" d="M312.57,41.14a12.88,12.88,0,1,1,25.75,0,12.88,12.88,0,1,1-25.75,0Z"/></svg>