<svg width="1108" height="227" viewBox="0 0 1108 227" fill="none" xmlns="http://www.w3.org/2000/svg">
<path d="M132.5 67.8C137.7 67.8 138.9 69.8 136.1 73.8L84.8 142.8L139.4 216C142.2 220 140.9 222 135.5 222H126.5C122.1 222 118.9 220.5 116.9 217.5L71.9 157.2L27.2 217.5C25.4 220.5 22.2 222 17.6 222H9.2C3.6 222 2.3 220 5.3 216L59.9 142.8L7.7 73.8C5.1 69.8 6.5 67.8 11.9 67.8H20.3C24.9 67.8 28.2 69.3 30.2 72.3L72.2 128.1L114.2 72.3C115.6 70.3 116.8 69.1 117.8 68.7C118.8 68.1 120.7 67.8 123.5 67.8H132.5Z" fill="#4E74F8"/>
<path d="M162.291 80.1C162.291 56.5 169.291 38.1 183.291 24.9C197.491 11.5 217.891 4.79999 244.491 4.79999C266.891 4.79999 284.391 9.09999 296.991 17.7C309.791 26.1 318.891 38.9 324.291 56.1C325.091 58.3 325.191 60 324.591 61.2C324.191 62.2 322.891 63.1 320.691 63.9L311.391 67.2C307.591 68.2 304.991 67 303.591 63.6C299.391 50.2 292.691 40.4 283.491 34.2C274.491 28 261.491 24.9 244.491 24.9C224.891 24.9 209.891 29.7 199.491 39.3C189.291 48.9 184.191 62.4 184.191 79.8V151.2C184.191 168.4 189.391 181.9 199.791 191.7C210.191 201.3 225.091 206.1 244.491 206.1C261.691 206.1 274.891 202.9 284.091 196.5C293.291 190.1 299.991 180.1 304.191 166.5C305.791 162.9 308.391 161.6 311.991 162.6L321.291 166.2C324.891 167.6 326.091 170.1 324.891 173.7C319.491 191.1 310.391 204.2 297.591 213C284.791 221.8 267.091 226.2 244.491 226.2C218.291 226.2 197.991 219.6 183.591 206.4C169.391 193 162.291 174.5 162.291 150.9V80.1ZM420.814 63.3H430.114C433.714 63.3 435.514 65.1 435.514 68.7V76.5C435.514 80.1 433.714 81.9 430.114 81.9H420.214C405.214 81.9 392.014 84 380.614 88.2C377.214 89.6 375.514 92.2 375.514 96V216.6C375.514 220.2 373.714 222 370.114 222H360.514C356.914 222 355.114 220.2 355.114 216.6V89.4C355.114 84.8 355.914 81.4 357.514 79.2C359.114 76.8 362.114 74.6 366.514 72.6C381.714 66.8 399.814 63.7 420.814 63.3ZM446.129 118.5C446.129 101.3 451.929 87.8 463.529 78C475.329 68.2 491.429 63.3 511.829 63.3C532.429 63.3 548.629 68.2 560.429 78C572.229 87.8 578.129 101.3 578.129 118.5V171.3C578.129 188.5 572.229 202 560.429 211.8C548.629 221.4 532.429 226.2 511.829 226.2C491.429 226.2 475.329 221.3 463.529 211.5C451.929 201.7 446.129 188.3 446.129 171.3V118.5ZM557.729 118.5C557.729 107.1 553.629 98.1 545.429 91.5C537.229 84.9 526.029 81.6 511.829 81.6C497.829 81.6 486.729 84.9 478.529 91.5C470.329 98.1 466.229 107.1 466.229 118.5V171.3C466.229 182.7 470.329 191.7 478.529 198.3C486.929 204.7 498.029 207.9 511.829 207.9C526.029 207.9 537.229 204.7 545.429 198.3C553.629 191.7 557.729 182.7 557.729 171.3V118.5ZM798.397 67.8C800.997 67.8 802.597 68.3 803.197 69.3C803.797 70.1 803.697 71.7 802.897 74.1L758.497 218.1C757.697 221.3 755.297 222.9 751.297 222.9H744.997C740.997 222.9 738.497 221.3 737.497 218.1L706.597 120C705.397 115.8 704.097 110.7 702.697 104.7C701.497 98.7 700.797 95.3 700.597 94.5H699.697C699.297 95.5 698.497 99 697.297 105C696.097 111 694.897 116 693.697 120L662.797 218.1C661.797 221.3 659.397 222.9 655.597 222.9H649.297C645.497 222.9 643.097 221.3 642.097 218.1L597.997 74.1C597.197 71.7 597.097 70.1 597.697 69.3C598.297 68.3 599.897 67.8 602.497 67.8H609.397C612.597 67.8 614.797 68.2 615.997 69C617.397 69.6 618.297 71 618.697 73.2L645.997 166.2C646.997 170.2 648.197 176.1 649.597 183.9C651.197 191.5 652.197 196 652.597 197.4H653.497C653.897 196.2 654.897 191.7 656.497 183.9C658.297 176.1 659.797 170.1 660.997 165.9L689.797 76.5C690.397 74.3 691.197 72.9 692.197 72.3C693.197 71.5 695.297 71.1 698.497 71.1H702.997C705.997 71.1 707.997 71.5 708.997 72.3C709.997 72.9 710.897 74.3 711.697 76.5L740.197 165C741.597 169.6 743.097 175.8 744.697 183.6C746.497 191.4 747.597 196 747.997 197.4H748.897C749.297 196.2 750.197 191.8 751.597 184.2C752.997 176.6 754.397 170.4 755.797 165.6L782.797 73.2C783.397 70.8 784.297 69.3 785.497 68.7C786.697 68.1 788.997 67.8 792.397 67.8H798.397ZM823.18 123.3C823.18 104.1 828.08 89.3 837.88 78.9C847.68 68.5 862.48 63.3 882.28 63.3C897.08 63.3 912.88 66.2 929.68 72V5.39998C929.68 1.79999 931.48 -2.86102e-06 935.08 -2.86102e-06H944.38C946.38 -2.86102e-06 947.78 0.399992 948.58 1.19998C949.38 1.99998 949.78 3.39998 949.78 5.39998V201C949.78 205.8 948.98 209.2 947.38 211.2C945.98 213.2 942.88 215.2 938.08 217.2C923.88 223.2 906.58 226.2 886.18 226.2C844.18 226.2 823.18 206.2 823.18 166.2V123.3ZM929.68 90.9C914.28 84.9 899.68 81.9 885.88 81.9C857.48 81.9 843.28 95.9 843.28 123.9V165.9C843.28 193.9 858.18 207.9 887.98 207.9C901.38 207.9 913.38 206 923.98 202.2C926.38 201.2 927.88 200.3 928.48 199.5C929.28 198.5 929.68 196.8 929.68 194.4V90.9ZM983.113 108.3C983.113 94.3 988.113 83.3 998.113 75.3C1008.31 67.3 1023.01 63.3 1042.21 63.3C1073.41 63.3 1093.81 74.2 1103.41 96C1105.41 99.6 1104.51 102.2 1100.71 103.8L1093.21 107.1C1090.01 108.5 1087.51 107.6 1085.71 104.4C1082.31 96.8 1077.31 91.1 1070.71 87.3C1064.31 83.5 1054.91 81.6 1042.51 81.6C1016.31 81.6 1003.21 90.3 1003.21 107.7C1003.21 112.3 1004.01 116.3 1005.61 119.7C1007.21 122.9 1009.11 125.4 1011.31 127.2C1013.51 129 1016.81 130.5 1021.21 131.7C1025.81 132.9 1029.81 133.8 1033.21 134.4C1036.81 134.8 1041.91 135.3 1048.51 135.9C1057.71 136.7 1065.41 137.9 1071.61 139.5C1077.81 140.9 1083.81 143.2 1089.61 146.4C1095.41 149.4 1099.71 153.7 1102.51 159.3C1105.51 164.9 1107.01 171.9 1107.01 180.3C1107.01 194.7 1101.81 206 1091.41 214.2C1081.01 222.2 1065.71 226.2 1045.51 226.2C1011.91 226.2 990.313 213.8 980.713 189C979.113 185.4 980.213 183 984.013 181.8L991.813 179.1C995.013 178.1 997.413 179.2 999.013 182.4C1005.61 199.8 1020.91 208.5 1044.91 208.5C1073.11 208.5 1087.21 199.4 1087.21 181.2C1087.21 171.4 1083.71 164.8 1076.71 161.4C1069.91 157.8 1058.91 155.2 1043.71 153.6C1036.11 152.8 1030.01 152.1 1025.41 151.5C1021.01 150.7 1015.71 149.3 1009.51 147.3C1003.51 145.3 998.813 142.8 995.413 139.8C992.013 136.8 989.113 132.7 986.713 127.5C984.313 122.1 983.113 115.7 983.113 108.3Z" fill="white"/>
</svg>
