<svg width="1120" height="360" viewBox="0 0 1120 360" fill="none" xmlns="http://www.w3.org/2000/svg">
<path d="M133.5 127.8C138.7 127.8 139.9 129.8 137.1 133.8L85.7998 202.8L140.4 276C143.2 280 141.9 282 136.5 282H127.5C123.1 282 119.9 280.5 117.9 277.5L72.8998 217.2L28.1998 277.5C26.3998 280.5 23.1998 282 18.5998 282H10.1998C4.59976 282 3.29976 280 6.29976 276L60.8998 202.8L8.69976 133.8C6.09976 129.8 7.49976 127.8 12.8998 127.8H21.2998C25.8998 127.8 29.1998 129.3 31.1998 132.3L73.1998 188.1L115.2 132.3C116.6 130.3 117.8 129.1 118.8 128.7C119.8 128.1 121.7 127.8 124.5 127.8H133.5Z" fill="#4E74F8"/>
<path d="M163.291 140.1C163.291 116.5 170.291 98.1 184.291 84.9C198.491 71.5 218.891 64.8 245.491 64.8C267.891 64.8 285.391 69.1 297.991 77.7C310.791 86.1 319.891 98.9 325.291 116.1C326.091 118.3 326.191 120 325.591 121.2C325.191 122.2 323.891 123.1 321.691 123.9L312.391 127.2C308.591 128.2 305.991 127 304.591 123.6C300.391 110.2 293.691 100.4 284.491 94.2C275.491 88 262.491 84.9 245.491 84.9C225.891 84.9 210.891 89.7 200.491 99.3C190.291 108.9 185.191 122.4 185.191 139.8V211.2C185.191 228.4 190.391 241.9 200.791 251.7C211.191 261.3 226.091 266.1 245.491 266.1C262.691 266.1 275.891 262.9 285.091 256.5C294.291 250.1 300.991 240.1 305.191 226.5C306.791 222.9 309.391 221.6 312.991 222.6L322.291 226.2C325.891 227.6 327.091 230.1 325.891 233.7C320.491 251.1 311.391 264.2 298.591 273C285.791 281.8 268.091 286.2 245.491 286.2C219.291 286.2 198.991 279.6 184.591 266.4C170.391 253 163.291 234.5 163.291 210.9V140.1ZM421.814 123.3H431.114C434.714 123.3 436.514 125.1 436.514 128.7V136.5C436.514 140.1 434.714 141.9 431.114 141.9H421.214C406.214 141.9 393.014 144 381.614 148.2C378.214 149.6 376.514 152.2 376.514 156V276.6C376.514 280.2 374.714 282 371.114 282H361.514C357.914 282 356.114 280.2 356.114 276.6V149.4C356.114 144.8 356.914 141.4 358.514 139.2C360.114 136.8 363.114 134.6 367.514 132.6C382.714 126.8 400.814 123.7 421.814 123.3ZM447.129 178.5C447.129 161.3 452.929 147.8 464.529 138C476.329 128.2 492.429 123.3 512.829 123.3C533.429 123.3 549.629 128.2 561.429 138C573.229 147.8 579.129 161.3 579.129 178.5V231.3C579.129 248.5 573.229 262 561.429 271.8C549.629 281.4 533.429 286.2 512.829 286.2C492.429 286.2 476.329 281.3 464.529 271.5C452.929 261.7 447.129 248.3 447.129 231.3V178.5ZM558.729 178.5C558.729 167.1 554.629 158.1 546.429 151.5C538.229 144.9 527.029 141.6 512.829 141.6C498.829 141.6 487.729 144.9 479.529 151.5C471.329 158.1 467.229 167.1 467.229 178.5V231.3C467.229 242.7 471.329 251.7 479.529 258.3C487.929 264.7 499.029 267.9 512.829 267.9C527.029 267.9 538.229 264.7 546.429 258.3C554.629 251.7 558.729 242.7 558.729 231.3V178.5ZM799.397 127.8C801.997 127.8 803.597 128.3 804.197 129.3C804.797 130.1 804.697 131.7 803.897 134.1L759.497 278.1C758.697 281.3 756.297 282.9 752.297 282.9H745.997C741.997 282.9 739.497 281.3 738.497 278.1L707.597 180C706.397 175.8 705.097 170.7 703.697 164.7C702.497 158.7 701.797 155.3 701.597 154.5H700.697C700.297 155.5 699.497 159 698.297 165C697.097 171 695.897 176 694.697 180L663.797 278.1C662.797 281.3 660.397 282.9 656.597 282.9H650.297C646.497 282.9 644.097 281.3 643.097 278.1L598.997 134.1C598.197 131.7 598.097 130.1 598.697 129.3C599.297 128.3 600.897 127.8 603.497 127.8H610.397C613.597 127.8 615.797 128.2 616.997 129C618.397 129.6 619.297 131 619.697 133.2L646.997 226.2C647.997 230.2 649.197 236.1 650.597 243.9C652.197 251.5 653.197 256 653.597 257.4H654.497C654.897 256.2 655.897 251.7 657.497 243.9C659.297 236.1 660.797 230.1 661.997 225.9L690.797 136.5C691.397 134.3 692.197 132.9 693.197 132.3C694.197 131.5 696.297 131.1 699.497 131.1H703.997C706.997 131.1 708.997 131.5 709.997 132.3C710.997 132.9 711.897 134.3 712.697 136.5L741.197 225C742.597 229.6 744.097 235.8 745.697 243.6C747.497 251.4 748.597 256 748.997 257.4H749.897C750.297 256.2 751.197 251.8 752.597 244.2C753.997 236.6 755.397 230.4 756.797 225.6L783.797 133.2C784.397 130.8 785.297 129.3 786.497 128.7C787.697 128.1 789.997 127.8 793.397 127.8H799.397ZM824.179 183.3C824.179 164.1 829.079 149.3 838.879 138.9C848.679 128.5 863.479 123.3 883.279 123.3C898.079 123.3 913.879 126.2 930.679 132V65.4C930.679 61.8 932.479 60 936.079 60H945.379C947.379 60 948.779 60.4 949.579 61.2C950.379 62 950.779 63.4 950.779 65.4V261C950.779 265.8 949.979 269.2 948.379 271.2C946.979 273.2 943.879 275.2 939.079 277.2C924.879 283.2 907.579 286.2 887.179 286.2C845.179 286.2 824.179 266.2 824.179 226.2V183.3ZM930.679 150.9C915.279 144.9 900.679 141.9 886.879 141.9C858.479 141.9 844.279 155.9 844.279 183.9V225.9C844.279 253.9 859.179 267.9 888.979 267.9C902.379 267.9 914.379 266 924.979 262.2C927.379 261.2 928.879 260.3 929.479 259.5C930.279 258.5 930.679 256.8 930.679 254.4V150.9ZM984.112 168.3C984.112 154.3 989.112 143.3 999.112 135.3C1009.31 127.3 1024.01 123.3 1043.21 123.3C1074.41 123.3 1094.81 134.2 1104.41 156C1106.41 159.6 1105.51 162.2 1101.71 163.8L1094.21 167.1C1091.01 168.5 1088.51 167.6 1086.71 164.4C1083.31 156.8 1078.31 151.1 1071.71 147.3C1065.31 143.5 1055.91 141.6 1043.51 141.6C1017.31 141.6 1004.21 150.3 1004.21 167.7C1004.21 172.3 1005.01 176.3 1006.61 179.7C1008.21 182.9 1010.11 185.4 1012.31 187.2C1014.51 189 1017.81 190.5 1022.21 191.7C1026.81 192.9 1030.81 193.8 1034.21 194.4C1037.81 194.8 1042.91 195.3 1049.51 195.9C1058.71 196.7 1066.41 197.9 1072.61 199.5C1078.81 200.9 1084.81 203.2 1090.61 206.4C1096.41 209.4 1100.71 213.7 1103.51 219.3C1106.51 224.9 1108.01 231.9 1108.01 240.3C1108.01 254.7 1102.81 266 1092.41 274.2C1082.01 282.2 1066.71 286.2 1046.51 286.2C1012.91 286.2 991.312 273.8 981.712 249C980.112 245.4 981.212 243 985.012 241.8L992.812 239.1C996.012 238.1 998.412 239.2 1000.01 242.4C1006.61 259.8 1021.91 268.5 1045.91 268.5C1074.11 268.5 1088.21 259.4 1088.21 241.2C1088.21 231.4 1084.71 224.8 1077.71 221.4C1070.91 217.8 1059.91 215.2 1044.71 213.6C1037.11 212.8 1031.01 212.1 1026.41 211.5C1022.01 210.7 1016.71 209.3 1010.51 207.3C1004.51 205.3 999.812 202.8 996.412 199.8C993.012 196.8 990.112 192.7 987.712 187.5C985.312 182.1 984.112 175.7 984.112 168.3Z" fill="#212430"/>
</svg>
