<svg width="430" height="430" viewBox="0 0 430 430" fill="none" xmlns="http://www.w3.org/2000/svg">
<path d="M430 215C430 333.741 333.741 430 215 430C96.2588 430 0 333.741 0 215C0 96.2588 96.2588 0 215 0C333.741 0 430 96.2588 430 215Z" fill="#43AB71"/>
<path d="M325.685 79C333.084 79 334.87 82.3202 331.043 88.9606L233.83 242.2V341.039C233.83 344.615 233.065 347.169 231.534 348.701C230.258 350.234 227.706 351 223.879 351H207.039C203.212 351 200.533 350.234 199.002 348.701C197.726 347.169 197.088 344.615 197.088 341.039V241.434L99.8754 88.9606C98.0893 86.4066 97.579 84.108 98.3445 82.0648C99.3651 80.0216 101.661 79 105.234 79H125.901C132.024 79 136.234 79.5108 138.531 80.5324C140.827 81.2986 143.124 83.7249 145.42 87.8113L215.842 203.89L287.029 87.8113C289.326 83.7249 291.494 81.2986 293.536 80.5324C295.832 79.5108 300.169 79 306.548 79H325.685Z" fill="white"/>
</svg>
