<svg id="Layer_1" data-name="Layer 1" xmlns="http://www.w3.org/2000/svg" viewBox="0 0 350.81 58.07"><defs><style>.cls-1{fill:#fff;}.cls-2{fill:#ffd635;}</style></defs><path class="cls-1" d="M5.87,30.47V6.77h7.8v23.4c0,8.64,3.9,12.36,10.68,12.36S35,38.81,35,30.17V6.77h7.68v23.7c0,12.24-6.9,18.9-18.36,18.9S5.87,42.71,5.87,30.47Z"/><path class="cls-1" d="M84.41,30.41V48.77h-7.5V31.37c0-5.7-2.82-8.46-7.62-8.46-5.34,0-8.94,3.24-8.94,9.66v16.2h-7.5v-32H60v4.14c2.46-2.94,6.36-4.5,11-4.5C78.71,16.37,84.41,20.75,84.41,30.41Z"/><path class="cls-1" d="M92.93,7a4.57,4.57,0,0,1,4.8-4.5c2.76,0,4.8,1.86,4.8,4.32a4.81,4.81,0,0,1-9.6.18Zm1,9.78h7.5v32H94Z"/><path class="cls-1" d="M109,27.77c0-12.54,9.6-21.6,22.5-21.6,6.84,0,12.72,2.46,16.62,7l-5,4.74A14.75,14.75,0,0,0,131.87,13c-8.7,0-15,6.12-15,14.76s6.3,14.76,15,14.76a14.6,14.6,0,0,0,11.22-5l5,4.8c-3.9,4.56-9.78,7-16.68,7C118.61,49.37,109,40.31,109,27.77Z"/><path class="cls-1" d="M173.45,16.37v7.14a9.52,9.52,0,0,0-1.74-.18c-5.7,0-9.3,3.36-9.3,9.9V48.77h-7.5v-32h7.14v4.68C164.21,18.05,168.11,16.37,173.45,16.37Z"/><path class="cls-1" d="M176.87,32.75c0-9.6,7.2-16.38,17-16.38S211,23.15,211,32.75s-7.14,16.44-17.1,16.44S176.87,42.35,176.87,32.75Zm26.58,0c0-6.12-4.08-10-9.54-10s-9.48,3.9-9.48,10,4.08,10,9.48,10S203.45,38.87,203.45,32.75Z"/><path class="cls-1" d="M267.29,16.73l-11.82,32h-7.2L240,26.69l-8.4,22.08h-7.2l-11.76-32h7.08l8.46,23.64L237,16.73h6.3l8.64,23.76,8.7-23.76Z"/><path class="cls-1" d="M302.93,4.25V48.77h-7.2V44.63c-2.52,3.06-6.24,4.56-10.62,4.56-9.3,0-16.2-6.48-16.2-16.44s6.9-16.38,16.2-16.38a13.12,13.12,0,0,1,10.32,4.32V4.25Zm-7.38,28.5c0-6.12-4.14-10-9.54-10s-9.54,3.9-9.54,10,4.14,10,9.54,10S295.55,38.87,295.55,32.75Z"/><path class="cls-2" d="M314.13,36.83a12.87,12.87,0,1,1,25.74,0,12.87,12.87,0,1,1-25.74,0Z"/></svg>