<?xml version="1.0" encoding="utf-8"?>
<!-- Generator: Adobe Illustrator 24.1.1, SVG Export Plug-In . SVG Version: 6.00 Build 0)  -->
<svg version="1.1" xmlns="http://www.w3.org/2000/svg" xmlns:xlink="http://www.w3.org/1999/xlink" x="0px" y="0px"
	 viewBox="0 0 800 600" style="enable-background:new 0 0 800 600;" xml:space="preserve">
<style type="text/css">
	.st0{fill:none;}
	.st1{fill:#F1F2F2;}
	.st2{fill:#FDDCBE;}
	.st3{fill:#F5F5F5;}
	.st4{fill:#333333;}
	.st5{fill:#575757;}
	.st6{fill:#533E29;}
	.st7{fill:#EB7D86;}
	.st8{fill:#D99543;}
	.st9{fill:#EFA734;}
	.st10{fill:#E6E7E8;}
	.st11{fill:#BCBEC0;}
	.st12{fill:#D1D3D4;}
	.st13{fill:#F8C36C;}
	.st14{fill:#E15E18;}
	.st15{fill:#F9D2A7;}
</style>
<g id="Layer_2">
	<g>
		<rect x="0" y="0" class="st0" width="800" height="600"/>
	</g>
</g>
<g id="Layer_1">
	<g>
		<g>
			<g>
				<g>
					<path class="st1" d="M706.87,536.6c0,5.33-80.28,9.65-179.32,9.65s-179.32-4.32-179.32-9.65c0-5.33,80.28-9.65,179.32-9.65
						S706.87,531.27,706.87,536.6z"/>
				</g>
			</g>
		</g>
	</g>
	<g>
		<g>
			<g>
				<g>
					<g>
						<g>
							<g>
								<ellipse class="st1" cx="266.12" cy="538.5" rx="62.01" ry="7.74"/>
							</g>
						</g>
					</g>
				</g>
				<g>
					<g>
						<g>
							<g>
								<g>
									<g>
										<g>
											<g>
												<g>
													<path class="st2" d="M364.08,415.28c0,0,8.9-6.23,3.01-11.76c-5.89-5.53-9.91,4.64-9.91,4.64L364.08,415.28z"/>
												</g>
											</g>
										</g>
									</g>
								</g>
							</g>
							<g>
								<g>
									<g>
										<g>
											<g>
												<g>
													<g>
														<polygon class="st3" points="355.69,409.27 357.24,407.2 364.92,415.15 363.19,417.23 														"/>
													</g>
												</g>
											</g>
										</g>
									</g>
								</g>
							</g>
							<g>
								<g>
									<g>
										<g>
											<g>
												<g>
													<g>
														<path class="st4" d="M292.42,413.74c0,0,30.51,47.73,71.93,3.34l-8.41-9.36c0,0-24.9,33.93-55.48,0.54L292.42,413.74z
															"/>
													</g>
												</g>
											</g>
										</g>
									</g>
								</g>
							</g>
							<g>
								<g>
									<g>
										<g>
											<g>
												<g>
													<g>
														<path class="st5" d="M355.69,422.98c0.39-0.5,0.31-1.22-0.19-1.62c-0.5-0.4-1.23-0.31-1.62,0.19
															c-0.4,0.5-0.31,1.22,0.19,1.62C354.58,423.56,355.3,423.48,355.69,422.98z"/>
													</g>
												</g>
											</g>
										</g>
									</g>
								</g>
							</g>
							<g>
								<g>
									<g>
										<g>
											<g>
												<g>
													<g>
														<path class="st5" d="M358.7,420.29c0.39-0.5,0.31-1.22-0.19-1.62c-0.5-0.39-1.23-0.31-1.62,0.19
															c-0.39,0.5-0.31,1.22,0.19,1.62C357.58,420.88,358.3,420.79,358.7,420.29z"/>
													</g>
												</g>
											</g>
										</g>
									</g>
								</g>
							</g>
							<g>
								<g>
									<g>
										<g>
											<g>
												<g>
													<g>
														<path class="st5" d="M361.63,417.69c0.39-0.5,0.31-1.22-0.19-1.62c-0.5-0.39-1.22-0.31-1.62,0.19
															c-0.39,0.5-0.31,1.22,0.19,1.62C360.51,418.28,361.24,418.19,361.63,417.69z"/>
													</g>
												</g>
											</g>
										</g>
									</g>
								</g>
							</g>
						</g>
					</g>
					<g>
						<g>
							<g>
								<g>
									<g>
										<g>
											<g>
												<g>
													<g>
														<g>
															<g>
																<g>
																	<path class="st2" d="M207.13,418.82c0,0-16.5-78.67,33.1-89.56c63.22-13.88,59.8,80.92,59.8,80.92L207.13,418.82z"
																		/>
																</g>
															</g>
														</g>
													</g>
												</g>
											</g>
										</g>
										<path class="st6" d="M247.26,373.8c0.74,3.47,0,6.57-1.66,6.92c-1.66,0.36-3.61-2.17-4.35-5.64
											c-0.74-3.47,0-6.57,1.66-6.92C244.57,367.81,246.52,370.33,247.26,373.8z"/>
										<path class="st6" d="M288.04,365.07c0.74,3.47,0,6.57-1.66,6.92c-1.66,0.36-3.61-2.17-4.35-5.64
											c-0.74-3.47,0-6.57,1.66-6.92C285.35,359.08,287.3,361.6,288.04,365.07z"/>
										<g>
											<g>
												<g>
													<path class="st7" d="M253.71,390.02c0,0,16.45-4.8,27.42-4.15c0,0,4.39,14.17-11.54,17.05
														C253.82,405.77,253.71,390.02,253.71,390.02z"/>
												</g>
											</g>
										</g>
										<g>
											<g>
												<g>
													<g>
														<g>
															<g>
																<g>
																	<g>
																		<g>
																			<g>
																				<path class="st4" d="M304.28,470.38l-1.63,32.06l-5.62,26.89c0,0,12.17-6.8,16.14,1.4
																					c5.6,11.55-21.9,3.7-21.9,3.7l3.89-33.2l-2.29-20.24c0,0-23.47,7.44-59.67,6.4l0.2,17.67l-5.85,27.34
																					c0,0,7.55-7.98,14.98,0.39c9.96,11.23-20.77,4.24-20.77,4.24l3.15-32.53l-3.96-22.03
																					C220.97,482.48,252.06,469.94,304.28,470.38z"/>
																			</g>
																		</g>
																	</g>
																</g>
															</g>
														</g>
													</g>
													<g>
														<g>
															<g>
																<g>
																	<g>
																		<g>
																			<g>
																				<path class="st4" d="M235.36,413.84l33.18,34.75l24.25-40.82l8.33-0.8l3.16,63.41c0,0-8.29,4.23-24.76,7.31
																					c-6.88,1.41-17.49,2.67-17.49,2.67c-10.84,1.08-25.58,2-41.06,2.12l-16.39-64.9L235.36,413.84z"/>
																			</g>
																		</g>
																	</g>
																</g>
															</g>
														</g>
													</g>
													<g>
														<g>
															<g>
																<g>
																	<g>
																		<g>
																			<g>
																				<g>
																					<g>
																						<polygon class="st3" points="292.79,407.76 268.54,448.59 235.36,413.84 																						"/>
																					</g>
																				</g>
																			</g>
																		</g>
																	</g>
																</g>
															</g>
															<g>
																<g>
																	<g>
																		<g>
																			<g>
																				<g>
																					<g>
																						<polygon class="st5" points="292.79,407.76 294.84,423.95 285.87,426.76 288.42,438.98 268.54,448.59 
																																													"/>
																					</g>
																				</g>
																			</g>
																		</g>
																	</g>
																</g>
															</g>
															<g>
																<g>
																	<g>
																		<g>
																			<g>
																				<g>
																					<g>
																						<polygon class="st5" points="268.54,448.59 247.55,440.92 247.34,431.87 237.34,429.36 235.36,413.84 
																																													"/>
																					</g>
																				</g>
																			</g>
																		</g>
																	</g>
																</g>
															</g>
															<g>
																<g>
																	<g>
																		<g>
																			<g>
																				<g>
																					<g>
																						<polygon class="st4" points="273.64,417.78 270.15,413.57 262.32,414.09 260.01,419.84 263.53,423.2 
																							261.05,440.77 268.54,448.59 274.99,437.74 270.47,422.66 																						"/>
																					</g>
																				</g>
																			</g>
																		</g>
																	</g>
																</g>
															</g>
														</g>
													</g>
													<g>
														<g>
															<g>
																<g>
																	<g>
																		<g>
																			<g>
																				<path class="st5" d="M266.81,455.35c0.45,1.39,1.94,2.15,3.33,1.7c1.39-0.45,2.15-1.94,1.7-3.33
																					c-0.45-1.39-1.94-2.15-3.33-1.7C267.12,452.47,266.36,453.96,266.81,455.35z"/>
																			</g>
																		</g>
																	</g>
																</g>
															</g>
														</g>
													</g>
													<g>
														<g>
															<g>
																<g>
																	<g>
																		<g>
																			<g>
																				<path class="st5" d="M267.62,467.42c0.45,1.39,1.94,2.15,3.33,1.7c1.39-0.45,2.15-1.94,1.7-3.33
																					c-0.45-1.39-1.94-2.15-3.33-1.71C267.93,464.54,267.17,466.03,267.62,467.42z"/>
																			</g>
																		</g>
																	</g>
																</g>
															</g>
														</g>
													</g>
												</g>
											</g>
										</g>
										<g>
											<g>
												<g>
													<g>
														<g>
															<g>
																<g>
																	<g>
																		<g>
																			<path class="st6" d="M293.35,294.17c0,0,28.16,63.28-70.51,60.49l-0.05,19.39c0,0-8.87-8.52-10.15,0.83
																				c-1.47,10.77,8.45,6.86,8.45,6.86s-7.14,22.56-15.77,32.5c-0.48,0.55-40.45-86.38,1.62-85.52
																				c0,0,0.48-21.67,27-27.5C271,293.08,272,322.97,293.35,294.17z"/>
																		</g>
																	</g>
																</g>
															</g>
														</g>
													</g>
												</g>
											</g>
										</g>
									</g>
								</g>
							</g>
						</g>
					</g>
					<g>
						<g>
							<g>
								<g>
									<g>
										<g>
											<g>
												<g>
													<path class="st2" d="M153.46,455.87c0,0-10.82-1.04-8.41-8.76c2.41-7.71,10.91-0.83,10.91-0.83L153.46,455.87z"/>
												</g>
											</g>
										</g>
									</g>
								</g>
							</g>
							<g>
								<g>
									<g>
										<g>
											<g>
												<g>
													<g>
														<polygon class="st3" points="157.81,446.5 155.44,445.47 152.67,456.17 155.2,457.13 														"/>
													</g>
												</g>
											</g>
										</g>
									</g>
								</g>
							</g>
							<g>
								<g>
									<g>
										<g>
											<g>
												<g>
													<g>
														<path class="st4" d="M215.1,419.27c0,0-3.08,56.56-60.98,38.3l2.71-12.29c0,0,38.37,17.29,48.57-26.82L215.1,419.27z"
															/>
													</g>
												</g>
											</g>
										</g>
									</g>
								</g>
							</g>
							<g>
								<g>
									<g>
										<g>
											<g>
												<g>
													<g>
														<path class="st5" d="M164.55,458.44c-0.59-0.24-0.87-0.91-0.63-1.5c0.24-0.59,0.91-0.87,1.5-0.63
															c0.59,0.24,0.87,0.91,0.63,1.5C165.82,458.4,165.14,458.68,164.55,458.44z"/>
													</g>
												</g>
											</g>
										</g>
									</g>
								</g>
							</g>
							<g>
								<g>
									<g>
										<g>
											<g>
												<g>
													<g>
														<path class="st5" d="M160.62,457.58c-0.59-0.24-0.87-0.91-0.63-1.5c0.24-0.59,0.92-0.87,1.5-0.63
															c0.59,0.24,0.87,0.91,0.63,1.5C161.88,457.54,161.2,457.82,160.62,457.58z"/>
													</g>
												</g>
											</g>
										</g>
									</g>
								</g>
							</g>
							<g>
								<g>
									<g>
										<g>
											<g>
												<g>
													<g>
														<path class="st5" d="M156.78,456.76c-0.59-0.24-0.87-0.91-0.63-1.5c0.24-0.59,0.91-0.87,1.5-0.63
															c0.59,0.24,0.87,0.91,0.63,1.5C158.04,456.72,157.37,457,156.78,456.76z"/>
													</g>
												</g>
											</g>
										</g>
									</g>
								</g>
							</g>
						</g>
					</g>
				</g>
			</g>
		</g>
	</g>
	<g>
		<g>
			<g>
				<g>
					<path class="st1" d="M174.64,538.14c0,2.82-17.41,5.1-38.89,5.1c-21.48,0-38.89-2.28-38.89-5.1c0-2.82,17.41-5.1,38.89-5.1
						C157.23,533.05,174.64,535.33,174.64,538.14z"/>
				</g>
			</g>
		</g>
	</g>
	<g>
		<path class="st8" d="M671.46,515.39c-0.6,11.36-10.38,20.66-21.74,20.66H383.9c-11.36,0-20.17-9.3-19.58-20.66l19.65-374.62
			c0.6-11.36,10.38-20.66,21.74-20.66h265.82c11.36,0,20.17,9.3,19.58,20.66L671.46,515.39z"/>
		<path class="st9" d="M666.24,515.39c-0.6,11.36-10.38,20.66-21.74,20.66H378.69c-11.36,0-20.17-9.3-19.58-20.66l19.65-374.62
			c0.6-11.36,10.38-20.66,21.74-20.66h265.82c11.36,0,20.17,9.3,19.58,20.66L666.24,515.39z"/>
		<g>
			<path class="st9" d="M429.94,423.41c0.55,0,1.04-0.61,0.25-0.61C429.63,422.81,429.15,423.41,429.94,423.41L429.94,423.41z"/>
		</g>
		<g>
			<path class="st8" d="M522.29,152.67c-28.14-2-56.07-5.48-83.94-9.14c-19.59-2.58-39.41-4.04-58.98-6.76
				c-0.11,0.44-0.2,0.88-0.28,1.32c11.94,1.65,23.98,2.81,36.02,3.92c21.82,2,43.44,5.61,65.2,8.05
				c43.61,4.9,87.48,6.76,131.68,5.41c24.47-0.75,48.95-2.39,73.39-4.76l0.06-1.14C630.98,154.87,576.37,156.51,522.29,152.67z"/>
			<path class="st8" d="M563.03,140.16c21.59,1.66,43.29,2.48,65.05,2.01c19.32-0.42,38.55-2.13,57.74-4.54
				c-0.04-0.4-0.1-0.8-0.16-1.2c-16.32,2.05-32.67,3.58-49.09,4.22c-22.43,0.88-44.82,0.19-67.08-1.35
				c-22.24-1.54-44.28-4.75-66.25-7.93c-22.19-3.22-44.38-6.69-66.26-11.26h-6.9c22.01,4.79,44.35,8.41,66.73,11.73
				C518.76,135.1,540.82,138.45,563.03,140.16z"/>
			<path class="st8" d="M376.47,184.43l-0.07,1.34c34.73-5.34,69.73-7.61,104.63-8.53c44.42-1.17,88.91-1.01,133.14,1.02
				c23.23,1.07,46.42,2.75,69.49,5.2l0.07-1.37c-45.76-4.79-92.02-6.65-138.27-6.8C489.27,175.12,432.55,175.78,376.47,184.43z"/>
			<path class="st8" d="M522.04,193.43c-49.85,1.8-100.42,9.31-147.53,28.45l-0.07,1.32c74.35-30.61,156.66-31.76,234.19-27.62
				c24.8,1.32,49.56,3.69,74,7.49l0.07-1.28c-11.5-1.76-23.06-3.23-34.66-4.41C606.45,193.14,564.13,191.92,522.04,193.43z"/>
			<path class="st8" d="M482.23,252.42c-36.37-1.3-72.78-1.69-109.26-1.2l-0.07,1.28c8.39-0.14,16.78-0.21,25.18-0.24
				c45.71-0.15,91.27,1.58,136.85,3.09c18.11,0.6,36.21,1.38,54.25,2.66c17.94,1.27,35.73,3.49,53.47,5.96
				c12.2,1.7,24.36,3.59,36.48,5.64l0.07-1.39c-20.56-3.45-41.22-6.44-61.99-8.9C572.62,254.05,527.25,254.02,482.23,252.42z"/>
			<path class="st8" d="M482.42,211.14c-3.35,0.86-7.89,1.84-10.4,4.54c-2.79,3.01,4.24,6.09,5.82,6.92
				c6.68,3.54,14.44,5.2,21.93,6.47c9.59,1.62,19.29,2.93,29.02,3.77c10.85,0.94,21.76,1.4,32.61,2.36
				c11.08,0.99,22.08,2.62,33.1,3.96c22.13,2.69,44.29,5.21,66.48,7.59c6.42,0.69,12.84,1.36,19.26,2.02l0.08-1.47
				c-22.03-2.27-44.03-4.69-66.01-7.27c-21.99-2.58-43.9-5.8-66.06-7.26c-10.91-0.72-21.82-1.38-32.63-2.85
				c-8.66-1.18-17.46-2.33-25.84-4.67c-3.93-1.1-7.76-2.55-11.29-4.54c-1.11-0.63-4.96-2.4-4.4-4.25c0.92-3.05,9.18-4.19,11.63-4.77
				c13.6-3.21,27.1-4.28,40.92-4.52c45.62-0.8,90.7,6.58,134.84,15.27c6.65,1.31,13.29,2.68,19.92,4.08l0.09-1.68
				c-32.42-6.97-65.16-13.07-98.27-16.29C550.19,205.34,515.49,202.68,482.42,211.14z"/>
			<path class="st8" d="M419.85,268.8c-15.86-1.19-31.8-1.14-47.75-0.94l-0.07,1.34c13.28-0.32,26.56-0.48,39.65,0.61
				c22.21,1.84,44.52,2.92,66.84,3.74c45.82,1.68,91.62,3.22,137.37,5.64c20.87,1.11,41.72,2.3,62.57,3.53l0.09-1.62
				c-60.05-3.55-120.14-6.68-180.36-8.51C472.02,271.8,445.88,270.75,419.85,268.8z"/>
			<path class="st8" d="M594.54,318.84c-22.66-1.39-45.25-3.42-67.8-5.67c-22.12-2.21-44.27-4.1-66.33-6.73
				c-30.1-3.59-60.05-8.2-89.59-14.39l-0.1,1.97c32.98,6.83,66.44,11.72,100.06,15.48c22.16,2.48,44.41,4.42,66.63,6.55
				c22.55,2.16,45.15,3.99,67.82,5.16c23.64,1.23,47.38,1.69,71.14,1.01l0.09-1.71C649.09,321.26,621.75,320.51,594.54,318.84z"/>
			<path class="st8" d="M590.68,347.81c-44.5-3.04-88.49-9.7-132.46-15.93c-21.33-3.02-42.54-6.72-63.44-11.55
				c-8.48-1.96-16.81-4.3-25.08-6.79l-0.09,1.8c8.1,2.41,16.26,4.67,24.56,6.59c21.1,4.88,42.54,8.52,64.07,11.57
				c43.98,6.24,87.97,12.8,132.48,15.83c22.16,1.51,44.32,2.62,66.64,2.43c5.83-0.05,11.66-0.16,17.49-0.32l0.08-1.47
				c-5.2,0.14-10.4,0.25-15.6,0.31C636.34,350.55,613.51,349.37,590.68,347.81z"/>
			<path class="st8" d="M503.84,372.61c-33.45,4.19-67.03,10.56-99.68,20.01c-13.43,3.89-26.35,8.82-39.34,13.95l-0.08,1.61
				c2.36-0.95,4.72-1.89,7.08-2.83c20.09-8.05,40.94-13.9,61.87-18.72c43.19-9.95,87.06-15.48,130.91-17.81
				c36.53-1.94,73.02-1.62,109.32,0.5l0.09-1.67C617.5,364.41,560.56,365.5,503.84,372.61z"/>
			<path class="st8" d="M438.67,362.6c8.55-2.73,17.81-3.91,25.64-8.69c0.66-0.4,0.12-0.83-0.35-0.92c-3.56-0.73-7.06-0.3-10.7-0.04
				c-4.28,0.3-8.64-0.38-12.81-1.03c-8.03-1.24-16.09-2.49-24.08-3.9c-16.28-2.89-32.27-7.05-47.81-12.35l-0.09,1.68
				c14.82,4.96,30.01,8.83,45.48,11.69c8.04,1.49,16.17,2.59,24.24,3.95c3.63,0.61,7.29,1.03,10.99,1.22
				c4.05,0.21,8.11-0.64,12.11-0.2c-7.85,4.35-17.38,5.55-25.78,8.29c-9.74,3.18-19.5,6.13-29.36,8.87
				c-13.28,3.7-26.62,7.13-40,10.37l-0.07,1.28c14.1-3.41,28.15-7.03,42.15-10.93C418.45,369.04,428.54,365.84,438.67,362.6z"/>
			<path class="st8" d="M572.65,399.03c-43.21,0.48-86.56,5.01-129.32,13.67c-11.17,2.26-22.29,4.88-33.32,7.88
				c-11.42,3.11-22.53,7.12-33.8,10.77c-4.28,1.39-8.59,2.76-12.9,4.21l-0.1,1.83c4.34-1.48,8.69-2.87,13.01-4.27
				c9.96-3.21,19.79-6.8,29.84-9.71c10.7-3.09,21.5-5.7,32.35-8.02c43.22-9.25,87.14-13.89,130.88-14.62
				c22.8-0.38,45.48,0.42,68.03,2.72c11.57,1.18,23.09,2.7,34.57,4.44l0.1-1.87c-11.01-1.64-22.05-3.09-33.15-4.24
				C616.9,399.54,594.82,398.79,572.65,399.03z"/>
			<path class="st8" d="M473.51,439.74c-37.78,2.61-76.08,9.04-111.66,23.56l-0.09,1.8c27.94-11.6,57.66-18.06,87.4-21.56
				c43.72-5.15,87.69-4.75,131.17-2.21c29.88,1.75,59.74,4.08,89.43,7.37l0.09-1.69c-21.68-2.37-43.45-4.23-65.24-5.76
				C561.02,438.19,517.45,436.71,473.51,439.74z"/>
			<path class="st8" d="M557.08,477.53c-21.91-1.11-43.82-2.18-65.85-1.66c-44.09,1.05-88.35,7.75-131.13,20.62l-0.06,1.14
				c32.61-9.87,66.1-16.09,99.73-18.97c44.35-3.79,88.66-0.87,132.63,2.06c25.18,1.68,50.31,3.91,75.3,6.95l0.06-1.18
				c-15-1.81-30.05-3.34-45.13-4.63C600.83,479.99,578.97,478.64,557.08,477.53z"/>
			<path class="st8" d="M591.76,524.73c-22.22-1.49-44.48-2.58-66.79-3.22c-33.05-0.94-66.08-1.14-99.25,0.72
				c-20.99,1.18-41.96,3.12-62.88,5.85c0.32,0.44,0.65,0.86,1.01,1.27c77.86-9.75,155.94-8.24,233.46-2.84
				c16.09,1.12,32.15,2.44,48.19,3.91c3.98,0.36,7.96,0.78,11.94,1.23c0.49-0.37,0.96-0.75,1.42-1.16
				c-0.08-0.01-0.17-0.02-0.25-0.03C636.49,527.64,614.06,526.22,591.76,524.73z"/>
		</g>
		<path class="st10" d="M658.96,151.15H417.13L397.92,517.4c0,0,68.93-6.84,121.27-6.84c52.34,0,120.55,6.84,120.55,6.84
			L658.96,151.15z"/>
		<polygon class="st3" points="655.02,146.33 409.06,146.33 389.99,509.83 635.95,509.83 		"/>
		<path class="st10" d="M531.4,120.11l-5.11,6.56l-56.91,13.43c-2.7,0.64-5.38,2.53-7.01,4.97l-16.34,24.33
			c-3.02,4.49-1.4,8.92,3.25,8.92h164.46c4.66,0,9.8-4.43,10.37-8.92l3.07-24.33c0.31-2.44-0.85-4.34-3.05-4.97l-46.19-13.43
			l0.13-6.56H531.4z"/>
		<g>
			<path class="st11" d="M611.81,138.02l-50.84-13.43l-4.54-13.89c6.09-5.56,10.07-13.44,10.32-22.16
				c0.45-15.28-11.1-28.02-26.31-28.97c-17.22-1.07-32.28,12.62-33.17,29.67c-0.44,8.44,2.68,16.05,8.04,21.46l-6,13.89
				l-52.25,13.43c-2.48,0.64-4.5,2.53-5.29,4.97l-7.91,24.33c-1.46,4.49,1.69,8.92,6.34,8.92h164.46c4.66,0,8.27-4.43,7.28-8.92
				l-5.36-24.33C616.04,140.55,614.22,138.65,611.81,138.02z M538.03,69.5c3.8,0,6.72,3.08,6.53,6.89c-0.2,3.8-3.44,6.89-7.25,6.89
				c-3.8,0-6.72-3.08-6.53-6.89C530.98,72.59,534.23,69.5,538.03,69.5z"/>
		</g>
		<g>
			<path class="st12" d="M609.85,138.02l-50.84-13.43l-4.54-13.89c6.09-5.56,10.07-13.44,10.32-22.16
				c0.45-15.28-11.1-28.02-26.31-28.97c-17.22-1.07-32.28,12.62-33.17,29.67c-0.44,8.44,2.68,16.05,8.04,21.46l-6,13.89
				l-52.25,13.43c-2.48,0.64-4.5,2.53-5.29,4.97l-7.91,24.33c-1.46,4.49,1.69,8.92,6.34,8.92H612.7c4.66,0,8.27-4.43,7.28-8.92
				l-5.36-24.33C614.08,140.55,612.26,138.65,609.85,138.02z M536.07,69.5c3.8,0,6.72,3.08,6.53,6.89c-0.2,3.8-3.44,6.89-7.25,6.89
				c-3.8,0-6.72-3.08-6.53-6.89C529.02,72.59,532.27,69.5,536.07,69.5z"/>
		</g>
	</g>
	<g>
		<g>
			<g>
				<g>
					<path class="st13" d="M117.11,286.98c0,0-4.24,3.4-7.46,3.92c-3.23,0.52-8.31-1.38-8.31-1.38l36.28,225.78l15.78-2.53
						L117.11,286.98z"/>
					<path class="st9" d="M101.33,289.52c0,0-1.69,1.97-3.82,2.31c-1.86,0.3-3.79-0.69-4.25-0.94c0,0.33,0.01,0.64,0.06,0.91
						c0,0,33.71,209.78,36.13,224.81l8.16-1.31L101.33,289.52z"/>
					<path class="st4" d="M105.46,259.75c-0.29-0.36-0.61-0.51-0.9-0.47c-0.29,0.05-0.55,0.29-0.71,0.73l-3.36,9.38l11.1-1.78
						L105.46,259.75z"/>
					<path class="st14" d="M162.61,518.07l-32.11,5.16c0.22,1.38,0.78,4.86,0.79,4.92c1.42,8.87,9.34,12.25,18.21,10.83
						c8.87-1.42,15.32-7.12,13.9-15.98C163.4,522.93,162.83,519.44,162.61,518.07z"/>
					<path class="st3" d="M161.55,511.45l-32.11,5.16c0.44,2.76,0.81,5.06,1.06,6.62l32.11-5.16
						C162.36,516.51,161.99,514.21,161.55,511.45z"/>
					<path class="st15" d="M124.12,283.66l-12.53-16.06l-11.1,1.78l-6.87,19.17c-0.22,0.61-0.36,1.52-0.36,2.32
						c0.46,0.25,2.39,1.24,4.25,0.94c2.12-0.34,3.82-2.31,3.82-2.31s5.09,1.9,8.31,1.38c3.23-0.52,7.46-3.92,7.46-3.92
						s2.22,1.34,4.35,1c1.86-0.3,3.39-1.84,3.74-2.23C124.93,285,124.53,284.18,124.12,283.66z"/>
					<path class="st9" d="M117.11,286.98l36.28,225.78l8.16-1.31c-2.42-15.03-36.12-224.81-36.12-224.81
						c-0.04-0.27-0.13-0.57-0.23-0.88c-0.35,0.38-1.88,1.93-3.74,2.23C119.33,288.32,117.11,286.98,117.11,286.98z"/>
				</g>
			</g>
		</g>
	</g>
</g>
</svg>
