<svg width="81" height="40" viewBox="0 0 81 40" fill="none" xmlns="http://www.w3.org/2000/svg">
<path d="M24.2003 1.5999C24.9736 1.5999 25.1603 1.94657 24.7603 2.6399L14.6003 18.6399V28.9599C14.6003 29.3332 14.5203 29.5999 14.3603 29.7599C14.227 29.9199 13.9603 29.9999 13.5603 29.9999H11.8003C11.4003 29.9999 11.1203 29.9199 10.9603 29.7599C10.827 29.5999 10.7603 29.3332 10.7603 28.9599V18.5599L0.600297 2.6399C0.41363 2.37324 0.360297 2.13324 0.440297 1.9199C0.546964 1.70657 0.786964 1.5999 1.1603 1.5999H3.3203C3.9603 1.5999 4.4003 1.65323 4.6403 1.7599C4.8803 1.8399 5.1203 2.09324 5.3603 2.5199L12.7203 14.6399L20.1603 2.5199C20.4003 2.09324 20.627 1.8399 20.8403 1.7599C21.0803 1.65323 21.5336 1.5999 22.2003 1.5999H24.2003Z" fill="#43AB71"/>
<path d="M23.52 16.4399C23.52 14.0399 24.3067 12.1599 25.88 10.7999C27.48 9.4399 29.68 8.7599 32.48 8.7599C35.3333 8.7599 37.5466 9.4399 39.12 10.7999C40.6933 12.1599 41.48 14.0399 41.48 16.4399V22.9599C41.48 25.3332 40.6933 27.1999 39.12 28.5599C37.5466 29.9199 35.3333 30.5999 32.48 30.5999C29.68 30.5999 27.48 29.9199 25.88 28.5599C24.3067 27.1999 23.52 25.3332 23.52 22.9599V16.4399ZM37.92 16.3999C37.92 15.0132 37.44 13.9332 36.48 13.1599C35.52 12.3866 34.1867 11.9999 32.48 11.9999C30.8 11.9999 29.48 12.3866 28.52 13.1599C27.56 13.9332 27.08 15.0132 27.08 16.3999V22.9599C27.08 24.3466 27.56 25.4266 28.52 26.1999C29.48 26.9732 30.8 27.3599 32.48 27.3599C34.1867 27.3599 35.52 26.9732 36.48 26.1999C37.44 25.4266 37.92 24.3466 37.92 22.9599V16.3999Z" fill="#43AB71"/>
<path d="M49.5206 29.0399C49.5206 29.4132 49.4406 29.6666 49.2806 29.7999C49.1473 29.9332 48.9073 29.9999 48.5606 29.9999H46.9206C46.5473 29.9999 46.2939 29.9332 46.1606 29.7999C46.0273 29.6666 45.9606 29.4132 45.9606 29.0399V1.3599C45.9606 0.986569 46.0273 0.733235 46.1606 0.599902C46.2939 0.466569 46.5473 0.399902 46.9206 0.399902H48.5606C48.9073 0.399902 49.1473 0.466569 49.2806 0.599902C49.4406 0.733235 49.5206 0.986569 49.5206 1.3599V29.0399Z" fill="#43AB71"/>
<path d="M58.3487 29.0399C58.3487 29.4132 58.2687 29.6666 58.1087 29.7999C57.9754 29.9332 57.7354 29.9999 57.3887 29.9999H55.7487C55.3754 29.9999 55.1221 29.9332 54.9887 29.7999C54.8554 29.6666 54.7887 29.4132 54.7887 29.0399V1.3599C54.7887 0.986569 54.8554 0.733235 54.9887 0.599902C55.1221 0.466569 55.3754 0.399902 55.7487 0.399902H57.3887C57.7354 0.399902 57.9754 0.466569 58.1087 0.599902C58.2687 0.733235 58.3487 0.986569 58.3487 1.3599V29.0399Z" fill="#43AB71"/>
<path d="M79.6169 9.3599C79.9902 9.3599 80.2435 9.42657 80.3769 9.5599C80.5102 9.69323 80.5769 9.94657 80.5769 10.3199V30.9999C80.5769 36.7599 77.6969 39.6399 71.9369 39.6399C68.0702 39.6399 65.3635 38.2799 63.8169 35.5599C63.3902 34.8932 63.5235 34.3866 64.2169 34.0399L65.3769 33.3999C65.7502 33.2132 66.0435 33.1466 66.2569 33.1999C66.4702 33.2532 66.6969 33.4399 66.9369 33.7599C67.9769 35.5466 69.6302 36.4399 71.8969 36.4399C75.3102 36.4399 77.0169 34.6799 77.0169 31.1599V28.9999C74.9635 29.5599 73.0969 29.8399 71.4169 29.8399C66.0035 29.8399 63.2969 27.1999 63.2969 21.9199V10.3199C63.2969 9.94657 63.3635 9.69323 63.4969 9.5599C63.6302 9.42657 63.8835 9.3599 64.2569 9.3599H65.9369C66.2835 9.3599 66.5235 9.4399 66.6569 9.5999C66.7902 9.73324 66.8569 9.97324 66.8569 10.3199V21.7999C66.8569 24.9732 68.5369 26.5599 71.8969 26.5599C73.4969 26.5599 75.2035 26.2799 77.0169 25.7199V10.3199C77.0169 9.94657 77.0835 9.69323 77.2169 9.5599C77.3769 9.42657 77.6302 9.3599 77.9769 9.3599H79.6169Z" fill="#43AB71"/>
</svg>
