<?xml version="1.0" standalone="no"?>
<!DOCTYPE svg PUBLIC "-//W3C//DTD SVG 1.1//EN" "http://www.w3.org/Graphics/SVG/1.1/DTD/svg11.dtd" >
<svg xmlns="http://www.w3.org/2000/svg" xmlns:xlink="http://www.w3.org/1999/xlink" version="1.1">
<metadata>
Created by FontForge 20191125 at Tue Mar 22 14:06:38 2016
 By convertio
Copyright (c) 2016 by S-Core Co., Ltd.. All rights reserved.
</metadata>
<defs>
<font id="CoreSansC-55Medium" horiz-adv-x="800" >
  <font-face 
    font-family="Core Sans C 55 Medium"
    font-weight="500"
    font-stretch="normal"
    units-per-em="2000"
    panose-1="2 11 6 3 3 3 2 2 2 4"
    ascent="1600"
    descent="-400"
    x-height="1036"
    cap-height="1400"
    bbox="-790 -520 2508 1950"
    underline-thickness="48"
    underline-position="-510"
    unicode-range="U+0009-FB04"
  />
<missing-glyph horiz-adv-x="1000" 
d="M880 0h-760v1500h760v-1500zM310 182h380v1136h-380v-1136z" />
    <glyph glyph-name="ff" unicode="ff" horiz-adv-x="1434" 
d="M1390 1452v-196q-40 4 -90 4q-100 0 -142 -39.5t-42 -128.5v-56h274v-200h-274v-836h-228v836h-452v-836h-228v836h-164v200h164v58q0 191 96 278.5t306 87.5q87 0 151 -14l-26 -196q-57 10 -115 10q-100 0 -142 -39.5t-42 -128.5v-56h452v58q0 190 94.5 278t297.5 88
q66 0 110 -8z" />
    <glyph glyph-name="fi" unicode="fi" horiz-adv-x="1266" 
d="M208 1036v58q0 190 94.5 278t297.5 88q66 0 110 -8v-196q-40 4 -90 4q-100 0 -142 -39.5t-42 -128.5v-56h680v-1036h-228v836h-452v-836h-228v836h-164v200h164zM860 1318q0 60 41 101t101 41t101 -41t41 -101t-41 -101t-101 -41t-101 41t-41 101z" />
    <glyph glyph-name="fl" unicode="fl" horiz-adv-x="1266" 
d="M710 1452v-196q-40 4 -90 4q-100 0 -142 -39.5t-42 -128.5v-56h274v-200h-274v-836h-228v836h-164v200h164v58q0 190 94.5 278t297.5 88q66 0 110 -8zM888 0v1460h228v-1460h-228z" />
    <glyph glyph-name="ffi" unicode="ffi" horiz-adv-x="1946" 
d="M1540 1318q0 60 41 101t101 41t101 -41t41 -101t-41 -101t-101 -41t-101 41t-41 101zM436 1092v-56h452v58q0 190 94.5 278t297.5 88q66 0 110 -8v-196q-40 4 -90 4q-100 0 -142 -39.5t-42 -128.5v-56h680v-1036h-228v836h-452v-836h-228v836h-452v-836h-228v836h-164
v200h164v58q0 191 96 278.5t306 87.5q87 0 151 -14l-26 -196q-57 10 -115 10q-100 0 -142 -39.5t-42 -128.5z" />
    <glyph glyph-name="ffl" unicode="ffl" horiz-adv-x="1946" 
d="M1568 0v1460h228v-1460h-228zM1390 1452v-196q-40 4 -90 4q-100 0 -142 -39.5t-42 -128.5v-56h274v-200h-274v-836h-228v836h-452v-836h-228v836h-164v200h164v58q0 191 96 278.5t306 87.5q87 0 151 -14l-26 -196q-57 10 -115 10q-100 0 -142 -39.5t-42 -128.5v-56h452
v58q0 190 94.5 278t297.5 88q66 0 110 -8z" />
    <glyph glyph-name=".notdef" horiz-adv-x="1000" 
d="M880 0h-760v1500h760v-1500zM310 182h380v1136h-380v-1136z" />
    <glyph glyph-name=".null" horiz-adv-x="0" 
 />
    <glyph glyph-name=".null" horiz-adv-x="0" 
 />
    <glyph glyph-name="nonmarkingreturn" horiz-adv-x="666" 
 />
    <glyph glyph-name="CR" unicode="&#x9;" horiz-adv-x="0" 
 />
    <glyph glyph-name="space" unicode=" " horiz-adv-x="600" 
 />
    <glyph glyph-name="exclam" unicode="!" horiz-adv-x="624" 
d="M194 404v996h236v-996h-236zM164 124q0 63 42.5 105.5t105.5 42.5t105.5 -42.5t42.5 -105.5t-42.5 -105.5t-105.5 -42.5t-105.5 42.5t-42.5 105.5z" />
    <glyph glyph-name="quotedbl" unicode="&#x22;" horiz-adv-x="982" 
d="M550 834v566h228v-566h-228zM204 834v566h228v-566h-228z" />
    <glyph glyph-name="numbersign" unicode="#" horiz-adv-x="1380" 
d="M892 1052l60 348h222l-60 -348h196v-190h-228l-58 -332h212v-190h-244l-58 -340h-222l58 340h-282l-58 -340h-222l58 340h-196v190h228l58 332h-212v190h244l60 348h222l-60 -348h282zM578 862l-58 -332h282l58 332h-282z" />
    <glyph glyph-name="dollar" unicode="$" horiz-adv-x="1188" 
d="M98 202l146 158q137 -150 294 -176v448q-205 48 -307.5 151t-102.5 253q0 162 113 267.5t297 118.5v182h152v-188q207 -29 346 -170l-138 -166q-108 98 -208 126v-394q223 -57 320.5 -161.5t97.5 -266.5q0 -165 -111 -274t-307 -129v-185h-152v184q-131 12 -247 70
t-193 152zM872 384q0 140 -182 207v-401q84 20 133 71t49 123zM364 1052q0 -66 42 -114.5t132 -82.5v360q-78 -12 -126 -56t-48 -107z" />
    <glyph glyph-name="percent" unicode="%" horiz-adv-x="1830" 
d="M436 0l722 1400h236l-720 -1400h-238zM86 1058q0 150 107.5 253t268.5 103t268.5 -103t107.5 -253t-107.5 -253t-268.5 -103t-268.5 103t-107.5 253zM308 1058q0 -67 43.5 -115.5t110.5 -48.5t110.5 48.5t43.5 115.5t-43.5 115.5t-110.5 48.5t-110.5 -48.5t-43.5 -115.5z
M992 342q0 150 107.5 253t268.5 103t268.5 -103t107.5 -253t-107.5 -253t-268.5 -103t-268.5 103t-107.5 253zM1214 342q0 -67 43.5 -115.5t110.5 -48.5t110.5 48.5t43.5 115.5t-43.5 115.5t-110.5 48.5t-110.5 -48.5t-43.5 -115.5z" />
    <glyph glyph-name="ampersand" unicode="&#x26;" horiz-adv-x="1480" 
d="M1006 1180l-206 -78q-17 61 -65 97.5t-117 36.5q-71 0 -120.5 -46t-49.5 -108q0 -57 42.5 -121t151.5 -165l361 -335q54 116 67 267l220 -32q-15 -218 -120 -391l330 -305h-318l-150 139q-184 -163 -430 -163q-211 0 -349.5 115.5t-138.5 288.5q0 123 60.5 217.5
t185.5 174.5q-76 85 -106 155.5t-30 152.5q0 147 116 245.5t278 98.5q145 0 247.5 -65.5t140.5 -178.5zM602 176q149 0 273 109l-372 347q-161 -103 -161 -236q0 -94 72.5 -157t187.5 -63z" />
    <glyph glyph-name="quotesingle" unicode="'" horiz-adv-x="636" 
d="M204 834v566h228v-566h-228z" />
    <glyph glyph-name="parenleft" unicode="(" horiz-adv-x="840" 
d="M230 610q0 265 96 507.5t272 422.5l162 -122q-143 -165 -218.5 -375t-75.5 -433t75.5 -433t218.5 -375l-162 -122q-176 180 -272 422.5t-96 507.5z" />
    <glyph glyph-name="parenright" unicode=")" horiz-adv-x="840" 
d="M610 610q0 -265 -96 -507.5t-272 -422.5l-162 122q143 165 218.5 375t75.5 433t-75.5 433t-218.5 375l162 122q176 -180 272 -422.5t96 -507.5z" />
    <glyph glyph-name="asterisk" unicode="*" horiz-adv-x="1120" 
d="M226 970l242 -146l-4 282h192l-4 -282l242 146l96 -166l-248 -140l248 -140l-96 -166l-242 144l4 -280h-192l4 280l-242 -144l-96 166l248 140l-248 140z" />
    <glyph glyph-name="plus" unicode="+" horiz-adv-x="1160" 
d="M466 210v356h-346v196h346v356h228v-356h346v-196h-346v-356h-228z" />
    <glyph glyph-name="comma" unicode="," horiz-adv-x="600" 
d="M152 124q0 63 42.5 105.5t105.5 42.5t105.5 -42.5t42.5 -105.5q0 -36 -16 -68l-142 -306h-146l106 234q-44 15 -71 53t-27 87z" />
    <glyph glyph-name="hyphen" unicode="-" horiz-adv-x="812" 
d="M692 556h-572v216h572v-216z" />
    <glyph glyph-name="period" unicode="." horiz-adv-x="600" 
d="M152 124q0 63 42.5 105.5t105.5 42.5t105.5 -42.5t42.5 -105.5t-42.5 -105.5t-105.5 -42.5t-105.5 42.5t-42.5 105.5z" />
    <glyph glyph-name="slash" unicode="/" horiz-adv-x="924" 
d="M924 1500l-682 -1780h-242l686 1780h238z" />
    <glyph glyph-name="zero" unicode="0" horiz-adv-x="1200" 
d="M120 700q0 208 51 368.5t161 258t268 97.5q118 0 211 -55.5t151 -154.5t88 -229.5t30 -284.5t-30 -284.5t-88 -229.5t-151 -154.5t-211 -55.5q-158 0 -268 97.5t-161 258t-51 368.5zM352 700q0 -241 60.5 -376.5t187.5 -135.5t187.5 135.5t60.5 376.5t-60.5 376.5
t-187.5 135.5t-187.5 -135.5t-60.5 -376.5z" />
    <glyph glyph-name="one" unicode="1" horiz-adv-x="1200" 
d="M570 1400h212v-1400h-232v1168l-234 -124l-98 170z" />
    <glyph glyph-name="two" unicode="2" horiz-adv-x="1200" 
d="M838 576l-346 -376h542v-200h-846v190l470 510q86 93 122 163t36 145q0 98 -60.5 157t-157.5 59q-86 0 -144.5 -46.5t-98.5 -142.5l-193 83q48 142 159.5 224t276.5 82q197 0 323.5 -112.5t126.5 -301.5q0 -118 -48.5 -214t-161.5 -220z" />
    <glyph glyph-name="three" unicode="3" horiz-adv-x="1200" 
d="M810 444q0 111 -78.5 189.5t-195.5 78.5q-29 0 -66 -10l-90 114l312 380h-514v204h796v-204l-284 -336q163 -25 257.5 -147t94.5 -291q0 -82 -35 -161.5t-97 -143t-158 -102.5t-208 -39q-141 0 -256 61.5t-191 175.5l160 132q116 -169 279 -169q117 0 195.5 78.5
t78.5 189.5z" />
    <glyph glyph-name="four" unicode="4" horiz-adv-x="1200" 
d="M78 264v210l622 926h232v-924h150v-212h-150v-264h-232v264h-622zM332 474h368v546z" />
    <glyph glyph-name="five" unicode="5" horiz-adv-x="1200" 
d="M562 -24q-141 0 -257 59.5t-189 174.5l167 134q111 -168 271 -168q118 0 196 76.5t78 189.5t-78 189.5t-196 76.5q-63 0 -117 -25.5t-83 -66.5l-164 20l84 764h734v-204h-528l-40 -338q66 46 172 46q90 0 170.5 -31.5t142.5 -88.5t98.5 -144.5t36.5 -191.5
q0 -210 -134.5 -341t-363.5 -131z" />
    <glyph glyph-name="six" unicode="6" horiz-adv-x="1200" 
d="M876 1400l-328 -504q36 12 82 12q122 0 228 -57.5t172 -165t66 -241.5t-70.5 -242.5t-183.5 -167t-240 -58.5q-131 0 -245.5 58.5t-185.5 167t-71 242.5q0 139 70 246l460 710h246zM864 444q0 113 -78 190.5t-188 77.5t-188 -77.5t-78 -190.5t78 -190.5t188 -77.5
t188 77.5t78 190.5z" />
    <glyph glyph-name="seven" unicode="7" horiz-adv-x="1200" 
d="M168 1400h872v-194l-500 -1206h-260l500 1196h-612v204z" />
    <glyph glyph-name="eight" unicode="8" horiz-adv-x="1200" 
d="M600 -24q-206 0 -347 127t-141 315q0 122 65 217t179 137q-74 37 -123 113.5t-49 164.5q0 157 118 265.5t298 108.5t298 -108.5t118 -265.5q0 -88 -49 -164.5t-123 -113.5q114 -42 179 -137t65 -217q0 -188 -141 -315t-347 -127zM600 668q-108 0 -182 -72t-74 -174
t74 -174t182 -72t182 72t74 174t-74 174t-182 72zM600 860q80 0 136 55.5t56 128.5q0 74 -56 127t-136 53t-136 -53t-56 -127q0 -73 56 -128.5t136 -55.5z" />
    <glyph glyph-name="nine" unicode="9" horiz-adv-x="1200" 
d="M324 0l328 504q-36 -12 -82 -12q-122 0 -228 57.5t-172 165t-66 241.5t70.5 242.5t183.5 167t240 58.5q131 0 245.5 -58.5t185.5 -167t71 -242.5q0 -139 -70 -246l-460 -710h-246zM336 956q0 -113 78 -190.5t188 -77.5t188 77.5t78 190.5t-78 190.5t-188 77.5t-188 -77.5
t-78 -190.5z" />
    <glyph glyph-name="colon" unicode=":" horiz-adv-x="600" 
d="M152 124q0 63 42.5 105.5t105.5 42.5t105.5 -42.5t42.5 -105.5t-42.5 -105.5t-105.5 -42.5t-105.5 42.5t-42.5 105.5zM152 912q0 63 42.5 105.5t105.5 42.5t105.5 -42.5t42.5 -105.5t-42.5 -105.5t-105.5 -42.5t-105.5 42.5t-42.5 105.5z" />
    <glyph glyph-name="semicolon" unicode=";" horiz-adv-x="600" 
d="M152 912q0 63 42.5 105.5t105.5 42.5t105.5 -42.5t42.5 -105.5t-42.5 -105.5t-105.5 -42.5t-105.5 42.5t-42.5 105.5zM152 124q0 63 42.5 105.5t105.5 42.5t105.5 -42.5t42.5 -105.5q0 -36 -16 -68l-142 -306h-146l106 234q-44 15 -71 53t-27 87z" />
    <glyph glyph-name="less" unicode="&#x3c;" horiz-adv-x="1160" 
d="M124 582v164l880 482v-257l-590 -307l590 -307v-257z" />
    <glyph glyph-name="equal" unicode="=" horiz-adv-x="1160" 
d="M1040 788h-920v196h920v-196zM1040 344h-920v196h920v-196z" />
    <glyph glyph-name="greater" unicode="&#x3e;" horiz-adv-x="1160" 
d="M1036 746v-164l-880 -482v257l590 307l-590 307v257z" />
    <glyph glyph-name="question" unicode="?" horiz-adv-x="1104" 
d="M364 404v362q177 0 278.5 71.5t101.5 182.5q0 85 -75 140.5t-197 55.5q-135 0 -272 -116l-124 169q184 155 424 155q214 0 349 -121t135 -285q0 -144 -103.5 -254t-280.5 -144v-216h-236zM334 124q0 63 42.5 105.5t105.5 42.5t105.5 -42.5t42.5 -105.5t-42.5 -105.5
t-105.5 -42.5t-105.5 42.5t-42.5 105.5z" />
    <glyph glyph-name="at" unicode="@" horiz-adv-x="1940" 
d="M964 284q72 0 129.5 38.5t88.5 101.5v228q-31 63 -88.5 101.5t-129.5 38.5q-103 0 -173.5 -73.5t-70.5 -180.5t70.5 -180.5t173.5 -73.5zM1440 112q-70 0 -138 34.5t-108 87.5q-109 -122 -262 -122q-173 0 -289.5 125.5t-116.5 300.5t116.5 300.5t289.5 125.5
q143 0 250 -110v90h190v-614q14 -20 40.5 -33t53.5 -13q88 0 148 78t60 226q0 138 -57.5 262t-153.5 211.5t-226 139t-271 51.5q-190 0 -350.5 -92.5t-255 -254.5t-94.5 -355q0 -195 94.5 -355.5t261 -253.5t370.5 -93q264 0 476 150l76 -160q-132 -80 -265 -121t-287 -41
q-193 0 -363 66.5t-292 182t-192.5 278t-70.5 347.5q0 184 71 347.5t191 278.5t284.5 181.5t345.5 66.5q190 0 357 -63.5t286 -173.5t188 -265.5t69 -333.5q0 -219 -118 -347.5t-308 -128.5z" />
    <glyph glyph-name="A" unicode="A" horiz-adv-x="1376" 
d="M820 1400l516 -1400h-256l-116 338h-552l-116 -338h-256l516 1400h264zM688 1142l-206 -600h412z" />
    <glyph glyph-name="B" unicode="B" horiz-adv-x="1246" 
d="M746 0h-586v1400h512q192 0 298 -100.5t106 -277.5q0 -199 -164 -274q104 -28 174 -119t70 -221q0 -183 -110.5 -295.5t-299.5 -112.5zM836 1010q0 90 -49 138t-131 48h-260v-372h260q82 0 131 48t49 138zM916 416q0 98 -52.5 155t-137.5 57h-330v-424h330
q85 0 137.5 57.5t52.5 154.5z" />
    <glyph glyph-name="C" unicode="C" horiz-adv-x="1382" 
d="M1188 320l124 -176q-206 -168 -486 -168q-208 0 -379 95.5t-269 261.5t-98 367t98 367t269 261.5t379 95.5q264 0 470 -156l-118 -178q-94 62 -174 94t-178 32q-212 0 -359 -149t-147 -367t147 -367t359 -149q191 0 362 136z" />
    <glyph glyph-name="D" unicode="D" horiz-adv-x="1434" 
d="M160 1400h492q323 0 512.5 -187.5t189.5 -512.5t-189.5 -512.5t-512.5 -187.5h-492v1400zM652 1192h-256v-984h256q212 0 337 123t125 369t-125 369t-337 123z" />
    <glyph glyph-name="E" unicode="E" horiz-adv-x="1140" 
d="M160 0v1400h852v-204h-616v-390h568v-204h-568v-398h634v-204h-870z" />
    <glyph glyph-name="F" unicode="F" horiz-adv-x="1072" 
d="M160 0v1400h832v-204h-596v-390h548v-204h-548v-602h-236z" />
    <glyph glyph-name="G" unicode="G" horiz-adv-x="1450" 
d="M826 1216q-212 0 -359 -149t-147 -367t147 -367t359 -149q67 0 136.5 18.5t121.5 51.5v302h-340v204h576v-608q-96 -83 -224.5 -129.5t-269.5 -46.5q-208 0 -379 95.5t-269 261.5t-98 367t98 367t269 261.5t379 95.5q264 0 470 -156l-118 -178q-94 62 -174 94t-178 32z
" />
    <glyph glyph-name="H" unicode="H" horiz-adv-x="1408" 
d="M160 0v1400h236v-594h616v594h236v-1400h-236v602h-616v-602h-236z" />
    <glyph glyph-name="I" unicode="I" horiz-adv-x="576" 
d="M170 1400h236v-1400h-236v1400z" />
    <glyph glyph-name="J" unicode="J" horiz-adv-x="924" 
d="M538 446v954h236v-954q0 -243 -114 -356.5t-340 -113.5q-73 0 -150 18.5t-130 49.5l76 198q98 -58 200 -58q110 0 166 62t56 200z" />
    <glyph glyph-name="K" unicode="K" horiz-adv-x="1216" 
d="M396 1400v-594h85l397 594h268l-466 -692l546 -708h-276l-462 602h-92v-602h-236v1400h236z" />
    <glyph glyph-name="L" unicode="L" horiz-adv-x="1030" 
d="M160 0v1400h236v-1196h594v-204h-830z" />
    <glyph glyph-name="M" unicode="M" horiz-adv-x="1712" 
d="M930 428h-148l-394 586v-1014h-228v1400h220l476 -712l476 712h220v-1400h-228v1014z" />
    <glyph glyph-name="N" unicode="N" horiz-adv-x="1408" 
d="M160 0v1400h228l632 -992v992h228v-1400h-228l-632 992v-992h-228z" />
    <glyph glyph-name="O" unicode="O" horiz-adv-x="1652" 
d="M826 184q212 0 359 149t147 367t-147 367t-359 149t-359 -149t-147 -367t147 -367t359 -149zM826 1424q208 0 379 -95.5t269 -261.5t98 -367t-98 -367t-269 -261.5t-379 -95.5t-379 95.5t-269 261.5t-98 367t98 367t269 261.5t379 95.5z" />
    <glyph glyph-name="P" unicode="P" horiz-adv-x="1186" 
d="M632 508h-236v-508h-236v1400h472q225 0 354.5 -121t129.5 -325t-129.5 -325t-354.5 -121zM876 954q0 113 -65.5 177.5t-188.5 64.5h-226v-484h226q123 0 188.5 64.5t65.5 177.5z" />
    <glyph glyph-name="Q" unicode="Q" horiz-adv-x="1652" 
d="M1426 -142l-206 222q-180 -104 -394 -104q-208 0 -379 95.5t-269 261.5t-98 367t98 367t269 261.5t379 95.5t379 -95.5t269 -261.5t98 -367q0 -142 -50.5 -268t-142.5 -224l197 -212zM826 184q129 0 242 61l-216 233l150 138l221 -240q109 141 109 324q0 218 -147 367
t-359 149t-359 -149t-147 -367t147 -367t359 -149z" />
    <glyph glyph-name="R" unicode="R" horiz-adv-x="1214" 
d="M160 1400h472q225 0 354.5 -121t129.5 -325q0 -166 -88 -279t-246 -151l362 -524h-260l-349 508h-139v-508h-236v1400zM622 1196h-226v-484h226q123 0 188.5 64.5t65.5 177.5t-65.5 177.5t-188.5 64.5z" />
    <glyph glyph-name="S" unicode="S" horiz-adv-x="1188" 
d="M98 202l148 160q73 -80 163 -129t185 -49q123 0 198.5 54t75.5 146q0 86 -68 146.5t-238 95.5q-218 46 -326 150.5t-108 259.5q0 173 127 280.5t329 107.5q277 0 452 -178l-140 -168q-152 138 -302 138q-99 0 -162.5 -45t-63.5 -119q0 -85 69 -140.5t225 -91.5
q239 -55 342.5 -161.5t103.5 -274.5q0 -183 -135 -295.5t-369 -112.5q-148 0 -283 60t-223 166z" />
    <glyph glyph-name="T" unicode="T" horiz-adv-x="1108" 
d="M436 0v1196h-376v204h988v-204h-376v-1196h-236z" />
    <glyph glyph-name="U" unicode="U" horiz-adv-x="1336" 
d="M1186 1400v-904q0 -154 -70 -273.5t-187.5 -182t-260.5 -62.5t-260.5 62.5t-187.5 182t-70 273.5v904h236v-932q0 -126 81 -204t201 -78t201 78t81 204v932h236z" />
    <glyph glyph-name="V" unicode="V" horiz-adv-x="1376" 
d="M292 1400l396 -1102l396 1102h252l-516 -1400h-264l-516 1400h252z" />
    <glyph glyph-name="W" unicode="W" horiz-adv-x="1960" 
d="M864 1400h232l302 -1054l274 1054h248l-398 -1400h-232l-310 1076l-310 -1076h-232l-398 1400h248l274 -1054z" />
    <glyph glyph-name="X" unicode="X" horiz-adv-x="1272" 
d="M986 0l-350 542l-350 -542h-256l466 712l-448 688h256l332 -518l332 518h256l-448 -688l466 -712h-256z" />
    <glyph glyph-name="Y" unicode="Y" horiz-adv-x="1292" 
d="M292 1400l354 -596l354 596h252l-488 -826v-574h-236v574l-488 826h252z" />
    <glyph glyph-name="Z" unicode="Z" horiz-adv-x="1214" 
d="M120 204l680 992h-650v204h934v-204l-680 -992h700v-204h-984v204z" />
    <glyph glyph-name="bracketleft" unicode="[" horiz-adv-x="840" 
d="M228 -280v1780h572v-204h-336v-1372h336v-204h-572z" />
    <glyph glyph-name="backslash" unicode="\" horiz-adv-x="924" 
d="M682 -280l-682 1780h238l686 -1780h-242z" />
    <glyph glyph-name="bracketright" unicode="]" horiz-adv-x="840" 
d="M612 1500v-1780h-572v204h336v1372h-336v204h572z" />
    <glyph glyph-name="asciicircum" unicode="^" horiz-adv-x="1240" 
d="M500 1400h240l400 -622h-252l-268 422l-268 -422h-252z" />
    <glyph glyph-name="underscore" unicode="_" horiz-adv-x="1000" 
d="M0 -360v176h1000v-176h-1000z" />
    <glyph glyph-name="grave" unicode="`" horiz-adv-x="840" 
d="M339 1460l272 -342h-222l-279 342h229z" />
    <glyph glyph-name="a" unicode="a" horiz-adv-x="1312" 
d="M640 180q100 0 181.5 50.5t122.5 135.5v302q-41 85 -123 136.5t-181 51.5q-142 0 -240 -98t-98 -240t98 -240t240 -98zM600 1060q208 0 344 -136v112h228v-1036h-228v112q-136 -136 -344 -136q-150 0 -272.5 74t-190 198t-67.5 270t67.5 270t190 198t272.5 74z" />
    <glyph glyph-name="b" unicode="b" horiz-adv-x="1312" 
d="M672 180q142 0 240 98t98 240t-98 240t-240 98q-99 0 -181 -51.5t-123 -136.5v-302q41 -85 122.5 -135.5t181.5 -50.5zM712 1060q150 0 272.5 -74t190 -198t67.5 -270t-67.5 -270t-190 -198t-272.5 -74q-208 0 -344 136v-112h-228v1460h228v-536q136 136 344 136z" />
    <glyph glyph-name="c" unicode="c" horiz-adv-x="1104" 
d="M640 -24q-161 0 -292 72t-204.5 196.5t-73.5 273.5t73.5 273.5t204.5 196.5t292 72q219 0 380 -132l-118 -178q-131 106 -262 106q-142 0 -240 -98t-98 -240t98 -240t240 -98q144 0 266 112l134 -166q-163 -150 -400 -150z" />
    <glyph glyph-name="d" unicode="d" horiz-adv-x="1312" 
d="M640 180q100 0 181.5 50.5t122.5 135.5v302q-41 85 -123 136.5t-181 51.5q-142 0 -240 -98t-98 -240t98 -240t240 -98zM600 1060q208 0 344 -136v536h228v-1460h-228v112q-136 -136 -344 -136q-150 0 -272.5 74t-190 198t-67.5 270t67.5 270t190 198t272.5 74z" />
    <glyph glyph-name="e" unicode="e" horiz-adv-x="1236" 
d="M1156 444h-853q20 -119 113.5 -195.5t221.5 -76.5q175 0 308 136l156 -144q-173 -188 -458 -188q-126 0 -234 42.5t-182 115.5t-116 172.5t-42 211.5t42.5 212t116 172.5t177.5 115t222 42.5q154 0 278 -71t192 -190t68 -261q0 -51 -10 -94zM628 864q-108 0 -196 -65
t-120 -167h615q-27 102 -108 167t-191 65z" />
    <glyph glyph-name="f" unicode="f" horiz-adv-x="754" 
d="M710 1452v-196q-40 4 -90 4q-100 0 -142 -39.5t-42 -128.5v-56h274v-200h-274v-836h-228v836h-164v200h164v58q0 190 94.5 278t297.5 88q66 0 110 -8z" />
    <glyph glyph-name="g" unicode="g" horiz-adv-x="1312" 
d="M640 180q100 0 181.5 50.5t122.5 135.5v302q-41 85 -123 136.5t-181 51.5q-142 0 -240 -98t-98 -240t98 -240t240 -98zM1172 1036v-980q0 -240 -140 -380t-406 -140q-146 0 -270.5 55.5t-211.5 154.5l150 146q146 -160 330 -160q147 0 233.5 81.5t86.5 226.5v72
q-136 -136 -344 -136q-150 0 -272.5 74t-190 198t-67.5 270t67.5 270t190 198t272.5 74q208 0 344 -136v112h228z" />
    <glyph glyph-name="h" unicode="h" horiz-adv-x="1220" 
d="M368 688v-688h-228v1460h228v-544q59 65 141.5 104.5t168.5 39.5q188 0 305 -119t117 -313v-628h-228v616q0 106 -66 173t-172 67q-74 0 -147 -49.5t-119 -118.5z" />
    <glyph glyph-name="i" unicode="i" horiz-adv-x="528" 
d="M150 0v1036h228v-1036h-228zM122 1318q0 60 41 101t101 41t101 -41t41 -101t-41 -101t-101 -41t-101 41t-41 101z" />
    <glyph glyph-name="j" unicode="j" horiz-adv-x="528" 
d="M122 1318q0 60 41 101t101 41t101 -41t41 -101t-41 -101t-101 -41t-101 41t-41 101zM150 -108v1144h228v-1140q0 -194 -79 -277t-259 -83q-44 0 -80 4v196h52q73 0 105.5 35t32.5 121z" />
    <glyph glyph-name="k" unicode="k" horiz-adv-x="1040" 
d="M780 0l-314 478h-98v-478h-228v1460h228v-786h101l249 362h268l-330 -460l384 -576h-260z" />
    <glyph glyph-name="l" unicode="l" horiz-adv-x="528" 
d="M150 0v1460h228v-1460h-228z" />
    <glyph glyph-name="m" unicode="m" horiz-adv-x="1888" 
d="M140 1036h228v-120q54 64 131.5 104t160.5 40q114 0 203 -49t142 -137q59 85 155 135.5t200 50.5q182 0 295 -119t113 -309v-632h-228v620q0 103 -59 169.5t-155 66.5q-73 0 -141.5 -49.5t-118.5 -126.5q2 -32 2 -48v-632h-228v620q0 103 -59 169.5t-155 66.5
q-72 0 -139.5 -48.5t-118.5 -123.5v-684h-228v1036z" />
    <glyph glyph-name="n" unicode="n" horiz-adv-x="1220" 
d="M368 688v-688h-228v1036h228v-120q59 65 141.5 104.5t168.5 39.5q188 0 305 -119t117 -313v-628h-228v616q0 106 -66 173t-172 67q-74 0 -147 -49.5t-119 -118.5z" />
    <glyph glyph-name="o" unicode="o" horiz-adv-x="1280" 
d="M640 180q142 0 240 98t98 240t-98 240t-240 98t-240 -98t-98 -240t98 -240t240 -98zM640 1060q161 0 292 -72t204.5 -196.5t73.5 -273.5t-73.5 -273.5t-204.5 -196.5t-292 -72t-292 72t-204.5 196.5t-73.5 273.5t73.5 273.5t204.5 196.5t292 72z" />
    <glyph glyph-name="p" unicode="p" horiz-adv-x="1312" 
d="M672 180q142 0 240 98t98 240t-98 240t-240 98q-99 0 -181 -51.5t-123 -136.5v-302q41 -85 122.5 -135.5t181.5 -50.5zM712 1060q150 0 272.5 -74t190 -198t67.5 -270t-67.5 -270t-190 -198t-272.5 -74q-208 0 -344 136v-576h-228v1500h228v-112q136 136 344 136z" />
    <glyph glyph-name="q" unicode="q" horiz-adv-x="1312" 
d="M640 180q100 0 181.5 50.5t122.5 135.5v302q-41 85 -123 136.5t-181 51.5q-142 0 -240 -98t-98 -240t98 -240t240 -98zM600 1060q208 0 344 -136v112h228v-1500h-228v576q-136 -136 -344 -136q-150 0 -272.5 74t-190 198t-67.5 270t67.5 270t190 198t272.5 74z" />
    <glyph glyph-name="r" unicode="r" horiz-adv-x="810" 
d="M642 856q-82 0 -153.5 -51.5t-120.5 -140.5v-664h-228v1036h228v-132q132 156 304 156q54 0 94 -20l-18 -202q-51 18 -106 18z" />
    <glyph glyph-name="s" unicode="s" horiz-adv-x="942" 
d="M70 148l128 152q50 -58 120 -93t148 -35q82 0 130 33.5t48 90.5q0 56 -44.5 90t-153.5 56q-173 34 -255.5 115t-82.5 211q0 128 99.5 210t264.5 82q104 0 197 -38.5t161 -101.5l-122 -154q-61 49 -111 73.5t-107 24.5q-67 0 -110.5 -27t-43.5 -73q0 -105 184 -142
q182 -37 267 -117t85 -213q0 -139 -105 -227.5t-285 -88.5q-126 0 -235 46t-177 126z" />
    <glyph glyph-name="t" unicode="t" horiz-adv-x="773" 
d="M444 836v-492q0 -89 42 -128.5t142 -39.5q50 0 90 4v-196q-44 -8 -110 -8q-203 0 -297.5 88t-94.5 278v494h-172v200h172v280l228 20v-300h262v-200h-262z" />
    <glyph glyph-name="u" unicode="u" horiz-adv-x="1220" 
d="M852 348v688h228v-1036h-228v120q-59 -65 -141.5 -104.5t-168.5 -39.5q-188 0 -305 119t-117 313v628h228v-616q0 -106 66 -173t172 -67q74 0 147 49.5t119 118.5z" />
    <glyph glyph-name="v" unicode="v" horiz-adv-x="1056" 
d="M1036 1036l-390 -1036h-236l-390 1036h236l272 -740l272 740h236z" />
    <glyph glyph-name="w" unicode="w" horiz-adv-x="1576" 
d="M670 1036h236l206 -738l208 738h236l-324 -1036h-236l-208 744l-208 -744h-236l-324 1036h236l208 -738z" />
    <glyph glyph-name="x" unicode="x" horiz-adv-x="1056" 
d="M784 0l-256 376l-256 -376h-252l364 528l-338 508h252l230 -356l230 356h252l-338 -508l364 -528h-252z" />
    <glyph glyph-name="y" unicode="y" horiz-adv-x="1056" 
d="M234 -464l176 464l-390 1036h236l270 -748l274 748h236l-566 -1500h-236z" />
    <glyph glyph-name="z" unicode="z" horiz-adv-x="1022" 
d="M96 0v200l532 636h-506v200h780v-200l-532 -636h552v-200h-826z" />
    <glyph glyph-name="braceleft" unicode="{" horiz-adv-x="840" 
d="M144 508v204q92 0 142 46t50 132v286q0 137 101.5 230.5t254.5 93.5h108v-204h-92q-60 0 -98 -38t-38 -98v-306q0 -196 -184 -244q184 -48 184 -244v-306q0 -60 38 -98t98 -38h92v-204h-108q-153 0 -254.5 93.5t-101.5 230.5v286q0 86 -50 132t-142 46z" />
    <glyph glyph-name="bar" unicode="|" horiz-adv-x="656" 
d="M220 -280v1780h216v-1780h-216z" />
    <glyph glyph-name="braceright" unicode="}" horiz-adv-x="840" 
d="M696 712v-204q-92 0 -142 -46t-50 -132v-286q0 -137 -101.5 -230.5t-254.5 -93.5h-108v204h92q60 0 98 38t38 98v306q0 196 184 244q-184 48 -184 244v306q0 60 -38 98t-98 38h-92v204h108q153 0 254.5 -93.5t101.5 -230.5v-286q0 -86 50 -132t142 -46z" />
    <glyph glyph-name="asciitilde" unicode="~" horiz-adv-x="1160" 
d="M548 554q-34 33 -52.5 49t-47.5 32.5t-52 16.5q-85 0 -114 -162l-217 55q27 150 103.5 230.5t197.5 80.5q69 0 133.5 -27t112.5 -73q34 -33 52.5 -49t47.5 -32.5t52 -16.5q85 0 114 162l217 -55q-27 -150 -103.5 -230.5t-197.5 -80.5q-69 0 -133.5 27t-112.5 73z" />
    <glyph glyph-name="uni00A0" unicode="&#xa0;" horiz-adv-x="600" 
 />
    <glyph glyph-name="exclamdown" unicode="&#xa1;" horiz-adv-x="624" 
d="M194 -364v996h236v-996h-236zM164 912q0 63 42.5 105.5t105.5 42.5t105.5 -42.5t42.5 -105.5t-42.5 -105.5t-105.5 -42.5t-105.5 42.5t-42.5 105.5z" />
    <glyph glyph-name="cent" unicode="&#xa2;" horiz-adv-x="1104" 
d="M546 -184v167q-209 31 -342.5 180.5t-133.5 354.5q0 204 133.5 354t342.5 181v167h152v-163q183 -16 322 -129l-118 -178q-103 83 -204 101v-666q111 18 208 107l134 -166q-140 -129 -342 -147v-163h-152zM302 518q0 -117 68 -206.5t176 -119.5v651q-108 -30 -176 -119
t-68 -206z" />
    <glyph glyph-name="sterling" unicode="&#xa3;" horiz-adv-x="1160" 
d="M308 546h-168v180h127q-3 7 -13 30q-68 143 -68 266q0 170 125 286t309 116q145 0 252 -72t152 -180l-200 -106q-57 150 -204 150q-84 0 -139 -55t-55 -139q0 -75 62 -222q14 -33 27 -74h347v-180h-314q2 -30 2 -44q0 -173 -134 -294h634v-208h-904v204q76 51 120 128.5
t44 169.5q0 14 -2 44z" />
    <glyph glyph-name="currency" unicode="&#xa4;" horiz-adv-x="1264" 
d="M70 234l176 178q-74 107 -74 240t74 240l-176 178l146 146l188 -186q105 54 228 54q122 0 228 -54l188 186l146 -146l-176 -178q74 -107 74 -240t-74 -240l176 -178l-146 -146l-188 186q-103 -54 -228 -54q-126 0 -228 54l-188 -186zM396 652q0 -98 68 -167t168 -69
t168 69t68 167t-68 167t-168 69t-168 -69t-68 -167z" />
    <glyph glyph-name="yen" unicode="&#xa5;" horiz-adv-x="1292" 
d="M292 1400l354 -596l354 596h252l-393 -664h267v-140h-349l-13 -22v-78h362v-140h-362v-356h-236v356h-362v140h362v78l-13 22h-349v140h266l-392 664h252z" />
    <glyph glyph-name="brokenbar" unicode="&#xa6;" horiz-adv-x="656" 
d="M220 700v800h216v-800h-216zM220 -280v800h216v-800h-216z" />
    <glyph glyph-name="section" unicode="&#xa7;" horiz-adv-x="1018" 
d="M958 528q0 -89 -49.5 -161t-137.5 -114q107 -92 107 -229q0 -138 -108.5 -231t-271.5 -93q-139 0 -242.5 70.5t-131.5 191.5l210 46q12 -53 55.5 -84.5t108.5 -31.5q69 0 114.5 37.5t45.5 94.5q0 40 -22.5 70t-57.5 46l-260 114q-126 55 -192 144.5t-66 197.5
q0 89 49.5 160.5t137.5 113.5q-107 92 -107 230t108.5 231t271.5 93q139 0 242.5 -70.5t131.5 -191.5l-210 -46q-12 53 -55.5 84.5t-108.5 31.5q-69 0 -114.5 -37.5t-45.5 -94.5q0 -40 22.5 -70t57.5 -46l260 -114q126 -55 192 -144.5t66 -197.5zM596 700l-145 63
q-74 -5 -122.5 -52.5t-48.5 -114.5q0 -109 142 -172l144 -64q75 6 123.5 53t48.5 115q0 109 -142 172z" />
    <glyph glyph-name="dieresis" unicode="&#xa8;" horiz-adv-x="840" 
d="M104 1292q0 56 38 94t94 38t94 -38t38 -94t-38 -94t-94 -38t-94 38t-38 94zM472 1292q0 56 38 94t94 38t94 -38t38 -94t-38 -94t-94 -38t-94 38t-38 94z" />
    <glyph glyph-name="copyright" unicode="&#xa9;" horiz-adv-x="1608" 
d="M842 468q106 0 200 74l68 -148q-113 -94 -268 -94q-173 0 -291.5 115t-118.5 283t118.5 283t291.5 115q143 0 258 -86l-64 -150q-99 68 -194 68q-96 0 -161 -66t-65 -164t65 -164t161 -66zM80 700q0 149 56.5 283t153.5 231t231 153.5t283 56.5t283 -56.5t231 -153.5
t153.5 -231t56.5 -283t-56.5 -283t-153.5 -231t-231 -153.5t-283 -56.5t-283 56.5t-231 153.5t-153.5 231t-56.5 283zM212 700q0 -165 78.5 -303t214.5 -217.5t299 -79.5t299 79.5t214.5 217.5t78.5 303t-78.5 303t-214.5 217.5t-299 79.5t-299 -79.5t-214.5 -217.5
t-78.5 -303z" />
    <glyph glyph-name="ordfeminine" unicode="&#xaa;" horiz-adv-x="920" 
d="M632 672v72q-69 -88 -202 -88q-157 0 -263.5 109.5t-106.5 270.5t106.5 270.5t263.5 109.5q133 0 202 -88v72h198v-728h-198zM632 936v200q-24 43 -69.5 70.5t-104.5 27.5q-85 0 -142.5 -57t-57.5 -141t57.5 -141t142.5 -57q59 0 104.5 27.5t69.5 70.5z" />
    <glyph glyph-name="guillemotleft" unicode="&#xab;" horiz-adv-x="1284" 
d="M104 564v120l568 350v-210l-336 -200l336 -200v-210zM594 564v120l568 350v-210l-336 -200l336 -200v-210z" />
    <glyph glyph-name="logicalnot" unicode="&#xac;" horiz-adv-x="1160" 
d="M812 230v336h-692v196h920v-532h-228z" />
    <glyph glyph-name="uni00AD" unicode="&#xad;" horiz-adv-x="812" 
d="M692 556h-572v216h572v-216z" />
    <glyph glyph-name="registered" unicode="&#xae;" horiz-adv-x="1608" 
d="M80 700q0 149 56.5 283t153.5 231t231 153.5t283 56.5t283 -56.5t231 -153.5t153.5 -231t56.5 -283t-56.5 -283t-153.5 -231t-231 -153.5t-283 -56.5t-283 56.5t-231 153.5t-153.5 231t-56.5 283zM212 700q0 -165 78.5 -303t214.5 -217.5t299 -79.5t299 79.5t214.5 217.5
t78.5 303t-78.5 303t-214.5 217.5t-299 79.5t-299 -79.5t-214.5 -217.5t-78.5 -303zM548 1084h294q118 0 195 -72t77 -180q0 -81 -45 -144t-121 -90l182 -284h-188l-169 266h-53v-266h-172v770zM826 924h-106v-200h106q52 0 84 28t32 72t-32 72t-84 28z" />
    <glyph glyph-name="macron" unicode="&#xaf;" horiz-adv-x="840" 
d="M120 1200v176h600v-176h-600z" />
    <glyph glyph-name="degree" unicode="&#xb0;" 
d="M286 1154q0 -48 32.5 -81t81.5 -33t81.5 33t32.5 81t-32.5 81t-81.5 33t-81.5 -33t-32.5 -81zM120 1154q0 114 81 192t199 78t199 -78t81 -192t-81 -192t-199 -78t-199 78t-81 192z" />
    <glyph glyph-name="plusminus" unicode="&#xb1;" horiz-adv-x="1160" 
d="M466 300v346h-346v196h346v346h228v-346h346v-196h-346v-346h-228zM1040 0h-920v196h920v-196z" />
    <glyph glyph-name="twosuperior" unicode="&#xb2;" 
d="M564 838l-206 -222h340v-164h-606v146l316 342q54 58 76 102t22 92q0 57 -33 91.5t-87 34.5q-50 0 -83.5 -31t-58.5 -101l-173 67q33 112 114.5 170.5t200.5 58.5q141 0 231.5 -79t90.5 -211q0 -80 -33 -146t-111 -150z" />
    <glyph glyph-name="threesuperior" unicode="&#xb3;" 
d="M520 754q0 67 -44.5 113.5t-111.5 46.5q-21 0 -54 -10l-76 94l194 236h-324v166h572v-152l-176 -210q102 -27 162 -109.5t60 -190.5q0 -121 -98 -215.5t-254 -94.5q-102 0 -185 46.5t-135 129.5l136 114q87 -126 178 -126q67 0 111.5 47t44.5 115z" />
    <glyph glyph-name="acute" unicode="&#xb4;" horiz-adv-x="840" 
d="M229 1118l272 342h229l-279 -342h-222z" />
    <glyph glyph-name="mu" unicode="&#xb5;" horiz-adv-x="1240" 
d="M140 -464v1500h228v-696q22 -71 89 -115.5t149 -44.5q74 0 147 49.5t119 118.5v688h228v-1036h-228v120q-54 -65 -131 -104.5t-159 -39.5q-61 0 -117.5 26.5t-96.5 71.5v-538h-228z" />
    <glyph glyph-name="paragraph" unicode="&#xb6;" horiz-adv-x="1172" 
d="M574 536h-50q-188 0 -316 124.5t-128 307.5t128 307.5t316 124.5h478v-1662h-168v1504h-92v-1504h-168v798z" />
    <glyph glyph-name="periodcentered" unicode="&#xb7;" horiz-adv-x="600" 
d="M152 650q0 63 42.5 105.5t105.5 42.5t105.5 -42.5t42.5 -105.5t-42.5 -105.5t-105.5 -42.5t-105.5 42.5t-42.5 105.5z" />
    <glyph glyph-name="cedilla" unicode="&#xb8;" horiz-adv-x="840" 
d="M364 -216q-24 0 -56 -4l-40 44l94 176h174l-68 -104q78 -21 124 -76t46 -124q0 -93 -74.5 -154.5t-187.5 -61.5q-111 0 -186 60l76 108q42 -32 98 -32q44 0 72 24t28 60t-28 60t-72 24z" />
    <glyph glyph-name="onesuperior" unicode="&#xb9;" 
d="M380 1400h172v-948h-202v746l-144 -78l-78 148z" />
    <glyph glyph-name="ordmasculine" unicode="&#xba;" horiz-adv-x="920" 
d="M60 1036q0 159 116 269.5t284 110.5t284 -110.5t116 -269.5t-116 -269.5t-284 -110.5t-284 110.5t-116 269.5zM262 1036q0 -86 56 -142t142 -56t142 56t56 142t-56 142t-142 56t-142 -56t-56 -142z" />
    <glyph glyph-name="guillemotright" unicode="&#xbb;" horiz-adv-x="1284" 
d="M1180 684v-120l-568 -350v210l336 200l-336 200v210zM690 684v-120l-568 -350v210l336 200l-336 200v210z" />
    <glyph glyph-name="onequarter" unicode="&#xbc;" horiz-adv-x="1930" 
d="M380 1400h172v-948h-202v746l-144 -78l-78 148zM1166 174v156l420 618h192v-602h98v-172h-98v-174h-202v174h-410zM1386 344h190v290zM526 0l684 1400h196l-682 -1400h-198z" />
    <glyph glyph-name="onehalf" unicode="&#xbd;" horiz-adv-x="1930" 
d="M1694 386l-206 -222h340v-164h-606v146l316 342q54 58 76 102t22 92q0 57 -33 91.5t-87 34.5q-50 0 -83.5 -31t-58.5 -101l-173 67q33 112 114.5 170.5t200.5 58.5q141 0 231.5 -79t90.5 -211q0 -80 -33 -146t-111 -150zM380 1400h172v-948h-202v746l-144 -78l-78 148z
M526 0l684 1400h196l-682 -1400h-198z" />
    <glyph glyph-name="threequarters" unicode="&#xbe;" horiz-adv-x="1930" 
d="M1166 174v156l420 618h192v-602h98v-172h-98v-174h-202v174h-410zM1386 344h190v290zM520 754q0 67 -44.5 113.5t-111.5 46.5q-21 0 -54 -10l-76 94l194 236h-324v166h572v-152l-176 -210q102 -27 162 -109.5t60 -190.5q0 -121 -98 -215.5t-254 -94.5q-102 0 -185 46.5
t-135 129.5l136 114q87 -126 178 -126q67 0 111.5 47t44.5 115zM526 0l684 1400h196l-682 -1400h-198z" />
    <glyph glyph-name="questiondown" unicode="&#xbf;" horiz-adv-x="1104" 
d="M740 632v-362q-177 0 -278.5 -71.5t-101.5 -182.5q0 -85 75 -140.5t197 -55.5q135 0 272 116l124 -169q-184 -155 -424 -155q-214 0 -349 121t-135 285q0 144 103.5 254t280.5 144v216h236zM770 912q0 -63 -42.5 -105.5t-105.5 -42.5t-105.5 42.5t-42.5 105.5t42.5 105.5
t105.5 42.5t105.5 -42.5t42.5 -105.5z" />
    <glyph glyph-name="Agrave" unicode="&#xc0;" horiz-adv-x="1376" 
d="M820 1400l516 -1400h-256l-116 338h-552l-116 -338h-256l516 1400h264zM688 1142l-206 -600h412zM585 1850l272 -342h-222l-279 342h229z" />
    <glyph glyph-name="Aacute" unicode="&#xc1;" horiz-adv-x="1376" 
d="M820 1400l516 -1400h-256l-116 338h-552l-116 -338h-256l516 1400h264zM688 1142l-206 -600h412zM516 1508l272 342h229l-279 -342h-222z" />
    <glyph glyph-name="Acircumflex" unicode="&#xc2;" horiz-adv-x="1376" 
d="M820 1400l516 -1400h-256l-116 338h-552l-116 -338h-256l516 1400h264zM688 1142l-206 -600h412zM766 1850l292 -342h-222l-148 170l-148 -170h-222l292 342h156z" />
    <glyph glyph-name="Atilde" unicode="&#xc3;" horiz-adv-x="1376" 
d="M820 1400l516 -1400h-256l-116 338h-552l-116 -338h-256l516 1400h264zM688 1142l-206 -600h412zM702 1566q-72 40 -104 40q-47 0 -64 -77l-193 39q22 110 69 164t124 54q60 0 140 -46q72 -40 104 -40q47 0 64 77l193 -39q-22 -110 -69 -164t-124 -54q-60 0 -140 46z" />
    <glyph glyph-name="Adieresis" unicode="&#xc4;" horiz-adv-x="1376" 
d="M820 1400l516 -1400h-256l-116 338h-552l-116 -338h-256l516 1400h264zM688 1142l-206 -600h412zM372 1664q0 56 38 94t94 38t94 -38t38 -94t-38 -94t-94 -38t-94 38t-38 94zM740 1664q0 56 38 94t94 38t94 -38t38 -94t-38 -94t-94 -38t-94 38t-38 94z" />
    <glyph glyph-name="Aring" unicode="&#xc5;" horiz-adv-x="1376" 
d="M820 1400l516 -1400h-256l-116 338h-552l-116 -338h-256l516 1400h264zM688 1142l-206 -600h412zM616 1686q0 -30 20.5 -50t51.5 -20t51.5 20t20.5 50t-20.5 50t-51.5 20t-51.5 -20t-20.5 -50zM472 1686q0 84 61.5 141t154.5 57t154.5 -57t61.5 -141t-61.5 -141
t-154.5 -57t-154.5 57t-61.5 141z" />
    <glyph glyph-name="AE" unicode="&#xc6;" horiz-adv-x="1850" 
d="M268 0h-268l792 1400h930v-204h-596v-390h548v-204h-548v-398h614v-204h-850v338h-437zM890 1132l-325 -590h325v590z" />
    <glyph glyph-name="Ccedilla" unicode="&#xc7;" horiz-adv-x="1382" 
d="M758 -216q-24 0 -56 -4l-40 44l83 156q-189 18 -341 116.5t-238 257t-86 346.5q0 201 98 367t269 261.5t379 95.5q264 0 470 -156l-118 -178q-94 62 -174 94t-178 32q-212 0 -359 -149t-147 -367t147 -367t359 -149q191 0 362 136l124 -176q-168 -137 -395 -163l-55 -85
q78 -21 124 -76t46 -124q0 -93 -74.5 -154.5t-187.5 -61.5q-111 0 -186 60l76 108q42 -32 98 -32q44 0 72 24t28 60t-28 60t-72 24z" />
    <glyph glyph-name="Egrave" unicode="&#xc8;" horiz-adv-x="1140" 
d="M160 0v1400h852v-204h-616v-390h568v-204h-568v-398h634v-204h-870zM463 1850l272 -342h-222l-279 342h229z" />
    <glyph glyph-name="Eacute" unicode="&#xc9;" horiz-adv-x="1140" 
d="M160 0v1400h852v-204h-616v-390h568v-204h-568v-398h634v-204h-870zM446 1508l272 342h229l-279 -342h-222z" />
    <glyph glyph-name="Ecircumflex" unicode="&#xca;" horiz-adv-x="1140" 
d="M160 0v1400h852v-204h-616v-390h568v-204h-568v-398h634v-204h-870zM666 1850l292 -342h-222l-148 170l-148 -170h-222l292 342h156z" />
    <glyph glyph-name="Edieresis" unicode="&#xcb;" horiz-adv-x="1140" 
d="M160 0v1400h852v-204h-616v-390h568v-204h-568v-398h634v-204h-870zM272 1664q0 56 38 94t94 38t94 -38t38 -94t-38 -94t-94 -38t-94 38t-38 94zM640 1664q0 56 38 94t94 38t94 -38t38 -94t-38 -94t-94 -38t-94 38t-38 94z" />
    <glyph glyph-name="Igrave" unicode="&#xcc;" horiz-adv-x="576" 
d="M170 1400h236v-1400h-236v1400zM183 1850l272 -342h-222l-279 342h229z" />
    <glyph glyph-name="Iacute" unicode="&#xcd;" horiz-adv-x="576" 
d="M170 1400h236v-1400h-236v1400zM120 1508l272 342h229l-279 -342h-222z" />
    <glyph glyph-name="Icircumflex" unicode="&#xce;" horiz-adv-x="576" 
d="M170 1400h236v-1400h-236v1400zM366 1850l292 -342h-222l-148 170l-148 -170h-222l292 342h156z" />
    <glyph glyph-name="Idieresis" unicode="&#xcf;" horiz-adv-x="576" 
d="M170 1400h236v-1400h-236v1400zM-28 1664q0 56 38 94t94 38t94 -38t38 -94t-38 -94t-94 -38t-94 38t-38 94zM340 1664q0 56 38 94t94 38t94 -38t38 -94t-38 -94t-94 -38t-94 38t-38 94z" />
    <glyph glyph-name="Eth" unicode="&#xd0;" horiz-adv-x="1464" 
d="M190 1400h492q323 0 512.5 -187.5t189.5 -512.5t-189.5 -512.5t-512.5 -187.5h-492v614h-180v172h180v614zM710 614h-284v-406h256q212 0 337 123t125 369t-125 369t-337 123h-256v-406h284v-172z" />
    <glyph glyph-name="Ntilde" unicode="&#xd1;" horiz-adv-x="1408" 
d="M718 1566q-72 40 -104 40q-47 0 -64 -77l-193 39q22 110 69 164t124 54q60 0 140 -46q72 -40 104 -40q47 0 64 77l193 -39q-22 -110 -69 -164t-124 -54q-60 0 -140 46zM160 0v1400h228l632 -992v992h228v-1400h-228l-632 992v-992h-228z" />
    <glyph glyph-name="Ograve" unicode="&#xd2;" horiz-adv-x="1652" 
d="M826 184q212 0 359 149t147 367t-147 367t-359 149t-359 -149t-147 -367t147 -367t359 -149zM826 1424q208 0 379 -95.5t269 -261.5t98 -367t-98 -367t-269 -261.5t-379 -95.5t-379 95.5t-269 261.5t-98 367t98 367t269 261.5t379 95.5zM721 1850l272 -342h-222l-279 342
h229z" />
    <glyph glyph-name="Oacute" unicode="&#xd3;" horiz-adv-x="1652" 
d="M826 184q212 0 359 149t147 367t-147 367t-359 149t-359 -149t-147 -367t147 -367t359 -149zM826 1424q208 0 379 -95.5t269 -261.5t98 -367t-98 -367t-269 -261.5t-379 -95.5t-379 95.5t-269 261.5t-98 367t98 367t269 261.5t379 95.5zM659 1508l272 342h229l-279 -342
h-222z" />
    <glyph glyph-name="Ocircumflex" unicode="&#xd4;" horiz-adv-x="1652" 
d="M826 184q212 0 359 149t147 367t-147 367t-359 149t-359 -149t-147 -367t147 -367t359 -149zM826 1424q208 0 379 -95.5t269 -261.5t98 -367t-98 -367t-269 -261.5t-379 -95.5t-379 95.5t-269 261.5t-98 367t98 367t269 261.5t379 95.5zM904 1850l292 -342h-222l-148 170
l-148 -170h-222l292 342h156z" />
    <glyph glyph-name="Otilde" unicode="&#xd5;" horiz-adv-x="1652" 
d="M826 184q212 0 359 149t147 367t-147 367t-359 149t-359 -149t-147 -367t147 -367t359 -149zM826 1424q208 0 379 -95.5t269 -261.5t98 -367t-98 -367t-269 -261.5t-379 -95.5t-379 95.5t-269 261.5t-98 367t98 367t269 261.5t379 95.5zM840 1566q-72 40 -104 40
q-47 0 -64 -77l-193 39q22 110 69 164t124 54q60 0 140 -46q72 -40 104 -40q47 0 64 77l193 -39q-22 -110 -69 -164t-124 -54q-60 0 -140 46z" />
    <glyph glyph-name="Odieresis" unicode="&#xd6;" horiz-adv-x="1652" 
d="M826 184q212 0 359 149t147 367t-147 367t-359 149t-359 -149t-147 -367t147 -367t359 -149zM826 1424q208 0 379 -95.5t269 -261.5t98 -367t-98 -367t-269 -261.5t-379 -95.5t-379 95.5t-269 261.5t-98 367t98 367t269 261.5t379 95.5zM510 1664q0 56 38 94t94 38
t94 -38t38 -94t-38 -94t-94 -38t-94 38t-38 94zM878 1664q0 56 38 94t94 38t94 -38t38 -94t-38 -94t-94 -38t-94 38t-38 94z" />
    <glyph glyph-name="multiply" unicode="&#xd7;" horiz-adv-x="1160" 
d="M294 1098l280 -282l292 292l154 -154l-292 -292l292 -292l-154 -154l-292 292l-282 -282l-154 154l282 282l-280 282z" />
    <glyph glyph-name="Oslash" unicode="&#xd8;" horiz-adv-x="1652" 
d="M826 1424q205 0 378 -96l104 132h206l-178 -226q112 -100 174 -238t62 -296q0 -201 -98 -367t-269 -261.5t-379 -95.5q-220 0 -398 106l-112 -142h-206l189 240q-104 100 -161.5 233.5t-57.5 286.5q0 201 98 367t269 261.5t379 95.5zM826 184q212 0 359 149t147 367
q0 208 -137 356l-630 -801q120 -71 261 -71zM320 700q0 -197 121 -339l626 794q-111 61 -241 61q-212 0 -359 -149t-147 -367z" />
    <glyph glyph-name="Ugrave" unicode="&#xd9;" horiz-adv-x="1336" 
d="M553 1850l272 -342h-222l-279 342h229zM1186 1400v-904q0 -154 -70 -273.5t-187.5 -182t-260.5 -62.5t-260.5 62.5t-187.5 182t-70 273.5v904h236v-932q0 -126 81 -204t201 -78t201 78t81 204v932h236z" />
    <glyph glyph-name="Uacute" unicode="&#xda;" horiz-adv-x="1336" 
d="M516 1508l272 342h229l-279 -342h-222zM1186 1400v-904q0 -154 -70 -273.5t-187.5 -182t-260.5 -62.5t-260.5 62.5t-187.5 182t-70 273.5v904h236v-932q0 -126 81 -204t201 -78t201 78t81 204v932h236z" />
    <glyph glyph-name="Ucircumflex" unicode="&#xdb;" horiz-adv-x="1336" 
d="M746 1850l292 -342h-222l-148 170l-148 -170h-222l292 342h156zM1186 1400v-904q0 -154 -70 -273.5t-187.5 -182t-260.5 -62.5t-260.5 62.5t-187.5 182t-70 273.5v904h236v-932q0 -126 81 -204t201 -78t201 78t81 204v932h236z" />
    <glyph glyph-name="Udieresis" unicode="&#xdc;" horiz-adv-x="1336" 
d="M352 1664q0 56 38 94t94 38t94 -38t38 -94t-38 -94t-94 -38t-94 38t-38 94zM720 1664q0 56 38 94t94 38t94 -38t38 -94t-38 -94t-94 -38t-94 38t-38 94zM1186 1400v-904q0 -154 -70 -273.5t-187.5 -182t-260.5 -62.5t-260.5 62.5t-187.5 182t-70 273.5v904h236v-932
q0 -126 81 -204t201 -78t201 78t81 204v932h236z" />
    <glyph glyph-name="Yacute" unicode="&#xdd;" horiz-adv-x="1292" 
d="M292 1400l354 -596l354 596h252l-488 -826v-574h-236v574l-488 826h252zM495 1508l272 342h229l-279 -342h-222z" />
    <glyph glyph-name="Thorn" unicode="&#xde;" horiz-adv-x="1186" 
d="M632 254h-236v-254h-236v1400h236v-254h236q225 0 354.5 -121t129.5 -325t-129.5 -325t-354.5 -121zM876 700q0 113 -65.5 177.5t-188.5 64.5h-226v-484h226q123 0 188.5 64.5t65.5 177.5z" />
    <glyph glyph-name="germandbls" unicode="&#xdf;" horiz-adv-x="1226" 
d="M150 0v1024q0 180 118 290t300 110q178 0 300 -105.5t122 -258.5q0 -98 -56 -178t-158 -120q160 -26 265 -131.5t105 -250.5q0 -171 -133 -287.5t-331 -116.5q-128 0 -224 48l56 206q75 -50 168 -50q96 0 160 57t64 143q0 119 -105.5 192t-280.5 78v196
q103 11 166.5 64.5t63.5 139.5q0 72 -52.5 121t-129.5 49q-79 0 -130.5 -51.5t-51.5 -134.5v-1034h-236z" />
    <glyph glyph-name="agrave" unicode="&#xe0;" horiz-adv-x="1312" 
d="M640 180q100 0 181.5 50.5t122.5 135.5v302q-41 85 -123 136.5t-181 51.5q-142 0 -240 -98t-98 -240t98 -240t240 -98zM600 1060q208 0 344 -136v112h228v-1036h-228v112q-136 -136 -344 -136q-150 0 -272.5 74t-190 198t-67.5 270t67.5 270t190 198t272.5 74zM523 1526
l272 -342h-222l-279 342h229z" />
    <glyph glyph-name="aacute" unicode="&#xe1;" horiz-adv-x="1312" 
d="M640 180q100 0 181.5 50.5t122.5 135.5v302q-41 85 -123 136.5t-181 51.5q-142 0 -240 -98t-98 -240t98 -240t240 -98zM600 1060q208 0 344 -136v112h228v-1036h-228v112q-136 -136 -344 -136q-150 0 -272.5 74t-190 198t-67.5 270t67.5 270t190 198t272.5 74zM445 1184
l272 342h229l-279 -342h-222z" />
    <glyph glyph-name="acircumflex" unicode="&#xe2;" horiz-adv-x="1312" 
d="M640 180q100 0 181.5 50.5t122.5 135.5v302q-41 85 -123 136.5t-181 51.5q-142 0 -240 -98t-98 -240t98 -240t240 -98zM600 1060q208 0 344 -136v112h228v-1036h-228v112q-136 -136 -344 -136q-150 0 -272.5 74t-190 198t-67.5 270t67.5 270t190 198t272.5 74zM718 1526
l292 -342h-222l-148 170l-148 -170h-222l292 342h156z" />
    <glyph glyph-name="atilde" unicode="&#xe3;" horiz-adv-x="1312" 
d="M640 180q100 0 181.5 50.5t122.5 135.5v302q-41 85 -123 136.5t-181 51.5q-142 0 -240 -98t-98 -240t98 -240t240 -98zM600 1060q208 0 344 -136v112h228v-1036h-228v112q-136 -136 -344 -136q-150 0 -272.5 74t-190 198t-67.5 270t67.5 270t190 198t272.5 74zM634 1242
q-72 40 -104 40q-47 0 -64 -77l-193 39q22 110 69 164t124 54q60 0 140 -46q72 -40 104 -40q47 0 64 77l193 -39q-22 -110 -69 -164t-124 -54q-60 0 -140 46z" />
    <glyph glyph-name="adieresis" unicode="&#xe4;" horiz-adv-x="1312" 
d="M640 180q100 0 181.5 50.5t122.5 135.5v302q-41 85 -123 136.5t-181 51.5q-142 0 -240 -98t-98 -240t98 -240t240 -98zM600 1060q208 0 344 -136v112h228v-1036h-228v112q-136 -136 -344 -136q-150 0 -272.5 74t-190 198t-67.5 270t67.5 270t190 198t272.5 74zM304 1340
q0 56 38 94t94 38t94 -38t38 -94t-38 -94t-94 -38t-94 38t-38 94zM672 1340q0 56 38 94t94 38t94 -38t38 -94t-38 -94t-94 -38t-94 38t-38 94z" />
    <glyph glyph-name="aring" unicode="&#xe5;" horiz-adv-x="1312" 
d="M640 180q100 0 181.5 50.5t122.5 135.5v302q-41 85 -123 136.5t-181 51.5q-142 0 -240 -98t-98 -240t98 -240t240 -98zM600 1060q208 0 344 -136v112h228v-1036h-228v112q-136 -136 -344 -136q-150 0 -272.5 74t-190 198t-67.5 270t67.5 270t190 198t272.5 74zM548 1362
q0 -30 20.5 -50t51.5 -20t51.5 20t20.5 50t-20.5 50t-51.5 20t-51.5 -20t-20.5 -50zM404 1362q0 84 61.5 141t154.5 57t154.5 -57t61.5 -141t-61.5 -141t-154.5 -57t-154.5 57t-61.5 141z" />
    <glyph glyph-name="ae" unicode="&#xe6;" horiz-adv-x="2034" 
d="M1954 444h-853q20 -119 113.5 -195.5t221.5 -76.5q175 0 308 136l156 -144q-173 -188 -458 -188q-139 0 -255.5 53t-188.5 143q-68 -90 -181 -143t-247 -53q-215 0 -357.5 100t-142.5 248q0 92 63.5 167.5t171 118t235.5 42.5q92 0 181.5 -23.5t146.5 -60.5v46
q0 105 -86 177.5t-218 72.5q-89 0 -177 -34t-155 -90l-86 172q87 71 197 109.5t227 38.5q135 0 248.5 -53.5t180.5 -144.5q71 92 183.5 145t243.5 53q154 0 278 -71t192 -190t68 -261q0 -51 -10 -94zM298 324q0 -64 80 -108t204 -44q204 0 284 122v99q-106 83 -284 83
q-124 0 -204 -44t-80 -108zM1426 864q-108 0 -196 -65t-120 -167h615q-27 102 -108 167t-191 65z" />
    <glyph glyph-name="ccedilla" unicode="&#xe7;" horiz-adv-x="1110" 
d="M564 -216q-24 0 -56 -4l-40 44l84 158q-211 28 -346.5 179t-135.5 357q0 149 73.5 273.5t204.5 196.5t292 72q219 0 380 -132l-118 -178q-131 106 -262 106q-142 0 -240 -98t-98 -240t98 -240t240 -98q144 0 266 112l134 -166q-132 -121 -317 -145l-55 -85
q78 -21 124 -76t46 -124q0 -93 -74.5 -154.5t-187.5 -61.5q-111 0 -186 60l76 108q42 -32 98 -32q44 0 72 24t28 60t-28 60t-72 24z" />
    <glyph glyph-name="egrave" unicode="&#xe8;" horiz-adv-x="1236" 
d="M1156 444h-853q20 -119 113.5 -195.5t221.5 -76.5q175 0 308 136l156 -144q-173 -188 -458 -188q-126 0 -234 42.5t-182 115.5t-116 172.5t-42 211.5t42.5 212t116 172.5t177.5 115t222 42.5q154 0 278 -71t192 -190t68 -261q0 -51 -10 -94zM628 864q-108 0 -196 -65
t-120 -167h615q-27 102 -108 167t-191 65zM531 1526l272 -342h-222l-279 342h229z" />
    <glyph glyph-name="eacute" unicode="&#xe9;" horiz-adv-x="1236" 
d="M1156 444h-853q20 -119 113.5 -195.5t221.5 -76.5q175 0 308 136l156 -144q-173 -188 -458 -188q-126 0 -234 42.5t-182 115.5t-116 172.5t-42 211.5t42.5 212t116 172.5t177.5 115t222 42.5q154 0 278 -71t192 -190t68 -261q0 -51 -10 -94zM628 864q-108 0 -196 -65
t-120 -167h615q-27 102 -108 167t-191 65zM437 1184l272 342h229l-279 -342h-222z" />
    <glyph glyph-name="ecircumflex" unicode="&#xea;" horiz-adv-x="1236" 
d="M1156 444h-853q20 -119 113.5 -195.5t221.5 -76.5q175 0 308 136l156 -144q-173 -188 -458 -188q-126 0 -234 42.5t-182 115.5t-116 172.5t-42 211.5t42.5 212t116 172.5t177.5 115t222 42.5q154 0 278 -71t192 -190t68 -261q0 -51 -10 -94zM628 864q-108 0 -196 -65
t-120 -167h615q-27 102 -108 167t-191 65zM696 1526l292 -342h-222l-148 170l-148 -170h-222l292 342h156z" />
    <glyph glyph-name="edieresis" unicode="&#xeb;" horiz-adv-x="1236" 
d="M1156 444h-853q20 -119 113.5 -195.5t221.5 -76.5q175 0 308 136l156 -144q-173 -188 -458 -188q-126 0 -234 42.5t-182 115.5t-116 172.5t-42 211.5t42.5 212t116 172.5t177.5 115t222 42.5q154 0 278 -71t192 -190t68 -261q0 -51 -10 -94zM628 864q-108 0 -196 -65
t-120 -167h615q-27 102 -108 167t-191 65zM302 1340q0 56 38 94t94 38t94 -38t38 -94t-38 -94t-94 -38t-94 38t-38 94zM670 1340q0 56 38 94t94 38t94 -38t38 -94t-38 -94t-94 -38t-94 38t-38 94z" />
    <glyph glyph-name="igrave" unicode="&#xec;" horiz-adv-x="528" 
d="M150 0v1036h228v-1036h-228zM146 1526l272 -342h-222l-279 342h229z" />
    <glyph glyph-name="iacute" unicode="&#xed;" horiz-adv-x="528" 
d="M150 0v1036h228v-1036h-228zM110 1184l272 342h229l-279 -342h-222z" />
    <glyph glyph-name="icircumflex" unicode="&#xee;" horiz-adv-x="528" 
d="M150 0v1036h228v-1036h-228zM342 1526l292 -342h-222l-148 170l-148 -170h-222l292 342h156z" />
    <glyph glyph-name="idieresis" unicode="&#xef;" horiz-adv-x="528" 
d="M150 0v1036h228v-1036h-228zM-52 1340q0 56 38 94t94 38t94 -38t38 -94t-38 -94t-94 -38t-94 38t-38 94zM316 1340q0 56 38 94t94 38t94 -38t38 -94t-38 -94t-94 -38t-94 38t-38 94z" />
    <glyph glyph-name="eth" unicode="&#xf0;" horiz-adv-x="1242" 
d="M320 1024l-62 134l210 97q-95 57 -188 97l182 108q106 -43 207 -112l219 102l62 -134l-150 -70q169 -152 265.5 -351t96.5 -407q0 -142 -72 -259.5t-197.5 -185t-276.5 -67.5t-276.5 67.5t-197.5 185t-72 259.5q0 138 72 255t190 183t252 66q135 0 237 -72
q-87 132 -215 237zM302 492q0 -132 91 -222t225 -90t225 90t91 222t-91 222t-225 90t-225 -90t-91 -222z" />
    <glyph glyph-name="ntilde" unicode="&#xf1;" horiz-adv-x="1220" 
d="M368 688v-688h-228v1036h228v-120q59 65 141.5 104.5t168.5 39.5q188 0 305 -119t117 -313v-628h-228v616q0 106 -66 173t-172 67q-74 0 -147 -49.5t-119 -118.5zM634 1242q-72 40 -104 40q-47 0 -64 -77l-193 39q22 110 69 164t124 54q60 0 140 -46q72 -40 104 -40
q47 0 64 77l193 -39q-22 -110 -69 -164t-124 -54q-60 0 -140 46z" />
    <glyph glyph-name="ograve" unicode="&#xf2;" horiz-adv-x="1280" 
d="M533 1526l272 -342h-222l-279 342h229zM640 180q142 0 240 98t98 240t-98 240t-240 98t-240 -98t-98 -240t98 -240t240 -98zM640 1060q161 0 292 -72t204.5 -196.5t73.5 -273.5t-73.5 -273.5t-204.5 -196.5t-292 -72t-292 72t-204.5 196.5t-73.5 273.5t73.5 273.5
t204.5 196.5t292 72z" />
    <glyph glyph-name="oacute" unicode="&#xf3;" horiz-adv-x="1280" 
d="M480 1184l272 342h229l-279 -342h-222zM640 180q142 0 240 98t98 240t-98 240t-240 98t-240 -98t-98 -240t98 -240t240 -98zM640 1060q161 0 292 -72t204.5 -196.5t73.5 -273.5t-73.5 -273.5t-204.5 -196.5t-292 -72t-292 72t-204.5 196.5t-73.5 273.5t73.5 273.5
t204.5 196.5t292 72z" />
    <glyph glyph-name="ocircumflex" unicode="&#xf4;" horiz-adv-x="1280" 
d="M718 1526l292 -342h-222l-148 170l-148 -170h-222l292 342h156zM640 180q142 0 240 98t98 240t-98 240t-240 98t-240 -98t-98 -240t98 -240t240 -98zM640 1060q161 0 292 -72t204.5 -196.5t73.5 -273.5t-73.5 -273.5t-204.5 -196.5t-292 -72t-292 72t-204.5 196.5
t-73.5 273.5t73.5 273.5t204.5 196.5t292 72z" />
    <glyph glyph-name="otilde" unicode="&#xf5;" horiz-adv-x="1280" 
d="M654 1242q-72 40 -104 40q-47 0 -64 -77l-193 39q22 110 69 164t124 54q60 0 140 -46q72 -40 104 -40q47 0 64 77l193 -39q-22 -110 -69 -164t-124 -54q-60 0 -140 46zM640 180q142 0 240 98t98 240t-98 240t-240 98t-240 -98t-98 -240t98 -240t240 -98zM640 1060
q161 0 292 -72t204.5 -196.5t73.5 -273.5t-73.5 -273.5t-204.5 -196.5t-292 -72t-292 72t-204.5 196.5t-73.5 273.5t73.5 273.5t204.5 196.5t292 72z" />
    <glyph glyph-name="odieresis" unicode="&#xf6;" horiz-adv-x="1280" 
d="M324 1340q0 56 38 94t94 38t94 -38t38 -94t-38 -94t-94 -38t-94 38t-38 94zM692 1340q0 56 38 94t94 38t94 -38t38 -94t-38 -94t-94 -38t-94 38t-38 94zM640 180q142 0 240 98t98 240t-98 240t-240 98t-240 -98t-98 -240t98 -240t240 -98zM640 1060q161 0 292 -72
t204.5 -196.5t73.5 -273.5t-73.5 -273.5t-204.5 -196.5t-292 -72t-292 72t-204.5 196.5t-73.5 273.5t73.5 273.5t204.5 196.5t292 72z" />
    <glyph glyph-name="divide" unicode="&#xf7;" horiz-adv-x="1160" 
d="M1040 566h-920v196h920v-196zM432 1042q0 63 42.5 105.5t105.5 42.5t105.5 -42.5t42.5 -105.5t-42.5 -105.5t-105.5 -42.5t-105.5 42.5t-42.5 105.5zM432 286q0 63 42.5 105.5t105.5 42.5t105.5 -42.5t42.5 -105.5t-42.5 -105.5t-105.5 -42.5t-105.5 42.5t-42.5 105.5z
" />
    <glyph glyph-name="oslash" unicode="&#xf8;" horiz-adv-x="1280" 
d="M996 1096h198l-150 -190q79 -74 122.5 -174.5t43.5 -213.5q0 -149 -73.5 -273.5t-204.5 -196.5t-292 -72q-150 0 -278 65l-80 -101h-198l151 191q-79 75 -122 174.5t-43 212.5q0 149 73.5 273.5t204.5 196.5t292 72q149 0 276 -65zM640 180q142 0 240 98t98 240
q0 120 -73 212l-409 -519q67 -31 144 -31zM302 518q0 -121 71 -211l409 518q-67 31 -142 31q-142 0 -240 -98t-98 -240z" />
    <glyph glyph-name="ugrave" unicode="&#xf9;" horiz-adv-x="1220" 
d="M852 348v688h228v-1036h-228v120q-59 -65 -141.5 -104.5t-168.5 -39.5q-188 0 -305 119t-117 313v628h228v-616q0 -106 66 -173t172 -67q74 0 147 49.5t119 118.5zM473 1526l272 -342h-222l-279 342h229z" />
    <glyph glyph-name="uacute" unicode="&#xfa;" horiz-adv-x="1220" 
d="M852 348v688h228v-1036h-228v120q-59 -65 -141.5 -104.5t-168.5 -39.5q-188 0 -305 119t-117 313v628h228v-616q0 -106 66 -173t172 -67q74 0 147 49.5t119 118.5zM445 1184l272 342h229l-279 -342h-222z" />
    <glyph glyph-name="ucircumflex" unicode="&#xfb;" horiz-adv-x="1220" 
d="M852 348v688h228v-1036h-228v120q-59 -65 -141.5 -104.5t-168.5 -39.5q-188 0 -305 119t-117 313v628h228v-616q0 -106 66 -173t172 -67q74 0 147 49.5t119 118.5zM672 1526l292 -342h-222l-148 170l-148 -170h-222l292 342h156z" />
    <glyph glyph-name="udieresis" unicode="&#xfc;" horiz-adv-x="1220" 
d="M852 348v688h228v-1036h-228v120q-59 -65 -141.5 -104.5t-168.5 -39.5q-188 0 -305 119t-117 313v628h228v-616q0 -106 66 -173t172 -67q74 0 147 49.5t119 118.5zM278 1340q0 56 38 94t94 38t94 -38t38 -94t-38 -94t-94 -38t-94 38t-38 94zM646 1340q0 56 38 94t94 38
t94 -38t38 -94t-38 -94t-94 -38t-94 38t-38 94z" />
    <glyph glyph-name="yacute" unicode="&#xfd;" horiz-adv-x="1056" 
d="M234 -464l176 464l-390 1036h236l270 -748l274 748h236l-566 -1500h-236zM365 1184l272 342h229l-279 -342h-222z" />
    <glyph glyph-name="thorn" unicode="&#xfe;" horiz-adv-x="1312" 
d="M672 180q142 0 240 98t98 240t-98 240t-240 98q-99 0 -181 -51.5t-123 -136.5v-302q41 -85 122.5 -135.5t181.5 -50.5zM712 1060q150 0 272.5 -74t190 -198t67.5 -270t-67.5 -270t-190 -198t-272.5 -74q-208 0 -344 136v-576h-228v1924h228v-536q136 136 344 136z" />
    <glyph glyph-name="ydieresis" unicode="&#xff;" horiz-adv-x="1056" 
d="M212 1340q0 56 38 94t94 38t94 -38t38 -94t-38 -94t-94 -38t-94 38t-38 94zM580 1340q0 56 38 94t94 38t94 -38t38 -94t-38 -94t-94 -38t-94 38t-38 94zM234 -464l176 464l-390 1036h236l270 -748l274 748h236l-566 -1500h-236z" />
    <glyph glyph-name="Amacron" unicode="&#x100;" horiz-adv-x="1376" 
d="M820 1400l516 -1400h-256l-116 338h-552l-116 -338h-256l516 1400h264zM688 1142l-206 -600h412zM388 1570v176h600v-176h-600z" />
    <glyph glyph-name="amacron" unicode="&#x101;" horiz-adv-x="1312" 
d="M640 180q100 0 181.5 50.5t122.5 135.5v302q-41 85 -123 136.5t-181 51.5q-142 0 -240 -98t-98 -240t98 -240t240 -98zM600 1060q208 0 344 -136v112h228v-1036h-228v112q-136 -136 -344 -136q-150 0 -272.5 74t-190 198t-67.5 270t67.5 270t190 198t272.5 74zM330 1246
v176h600v-176h-600z" />
    <glyph glyph-name="Abreve" unicode="&#x102;" horiz-adv-x="1376" 
d="M820 1400l516 -1400h-256l-116 338h-552l-116 -338h-256l516 1400h264zM688 1142l-206 -600h412zM688 1488q-134 0 -232.5 89t-105.5 225h200q1 -63 41 -104.5t97 -41.5t97 41.5t41 104.5h200q-7 -136 -105.5 -225t-232.5 -89z" />
    <glyph glyph-name="abreve" unicode="&#x103;" horiz-adv-x="1312" 
d="M640 180q100 0 181.5 50.5t122.5 135.5v302q-41 85 -123 136.5t-181 51.5q-142 0 -240 -98t-98 -240t98 -240t240 -98zM600 1060q208 0 344 -136v112h228v-1036h-228v112q-136 -136 -344 -136q-150 0 -272.5 74t-190 198t-67.5 270t67.5 270t190 198t272.5 74zM630 1164
q-134 0 -232.5 89t-105.5 225h200q1 -63 41 -104.5t97 -41.5t97 41.5t41 104.5h200q-7 -136 -105.5 -225t-232.5 -89z" />
    <glyph glyph-name="Aogonek" unicode="&#x104;" horiz-adv-x="1376" 
d="M1172 0h-92l-116 338h-552l-116 -338h-256l516 1400h264l516 -1400q-158 -131 -158 -222q0 -41 27.5 -67.5t68.5 -26.5q43 0 74 22l50 -118q-69 -46 -164 -46q-98 0 -164 60t-66 148q0 68 45 132.5t123 117.5zM688 1142l-206 -600h412z" />
    <glyph glyph-name="aogonek" unicode="&#x105;" horiz-adv-x="1312" 
d="M1008 0h-64v112q-136 -136 -344 -136q-150 0 -272.5 74t-190 198t-67.5 270t67.5 270t190 198t272.5 74q208 0 344 -136v112h228v-1036q-158 -131 -158 -222q0 -41 27.5 -67.5t68.5 -26.5q43 0 74 22l50 -118q-69 -46 -164 -46q-98 0 -164 60t-66 148q0 68 45 132.5
t123 117.5zM640 180q100 0 181.5 50.5t122.5 135.5v302q-41 85 -123 136.5t-181 51.5q-142 0 -240 -98t-98 -240t98 -240t240 -98z" />
    <glyph glyph-name="Cacute" unicode="&#x106;" horiz-adv-x="1382" 
d="M1188 320l124 -176q-206 -168 -486 -168q-208 0 -379 95.5t-269 261.5t-98 367t98 367t269 261.5t379 95.5q264 0 470 -156l-118 -178q-94 62 -174 94t-178 32q-212 0 -359 -149t-147 -367t147 -367t359 -149q191 0 362 136zM609 1508l272 342h229l-279 -342h-222z" />
    <glyph glyph-name="cacute" unicode="&#x107;" horiz-adv-x="1104" 
d="M640 -24q-161 0 -292 72t-204.5 196.5t-73.5 273.5t73.5 273.5t204.5 196.5t292 72q219 0 380 -132l-118 -178q-131 106 -262 106q-142 0 -240 -98t-98 -240t98 -240t240 -98q144 0 266 112l134 -166q-163 -150 -400 -150zM423 1184l272 342h229l-279 -342h-222z" />
    <glyph glyph-name="Ccircumflex" unicode="&#x108;" horiz-adv-x="1382" 
d="M1188 320l124 -176q-206 -168 -486 -168q-208 0 -379 95.5t-269 261.5t-98 367t98 367t269 261.5t379 95.5q264 0 470 -156l-118 -178q-94 62 -174 94t-178 32q-212 0 -359 -149t-147 -367t147 -367t359 -149q191 0 362 136zM846 1850l292 -342h-222l-148 170l-148 -170
h-222l292 342h156z" />
    <glyph glyph-name="ccircumflex" unicode="&#x109;" horiz-adv-x="1104" 
d="M640 -24q-161 0 -292 72t-204.5 196.5t-73.5 273.5t73.5 273.5t204.5 196.5t292 72q219 0 380 -132l-118 -178q-131 106 -262 106q-142 0 -240 -98t-98 -240t98 -240t240 -98q144 0 266 112l134 -166q-163 -150 -400 -150zM656 1526l292 -342h-222l-148 170l-148 -170
h-222l292 342h156z" />
    <glyph glyph-name="Cdotaccent" unicode="&#x10a;" horiz-adv-x="1382" 
d="M1188 320l124 -176q-206 -168 -486 -168q-208 0 -379 95.5t-269 261.5t-98 367t98 367t269 261.5t379 95.5q264 0 470 -156l-118 -178q-94 62 -174 94t-178 32q-212 0 -359 -149t-147 -367t147 -367t359 -149q191 0 362 136zM636 1664q0 56 38 94t94 38t94 -38t38 -94
t-38 -94t-94 -38t-94 38t-38 94z" />
    <glyph glyph-name="cdotaccent" unicode="&#x10b;" horiz-adv-x="1104" 
d="M640 -24q-161 0 -292 72t-204.5 196.5t-73.5 273.5t73.5 273.5t204.5 196.5t292 72q219 0 380 -132l-118 -178q-131 106 -262 106q-142 0 -240 -98t-98 -240t98 -240t240 -98q144 0 266 112l134 -166q-163 -150 -400 -150zM470 1340q0 56 38 94t94 38t94 -38t38 -94
t-38 -94t-94 -38t-94 38t-38 94z" />
    <glyph glyph-name="Ccaron" unicode="&#x10c;" horiz-adv-x="1382" 
d="M1188 320l124 -176q-206 -168 -486 -168q-208 0 -379 95.5t-269 261.5t-98 367t98 367t269 261.5t379 95.5q264 0 470 -156l-118 -178q-94 62 -174 94t-178 32q-212 0 -359 -149t-147 -367t147 -367t359 -149q191 0 362 136zM1138 1850l-292 -342h-156l-292 342h222
l148 -170l148 170h222z" />
    <glyph glyph-name="ccaron" unicode="&#x10d;" horiz-adv-x="1104" 
d="M640 -24q-161 0 -292 72t-204.5 196.5t-73.5 273.5t73.5 273.5t204.5 196.5t292 72q219 0 380 -132l-118 -178q-131 106 -262 106q-142 0 -240 -98t-98 -240t98 -240t240 -98q144 0 266 112l134 -166q-163 -150 -400 -150zM950 1506l-292 -342h-156l-292 342h222
l148 -170l148 170h222z" />
    <glyph glyph-name="Dcaron" unicode="&#x10e;" horiz-adv-x="1434" 
d="M160 1400h492q323 0 512.5 -187.5t189.5 -512.5t-189.5 -512.5t-512.5 -187.5h-492v1400zM652 1192h-256v-984h256q212 0 337 123t125 369t-125 369t-337 123zM1038 1850l-292 -342h-156l-292 342h222l148 -170l148 170h222z" />
    <glyph glyph-name="dcaron" unicode="&#x10f;" horiz-adv-x="1624" 
d="M640 180q100 0 181.5 50.5t122.5 135.5v302q-41 85 -123 136.5t-181 51.5q-142 0 -240 -98t-98 -240t98 -240t240 -98zM600 1060q208 0 344 -136v536h228v-1460h-228v112q-136 -136 -344 -136q-150 0 -272.5 74t-190 198t-67.5 270t67.5 270t190 198t272.5 74zM1300 1342
q0 60 41 101t101 41t101 -41t41 -101q0 -31 -16 -66l-136 -294h-144l102 226q-40 15 -65 51t-25 83z" />
    <glyph glyph-name="Dcroat" unicode="&#x110;" horiz-adv-x="1464" 
d="M190 1400h492q323 0 512.5 -187.5t189.5 -512.5t-189.5 -512.5t-512.5 -187.5h-492v614h-180v172h180v614zM710 614h-284v-406h256q212 0 337 123t125 369t-125 369t-337 123h-256v-406h284v-172z" />
    <glyph glyph-name="dcroat" unicode="&#x111;" horiz-adv-x="1332" 
d="M622 1160v152h322v148h228v-148h140v-152h-140v-1160h-228v112q-136 -136 -344 -136q-150 0 -272.5 74t-190 198t-67.5 270t67.5 270t190 198t272.5 74q208 0 344 -136v236h-322zM640 180q100 0 181.5 50.5t122.5 135.5v302q-41 85 -123 136.5t-181 51.5q-142 0 -240 -98
t-98 -240t98 -240t240 -98z" />
    <glyph glyph-name="Emacron" unicode="&#x112;" horiz-adv-x="1140" 
d="M160 0v1400h852v-204h-616v-390h568v-204h-568v-398h634v-204h-870zM288 1570v176h600v-176h-600z" />
    <glyph glyph-name="emacron" unicode="&#x113;" horiz-adv-x="1236" 
d="M1156 444h-853q20 -119 113.5 -195.5t221.5 -76.5q175 0 308 136l156 -144q-173 -188 -458 -188q-126 0 -234 42.5t-182 115.5t-116 172.5t-42 211.5t42.5 212t116 172.5t177.5 115t222 42.5q154 0 278 -71t192 -190t68 -261q0 -51 -10 -94zM628 864q-108 0 -196 -65
t-120 -167h615q-27 102 -108 167t-191 65zM320 1246v176h600v-176h-600z" />
    <glyph glyph-name="Ebreve" unicode="&#x114;" horiz-adv-x="1140" 
d="M160 0v1400h852v-204h-616v-390h568v-204h-568v-398h634v-204h-870zM586 1488q-134 0 -232.5 89t-105.5 225h200q1 -63 41 -104.5t97 -41.5t97 41.5t41 104.5h200q-7 -136 -105.5 -225t-232.5 -89z" />
    <glyph glyph-name="ebreve" unicode="&#x115;" horiz-adv-x="1236" 
d="M1156 444h-853q20 -119 113.5 -195.5t221.5 -76.5q175 0 308 136l156 -144q-173 -188 -458 -188q-126 0 -234 42.5t-182 115.5t-116 172.5t-42 211.5t42.5 212t116 172.5t177.5 115t222 42.5q154 0 278 -71t192 -190t68 -261q0 -51 -10 -94zM628 864q-108 0 -196 -65
t-120 -167h615q-27 102 -108 167t-191 65zM618 1164q-134 0 -232.5 89t-105.5 225h200q1 -63 41 -104.5t97 -41.5t97 41.5t41 104.5h200q-7 -136 -105.5 -225t-232.5 -89z" />
    <glyph glyph-name="Edotaccent" unicode="&#x116;" horiz-adv-x="1140" 
d="M160 0v1400h852v-204h-616v-390h568v-204h-568v-398h634v-204h-870zM464 1664q0 56 38 94t94 38t94 -38t38 -94t-38 -94t-94 -38t-94 38t-38 94z" />
    <glyph glyph-name="edotaccent" unicode="&#x117;" horiz-adv-x="1236" 
d="M1156 444h-853q20 -119 113.5 -195.5t221.5 -76.5q175 0 308 136l156 -144q-173 -188 -458 -188q-126 0 -234 42.5t-182 115.5t-116 172.5t-42 211.5t42.5 212t116 172.5t177.5 115t222 42.5q154 0 278 -71t192 -190t68 -261q0 -51 -10 -94zM628 864q-108 0 -196 -65
t-120 -167h615q-27 102 -108 167t-191 65zM490 1340q0 56 38 94t94 38t94 -38t38 -94t-38 -94t-94 -38t-94 38t-38 94z" />
    <glyph glyph-name="Eogonek" unicode="&#x118;" horiz-adv-x="1140" 
d="M160 0v1400h852v-204h-616v-390h568v-204h-568v-398h634v-204h-176q-158 -131 -158 -222q0 -41 27.5 -67.5t68.5 -26.5q43 0 74 22l50 -118q-69 -46 -164 -46q-98 0 -164 60t-66 148q0 68 45 132.5t123 117.5h-530z" />
    <glyph glyph-name="eogonek" unicode="&#x119;" horiz-adv-x="1236" 
d="M1156 444h-854q20 -119 114.5 -195.5t221.5 -76.5q175 0 308 136l156 -144q-145 -158 -372 -182q-134 -117 -134 -204q0 -41 27.5 -67.5t68.5 -26.5q43 0 74 22l50 -118q-69 -46 -164 -46q-98 0 -164 60t-66 148q0 122 140 232q-221 25 -356.5 175t-135.5 361
q0 112 42.5 212t116 172.5t177.5 115t222 42.5q154 0 278 -71t192 -190t68 -261q0 -51 -10 -94zM628 864q-108 0 -196 -65t-120 -167h614q-28 102 -109 167t-189 65z" />
    <glyph glyph-name="Ecaron" unicode="&#x11a;" horiz-adv-x="1140" 
d="M160 0v1400h852v-204h-616v-390h568v-204h-568v-398h634v-204h-870zM958 1850l-292 -342h-156l-292 342h222l148 -170l148 170h222z" />
    <glyph glyph-name="ecaron" unicode="&#x11b;" horiz-adv-x="1236" 
d="M1156 444h-853q20 -119 113.5 -195.5t221.5 -76.5q175 0 308 136l156 -144q-173 -188 -458 -188q-126 0 -234 42.5t-182 115.5t-116 172.5t-42 211.5t42.5 212t116 172.5t177.5 115t222 42.5q154 0 278 -71t192 -190t68 -261q0 -51 -10 -94zM628 864q-108 0 -196 -65
t-120 -167h615q-27 102 -108 167t-191 65zM992 1506l-292 -342h-156l-292 342h222l148 -170l148 170h222z" />
    <glyph glyph-name="Gcircumflex" unicode="&#x11c;" horiz-adv-x="1450" 
d="M826 1216q-212 0 -359 -149t-147 -367t147 -367t359 -149q67 0 136.5 18.5t121.5 51.5v302h-340v204h576v-608q-96 -83 -224.5 -129.5t-269.5 -46.5q-208 0 -379 95.5t-269 261.5t-98 367t98 367t269 261.5t379 95.5q264 0 470 -156l-118 -178q-94 62 -174 94t-178 32z
M846 1850l292 -342h-222l-148 170l-148 -170h-222l292 342h156z" />
    <glyph glyph-name="gcircumflex" unicode="&#x11d;" horiz-adv-x="1312" 
d="M640 180q100 0 181.5 50.5t122.5 135.5v302q-41 85 -123 136.5t-181 51.5q-142 0 -240 -98t-98 -240t98 -240t240 -98zM1172 1036v-980q0 -240 -140 -380t-406 -140q-146 0 -270.5 55.5t-211.5 154.5l150 146q146 -160 330 -160q147 0 233.5 81.5t86.5 226.5v72
q-136 -136 -344 -136q-150 0 -272.5 74t-190 198t-67.5 270t67.5 270t190 198t272.5 74q208 0 344 -136v112h228zM718 1526l292 -342h-222l-148 170l-148 -170h-222l292 342h156z" />
    <glyph glyph-name="Gbreve" unicode="&#x11e;" horiz-adv-x="1450" 
d="M826 1216q-212 0 -359 -149t-147 -367t147 -367t359 -149q67 0 136.5 18.5t121.5 51.5v302h-340v204h576v-608q-96 -83 -224.5 -129.5t-269.5 -46.5q-208 0 -379 95.5t-269 261.5t-98 367t98 367t269 261.5t379 95.5q264 0 470 -156l-118 -178q-94 62 -174 94t-178 32z
M768 1488q-134 0 -232.5 89t-105.5 225h200q1 -63 41 -104.5t97 -41.5t97 41.5t41 104.5h200q-7 -136 -105.5 -225t-232.5 -89z" />
    <glyph glyph-name="gbreve" unicode="&#x11f;" horiz-adv-x="1312" 
d="M640 180q100 0 181.5 50.5t122.5 135.5v302q-41 85 -123 136.5t-181 51.5q-142 0 -240 -98t-98 -240t98 -240t240 -98zM1172 1036v-980q0 -240 -140 -380t-406 -140q-146 0 -270.5 55.5t-211.5 154.5l150 146q146 -160 330 -160q147 0 233.5 81.5t86.5 226.5v72
q-136 -136 -344 -136q-150 0 -272.5 74t-190 198t-67.5 270t67.5 270t190 198t272.5 74q208 0 344 -136v112h228zM630 1164q-134 0 -232.5 89t-105.5 225h200q1 -63 41 -104.5t97 -41.5t97 41.5t41 104.5h200q-7 -136 -105.5 -225t-232.5 -89z" />
    <glyph glyph-name="Gdotaccent" unicode="&#x120;" horiz-adv-x="1450" 
d="M826 1216q-212 0 -359 -149t-147 -367t147 -367t359 -149q67 0 136.5 18.5t121.5 51.5v302h-340v204h576v-608q-96 -83 -224.5 -129.5t-269.5 -46.5q-208 0 -379 95.5t-269 261.5t-98 367t98 367t269 261.5t379 95.5q264 0 470 -156l-118 -178q-94 62 -174 94t-178 32z
M636 1664q0 56 38 94t94 38t94 -38t38 -94t-38 -94t-94 -38t-94 38t-38 94z" />
    <glyph glyph-name="gdotaccent" unicode="&#x121;" horiz-adv-x="1312" 
d="M640 180q100 0 181.5 50.5t122.5 135.5v302q-41 85 -123 136.5t-181 51.5q-142 0 -240 -98t-98 -240t98 -240t240 -98zM1172 1036v-980q0 -240 -140 -380t-406 -140q-146 0 -270.5 55.5t-211.5 154.5l150 146q146 -160 330 -160q147 0 233.5 81.5t86.5 226.5v72
q-136 -136 -344 -136q-150 0 -272.5 74t-190 198t-67.5 270t67.5 270t190 198t272.5 74q208 0 344 -136v112h228zM488 1340q0 56 38 94t94 38t94 -38t38 -94t-38 -94t-94 -38t-94 38t-38 94z" />
    <glyph glyph-name="Gcommaaccent" unicode="&#x122;" horiz-adv-x="1450" 
d="M826 1216q-212 0 -359 -149t-147 -367t147 -367t359 -149q67 0 136.5 18.5t121.5 51.5v302h-340v204h576v-608q-96 -83 -224.5 -129.5t-269.5 -46.5q-208 0 -379 95.5t-269 261.5t-98 367t98 367t269 261.5t379 95.5q264 0 470 -156l-118 -178q-94 62 -174 94t-178 32z
M770 -470h-205l154 342h229z" />
    <glyph glyph-name="gcommaaccent" unicode="&#x123;" horiz-adv-x="1312" 
d="M640 180q100 0 181.5 50.5t122.5 135.5v302q-41 85 -123 136.5t-181 51.5q-142 0 -240 -98t-98 -240t98 -240t240 -98zM1172 1036v-980q0 -240 -140 -380t-406 -140q-146 0 -270.5 55.5t-211.5 154.5l150 146q146 -160 330 -160q147 0 233.5 81.5t86.5 226.5v72
q-136 -136 -344 -136q-150 0 -272.5 74t-190 198t-67.5 270t67.5 270t190 198t272.5 74q208 0 344 -136v112h228zM678 1514h205l-154 -342h-229z" />
    <glyph glyph-name="Hcircumflex" unicode="&#x124;" horiz-adv-x="1408" 
d="M782 1850l292 -342h-222l-148 170l-148 -170h-222l292 342h156zM160 0v1400h236v-594h616v594h236v-1400h-236v602h-616v-602h-236z" />
    <glyph glyph-name="hcircumflex" unicode="&#x125;" horiz-adv-x="1220" 
d="M368 688v-688h-228v1460h228v-544q59 65 141.5 104.5t168.5 39.5q188 0 305 -119t117 -313v-628h-228v616q0 106 -66 173t-172 67q-74 0 -147 -49.5t-119 -118.5zM332 1910l292 -342h-222l-148 170l-148 -170h-222l292 342h156z" />
    <glyph glyph-name="Hbar" unicode="&#x126;" horiz-adv-x="1428" 
d="M170 0v1032h-120v172h120v196h236v-196h616v196h236v-196h120v-172h-120v-1032h-236v602h-616v-602h-236zM406 806h616v226h-616v-226z" />
    <glyph glyph-name="hbar" unicode="&#x127;" horiz-adv-x="1240" 
d="M20 1160v152h140v148h228v-148h322v-152h-322v-244q59 65 141.5 104.5t168.5 39.5q188 0 305 -119t117 -313v-628h-228v616q0 106 -66 173t-172 67q-74 0 -147 -49.5t-119 -118.5v-688h-228v1160h-140z" />
    <glyph glyph-name="Itilde" unicode="&#x128;" horiz-adv-x="576" 
d="M170 1400h236v-1400h-236v1400zM302 1566q-72 40 -104 40q-47 0 -64 -77l-193 39q22 110 69 164t124 54q59 0 140 -46q72 -40 104 -40q47 0 64 77l193 -39q-22 -110 -69 -164t-124 -54q-60 0 -140 46z" />
    <glyph glyph-name="itilde" unicode="&#x129;" horiz-adv-x="528" 
d="M150 0v1036h228v-1036h-228zM278 1242q-72 40 -104 40q-47 0 -64 -77l-193 39q22 110 69 164t124 54q60 0 140 -46q72 -40 104 -40q47 0 64 77l193 -39q-22 -110 -69 -164t-124 -54q-60 0 -140 46z" />
    <glyph glyph-name="Imacron" unicode="&#x12a;" horiz-adv-x="576" 
d="M170 1400h236v-1400h-236v1400zM-12 1570v176h600v-176h-600z" />
    <glyph glyph-name="imacron" unicode="&#x12b;" horiz-adv-x="528" 
d="M150 0v1036h228v-1036h-228zM-36 1246v176h600v-176h-600z" />
    <glyph glyph-name="Ibreve" unicode="&#x12c;" horiz-adv-x="576" 
d="M170 1400h236v-1400h-236v1400zM288 1488q-134 0 -232.5 89t-105.5 225h200q1 -63 41 -104.5t97 -41.5t97 41.5t41 104.5h200q-7 -136 -105.5 -225t-232.5 -89z" />
    <glyph glyph-name="ibreve" unicode="&#x12d;" horiz-adv-x="528" 
d="M150 0v1036h228v-1036h-228zM264 1164q-134 0 -232.5 89t-105.5 225h200q1 -63 41 -104.5t97 -41.5t97 41.5t41 104.5h200q-7 -136 -105.5 -225t-232.5 -89z" />
    <glyph glyph-name="Iogonek" unicode="&#x12e;" horiz-adv-x="576" 
d="M242 0h-72v1400h236v-1400q-158 -131 -158 -222q0 -41 27.5 -67.5t68.5 -26.5q43 0 74 22l50 -118q-69 -46 -164 -46q-98 0 -164 60t-66 148q0 68 45 132.5t123 117.5z" />
    <glyph glyph-name="iogonek" unicode="&#x12f;" horiz-adv-x="528" 
d="M150 0v1036h228v-1036q-158 -131 -158 -222q0 -41 27.5 -67.5t68.5 -26.5q43 0 74 22l50 -118q-69 -46 -164 -46q-98 0 -164 60t-66 148q0 68 45 132.5t123 117.5h-64zM122 1318q0 60 41 101t101 41t101 -41t41 -101t-41 -101t-101 -41t-101 41t-41 101z" />
    <glyph glyph-name="Idotaccent" unicode="&#x130;" horiz-adv-x="576" 
d="M170 1400h236v-1400h-236v1400zM156 1664q0 56 38 94t94 38t94 -38t38 -94t-38 -94t-94 -38t-94 38t-38 94z" />
    <glyph glyph-name="dotlessi" unicode="&#x131;" horiz-adv-x="528" 
d="M150 0v1036h228v-1036h-228z" />
    <glyph glyph-name="IJ" unicode="&#x132;" horiz-adv-x="1460" 
d="M170 1400h236v-1400h-236v1400zM1074 446v954h236v-954q0 -243 -114 -356.5t-340 -113.5q-73 0 -150 18.5t-130 49.5l76 198q98 -58 200 -58q110 0 166 62t56 200z" />
    <glyph glyph-name="ij" unicode="&#x133;" horiz-adv-x="1056" 
d="M150 0v1036h228v-1036h-228zM122 1318q0 60 41 101t101 41t101 -41t41 -101t-41 -101t-101 -41t-101 41t-41 101zM650 1318q0 60 41 101t101 41t101 -41t41 -101t-41 -101t-101 -41t-101 41t-41 101zM678 -108v1144h228v-1140q0 -194 -79 -277t-259 -83q-44 0 -80 4v196
h52q73 0 105.5 35t32.5 121z" />
    <glyph glyph-name="Jcircumflex" unicode="&#x134;" horiz-adv-x="924" 
d="M538 446v954h236v-954q0 -243 -114 -356.5t-340 -113.5q-73 0 -150 18.5t-130 49.5l76 198q98 -58 200 -58q110 0 166 62t56 200zM734 1850l292 -342h-222l-148 170l-148 -170h-222l292 342h156z" />
    <glyph glyph-name="jcircumflex" unicode="&#x135;" horiz-adv-x="528" 
d="M150 -108v1144h228v-1140q0 -194 -79 -277t-259 -83q-44 0 -80 4v196h52q73 0 105.5 35t32.5 121zM342 1526l292 -342h-222l-148 170l-148 -170h-222l292 342h156z" />
    <glyph glyph-name="Kcommaaccent" unicode="&#x136;" horiz-adv-x="1216" 
d="M396 1400v-594h85l397 594h268l-466 -692l546 -708h-276l-462 602h-92v-602h-236v1400h236zM608 -470h-205l154 342h229z" />
    <glyph glyph-name="kcommaaccent" unicode="&#x137;" horiz-adv-x="1040" 
d="M780 0l-314 478h-98v-478h-228v1460h228v-786h101l249 362h268l-330 -460l384 -576h-260zM492 -470h-205l154 342h229z" />
    <glyph glyph-name="kgreenlandic" unicode="&#x138;" horiz-adv-x="1040" 
d="M780 0l-314 478h-98v-478h-228v1036h228v-362h101l249 362h268l-330 -460l384 -576h-260z" />
    <glyph glyph-name="Lacute" unicode="&#x139;" horiz-adv-x="1030" 
d="M160 0v1400h236v-1196h594v-204h-830zM160 1508l272 342h229l-279 -342h-222z" />
    <glyph glyph-name="lacute" unicode="&#x13a;" horiz-adv-x="528" 
d="M150 0v1460h228v-1460h-228zM100 1568l272 342h229l-279 -342h-222z" />
    <glyph glyph-name="Lcommaaccent" unicode="&#x13b;" horiz-adv-x="1030" 
d="M160 0v1400h236v-1196h594v-204h-830zM548 -470h-205l154 342h229z" />
    <glyph glyph-name="lcommaaccent" unicode="&#x13c;" horiz-adv-x="528" 
d="M150 0v1460h228v-1460h-228zM224 -470h-205l154 342h229z" />
    <glyph glyph-name="Lcaron" unicode="&#x13d;" horiz-adv-x="1030" 
d="M160 0v1400h236v-1196h594v-204h-830zM626 1282q0 60 41 101t101 41t101 -41t41 -101q0 -31 -16 -66l-136 -294h-144l102 226q-40 15 -65 51t-25 83z" />
    <glyph glyph-name="lcaron" unicode="&#x13e;" horiz-adv-x="830" 
d="M150 0v1460h228v-1460h-228zM506 1342q0 60 41 101t101 41t101 -41t41 -101q0 -31 -16 -66l-136 -294h-144l102 226q-40 15 -65 51t-25 83z" />
    <glyph glyph-name="Ldot" unicode="&#x13f;" horiz-adv-x="1030" 
d="M160 0v1400h236v-1196h594v-204h-830zM602 752q0 56 38 94t94 38t94 -38t38 -94t-38 -94t-94 -38t-94 38t-38 94z" />
    <glyph glyph-name="ldot" unicode="&#x140;" horiz-adv-x="826" 
d="M150 0v1460h228v-1460h-228zM514 752q0 56 38 94t94 38t94 -38t38 -94t-38 -94t-94 -38t-94 38t-38 94z" />
    <glyph glyph-name="Lslash" unicode="&#x141;" horiz-adv-x="1060" 
d="M190 0v528l-140 -72v188l140 72v684h236v-563l348 179v-188l-348 -179v-445h594v-204h-830z" />
    <glyph glyph-name="lslash" unicode="&#x142;" horiz-adv-x="588" 
d="M568 812l-160 -81v-731h-228v616l-160 -80v172l160 80v672h228v-557l160 81v-172z" />
    <glyph glyph-name="Nacute" unicode="&#x143;" horiz-adv-x="1408" 
d="M160 0v1400h228l632 -992v992h228v-1400h-228l-632 992v-992h-228zM536 1508l272 342h229l-279 -342h-222z" />
    <glyph glyph-name="nacute" unicode="&#x144;" horiz-adv-x="1220" 
d="M368 688v-688h-228v1036h228v-120q59 65 141.5 104.5t168.5 39.5q188 0 305 -119t117 -313v-628h-228v616q0 106 -66 173t-172 67q-74 0 -147 -49.5t-119 -118.5zM453 1184l272 342h229l-279 -342h-222z" />
    <glyph glyph-name="Ncommaaccent" unicode="&#x145;" horiz-adv-x="1408" 
d="M160 0v1400h228l632 -992v992h228v-1400h-228l-632 992v-992h-228zM684 -470h-205l154 342h229z" />
    <glyph glyph-name="ncommaaccent" unicode="&#x146;" horiz-adv-x="1220" 
d="M368 688v-688h-228v1036h228v-120q59 65 141.5 104.5t168.5 39.5q188 0 305 -119t117 -313v-628h-228v616q0 106 -66 173t-172 67q-74 0 -147 -49.5t-119 -118.5zM592 -470h-205l154 342h229z" />
    <glyph glyph-name="Ncaron" unicode="&#x147;" horiz-adv-x="1408" 
d="M1074 1850l-292 -342h-156l-292 342h222l148 -170l148 170h222zM160 0v1400h228l632 -992v992h228v-1400h-228l-632 992v-992h-228z" />
    <glyph glyph-name="ncaron" unicode="&#x148;" horiz-adv-x="1220" 
d="M368 688v-688h-228v1036h228v-120q59 65 141.5 104.5t168.5 39.5q188 0 305 -119t117 -313v-628h-228v616q0 106 -66 173t-172 67q-74 0 -147 -49.5t-119 -118.5zM956 1506l-292 -342h-156l-292 342h222l148 -170l148 170h222z" />
    <glyph glyph-name="napostrophe" unicode="&#x149;" horiz-adv-x="1420" 
d="M568 688v-688h-228v1036h228v-120q59 65 141.5 104.5t168.5 39.5q188 0 305 -119t117 -313v-628h-228v616q0 106 -66 173t-172 67q-74 0 -147 -49.5t-119 -118.5zM60 1342q0 60 41 101t101 41t101 -41t41 -101q0 -31 -16 -66l-136 -294h-144l102 226q-40 15 -65 51
t-25 83z" />
    <glyph glyph-name="Eng" unicode="&#x14a;" horiz-adv-x="1408" 
d="M1020 -96v96l-632 992v-992h-228v1400h228l632 -992v992h228v-1498q0 -190 -94.5 -278t-297.5 -88q-66 0 -110 8v196q52 -4 90 -4q100 0 142 39.5t42 128.5z" />
    <glyph glyph-name="eng" unicode="&#x14b;" horiz-adv-x="1220" 
d="M872 -96v712q0 106 -66 173t-172 67q-74 0 -147 -49.5t-119 -118.5v-688h-228v1036h228v-120q59 65 141.5 104.5t168.5 39.5q188 0 305 -119t117 -313v-726q0 -190 -94.5 -278t-297.5 -88q-66 0 -110 8v196q40 -4 90 -4q100 0 142 39.5t42 128.5z" />
    <glyph glyph-name="Omacron" unicode="&#x14c;" horiz-adv-x="1652" 
d="M826 184q212 0 359 149t147 367t-147 367t-359 149t-359 -149t-147 -367t147 -367t359 -149zM826 1424q208 0 379 -95.5t269 -261.5t98 -367t-98 -367t-269 -261.5t-379 -95.5t-379 95.5t-269 261.5t-98 367t98 367t269 261.5t379 95.5zM526 1570v176h600v-176h-600z" />
    <glyph glyph-name="omacron" unicode="&#x14d;" horiz-adv-x="1280" 
d="M340 1246v176h600v-176h-600zM640 180q142 0 240 98t98 240t-98 240t-240 98t-240 -98t-98 -240t98 -240t240 -98zM640 1060q161 0 292 -72t204.5 -196.5t73.5 -273.5t-73.5 -273.5t-204.5 -196.5t-292 -72t-292 72t-204.5 196.5t-73.5 273.5t73.5 273.5t204.5 196.5
t292 72z" />
    <glyph glyph-name="Obreve" unicode="&#x14e;" horiz-adv-x="1652" 
d="M826 1488q-134 0 -232.5 89t-105.5 225h200q1 -63 41 -104.5t97 -41.5t97 41.5t41 104.5h200q-7 -136 -105.5 -225t-232.5 -89zM826 184q212 0 359 149t147 367t-147 367t-359 149t-359 -149t-147 -367t147 -367t359 -149zM826 1424q208 0 379 -95.5t269 -261.5t98 -367
t-98 -367t-269 -261.5t-379 -95.5t-379 95.5t-269 261.5t-98 367t98 367t269 261.5t379 95.5z" />
    <glyph glyph-name="obreve" unicode="&#x14f;" horiz-adv-x="1280" 
d="M640 1164q-134 0 -232.5 89t-105.5 225h200q1 -63 41 -104.5t97 -41.5t97 41.5t41 104.5h200q-7 -136 -105.5 -225t-232.5 -89zM640 180q142 0 240 98t98 240t-98 240t-240 98t-240 -98t-98 -240t98 -240t240 -98zM640 1060q161 0 292 -72t204.5 -196.5t73.5 -273.5
t-73.5 -273.5t-204.5 -196.5t-292 -72t-292 72t-204.5 196.5t-73.5 273.5t73.5 273.5t204.5 196.5t292 72z" />
    <glyph glyph-name="Ohungarumlaut" unicode="&#x150;" horiz-adv-x="1652" 
d="M826 184q212 0 359 149t147 367t-147 367t-359 149t-359 -149t-147 -367t147 -367t359 -149zM826 1424q208 0 379 -95.5t269 -261.5t98 -367t-98 -367t-269 -261.5t-379 -95.5t-379 95.5t-269 261.5t-98 367t98 367t269 261.5t379 95.5zM521 1508l272 342h229l-279 -342
h-222zM851 1508l272 342h229l-279 -342h-222z" />
    <glyph glyph-name="ohungarumlaut" unicode="&#x151;" horiz-adv-x="1280" 
d="M640 180q142 0 240 98t98 240t-98 240t-240 98t-240 -98t-98 -240t98 -240t240 -98zM640 1060q161 0 292 -72t204.5 -196.5t73.5 -273.5t-73.5 -273.5t-204.5 -196.5t-292 -72t-292 72t-204.5 196.5t-73.5 273.5t73.5 273.5t204.5 196.5t292 72zM313 1184l272 342h229
l-279 -342h-222zM643 1184l272 342h229l-279 -342h-222z" />
    <glyph glyph-name="OE" unicode="&#x152;" horiz-adv-x="1806" 
d="M826 208h20v984h-20q-214 0 -360 -141.5t-146 -350.5t146 -350.5t360 -141.5zM1696 0h-870q-154 0 -292 54t-237.5 147t-158 223t-58.5 276t58.5 276t158 223t237.5 147t292 54h852v-204h-596v-390h548v-204h-548v-398h614v-204z" />
    <glyph glyph-name="oe" unicode="&#x153;" horiz-adv-x="2146" 
d="M640 1060q140 0 260 -62t194 -166q70 102 189 165t255 63q154 0 278 -71t192 -190t68 -261q0 -51 -10 -94h-854q20 -119 114.5 -195.5t221.5 -76.5q175 0 308 136l156 -144q-173 -188 -458 -188q-146 0 -269 62.5t-193 163.5q-74 -104 -193 -165t-259 -61q-161 0 -292 72
t-204.5 196.5t-73.5 273.5t73.5 273.5t204.5 196.5t292 72zM640 180q142 0 240 98t98 240t-98 240t-240 98t-240 -98t-98 -240t98 -240t240 -98zM1538 864q-108 0 -196 -65t-120 -167h614q-28 102 -109 167t-189 65z" />
    <glyph glyph-name="Racute" unicode="&#x154;" horiz-adv-x="1214" 
d="M160 1400h472q225 0 354.5 -121t129.5 -325q0 -166 -88 -279t-246 -151l362 -524h-260l-349 508h-139v-508h-236v1400zM622 1196h-226v-484h226q123 0 188.5 64.5t65.5 177.5t-65.5 177.5t-188.5 64.5zM429 1508l272 342h229l-279 -342h-222z" />
    <glyph glyph-name="racute" unicode="&#x155;" horiz-adv-x="810" 
d="M642 856q-82 0 -153.5 -51.5t-120.5 -140.5v-664h-228v1036h228v-132q132 156 304 156q54 0 94 -20l-18 -202q-51 18 -106 18zM233 1184l272 342h229l-279 -342h-222z" />
    <glyph glyph-name="Rcommaaccent" unicode="&#x156;" horiz-adv-x="1214" 
d="M160 1400h472q225 0 354.5 -121t129.5 -325q0 -166 -88 -279t-246 -151l362 -524h-260l-349 508h-139v-508h-236v1400zM622 1196h-226v-484h226q123 0 188.5 64.5t65.5 177.5t-65.5 177.5t-188.5 64.5zM568 -470h-205l154 342h229z" />
    <glyph glyph-name="rcommaaccent" unicode="&#x157;" horiz-adv-x="810" 
d="M642 856q-82 0 -153.5 -51.5t-120.5 -140.5v-664h-228v1036h228v-132q132 156 304 156q54 0 94 -20l-18 -202q-51 18 -106 18zM214 -470h-205l154 342h229z" />
    <glyph glyph-name="Rcaron" unicode="&#x158;" horiz-adv-x="1214" 
d="M160 1400h472q225 0 354.5 -121t129.5 -325q0 -166 -88 -279t-246 -151l362 -524h-260l-349 508h-139v-508h-236v1400zM622 1196h-226v-484h226q123 0 188.5 64.5t65.5 177.5t-65.5 177.5t-188.5 64.5zM958 1850l-292 -342h-156l-292 342h222l148 -170l148 170h222z" />
    <glyph glyph-name="rcaron" unicode="&#x159;" horiz-adv-x="810" 
d="M642 856q-82 0 -153.5 -51.5t-120.5 -140.5v-664h-228v1036h228v-132q132 156 304 156q54 0 94 -20l-18 -202q-51 18 -106 18zM776 1506l-292 -342h-156l-292 342h222l148 -170l148 170h222z" />
    <glyph glyph-name="Sacute" unicode="&#x15a;" horiz-adv-x="1188" 
d="M98 202l148 160q73 -80 163 -129t185 -49q123 0 198.5 54t75.5 146q0 86 -68 146.5t-238 95.5q-218 46 -326 150.5t-108 259.5q0 173 127 280.5t329 107.5q277 0 452 -178l-140 -168q-152 138 -302 138q-99 0 -162.5 -45t-63.5 -119q0 -85 69 -140.5t225 -91.5
q239 -55 342.5 -161.5t103.5 -274.5q0 -183 -135 -295.5t-369 -112.5q-148 0 -283 60t-223 166zM439 1508l272 342h229l-279 -342h-222z" />
    <glyph glyph-name="sacute" unicode="&#x15b;" horiz-adv-x="942" 
d="M70 148l128 152q50 -58 120 -93t148 -35q82 0 130 33.5t48 90.5q0 56 -44.5 90t-153.5 56q-173 34 -255.5 115t-82.5 211q0 128 99.5 210t264.5 82q104 0 197 -38.5t161 -101.5l-122 -154q-61 49 -111 73.5t-107 24.5q-67 0 -110.5 -27t-43.5 -73q0 -105 184 -142
q182 -37 267 -117t85 -213q0 -139 -105 -227.5t-285 -88.5q-126 0 -235 46t-177 126zM303 1184l272 342h229l-279 -342h-222z" />
    <glyph glyph-name="Scircumflex" unicode="&#x15c;" horiz-adv-x="1188" 
d="M98 202l148 160q73 -80 163 -129t185 -49q123 0 198.5 54t75.5 146q0 86 -68 146.5t-238 95.5q-218 46 -326 150.5t-108 259.5q0 173 127 280.5t329 107.5q277 0 452 -178l-140 -168q-152 138 -302 138q-99 0 -162.5 -45t-63.5 -119q0 -85 69 -140.5t225 -91.5
q239 -55 342.5 -161.5t103.5 -274.5q0 -183 -135 -295.5t-369 -112.5q-148 0 -283 60t-223 166zM658 1850l292 -342h-222l-148 170l-148 -170h-222l292 342h156z" />
    <glyph glyph-name="scircumflex" unicode="&#x15d;" horiz-adv-x="942" 
d="M70 148l128 152q50 -58 120 -93t148 -35q82 0 130 33.5t48 90.5q0 56 -44.5 90t-153.5 56q-173 34 -255.5 115t-82.5 211q0 128 99.5 210t264.5 82q104 0 197 -38.5t161 -101.5l-122 -154q-61 49 -111 73.5t-107 24.5q-67 0 -110.5 -27t-43.5 -73q0 -105 184 -142
q182 -37 267 -117t85 -213q0 -139 -105 -227.5t-285 -88.5q-126 0 -235 46t-177 126zM538 1526l292 -342h-222l-148 170l-148 -170h-222l292 342h156z" />
    <glyph glyph-name="Scedilla" unicode="&#x15e;" horiz-adv-x="1188" 
d="M554 -216q-24 0 -56 -4l-40 44l82 156q-132 12 -248.5 69.5t-193.5 152.5l148 160q73 -80 163 -129t185 -49q123 0 198.5 54t75.5 146q0 86 -68 146.5t-238 95.5q-218 46 -326 150.5t-108 259.5q0 173 127 280.5t329 107.5q277 0 452 -178l-140 -168q-152 138 -302 138
q-99 0 -162.5 -45t-63.5 -119q0 -85 69 -140.5t225 -91.5q239 -55 342.5 -161.5t103.5 -274.5q0 -159 -105 -267t-289 -133l-56 -88q78 -21 124 -76t46 -124q0 -93 -74.5 -154.5t-187.5 -61.5q-111 0 -186 60l76 108q42 -32 98 -32q44 0 72 24t28 60t-28 60t-72 24z" />
    <glyph glyph-name="scedilla" unicode="&#x15f;" horiz-adv-x="942" 
d="M420 -216q-24 0 -56 -4l-40 44l82 156q-103 12 -191 56t-145 112l128 152q50 -58 120 -93t148 -35q82 0 130 33.5t48 90.5q0 56 -44.5 90t-153.5 56q-173 34 -255.5 115t-82.5 211q0 128 99.5 210t264.5 82q104 0 197 -38.5t161 -101.5l-122 -154q-61 49 -111 73.5
t-107 24.5q-67 0 -110.5 -27t-43.5 -73q0 -105 184 -142q182 -37 267 -117t85 -213q0 -117 -77 -200.5t-213 -107.5l-58 -88q78 -21 124 -76t46 -124q0 -93 -74.5 -154.5t-187.5 -61.5q-111 0 -186 60l76 108q42 -32 98 -32q44 0 72 24t28 60t-28 60t-72 24z" />
    <glyph glyph-name="Scaron" unicode="&#x160;" horiz-adv-x="1188" 
d="M98 202l148 160q73 -80 163 -129t185 -49q123 0 198.5 54t75.5 146q0 86 -68 146.5t-238 95.5q-218 46 -326 150.5t-108 259.5q0 173 127 280.5t329 107.5q277 0 452 -178l-140 -168q-152 138 -302 138q-99 0 -162.5 -45t-63.5 -119q0 -85 69 -140.5t225 -91.5
q239 -55 342.5 -161.5t103.5 -274.5q0 -183 -135 -295.5t-369 -112.5q-148 0 -283 60t-223 166zM950 1850l-292 -342h-156l-292 342h222l148 -170l148 170h222z" />
    <glyph glyph-name="scaron" unicode="&#x161;" horiz-adv-x="942" 
d="M70 148l128 152q50 -58 120 -93t148 -35q82 0 130 33.5t48 90.5q0 56 -44.5 90t-153.5 56q-173 34 -255.5 115t-82.5 211q0 128 99.5 210t264.5 82q104 0 197 -38.5t161 -101.5l-122 -154q-61 49 -111 73.5t-107 24.5q-67 0 -110.5 -27t-43.5 -73q0 -105 184 -142
q182 -37 267 -117t85 -213q0 -139 -105 -227.5t-285 -88.5q-126 0 -235 46t-177 126zM830 1506l-292 -342h-156l-292 342h222l148 -170l148 170h222z" />
    <glyph glyph-name="Tcommaaccent" unicode="&#x162;" horiz-adv-x="1108" 
d="M436 0v1196h-376v204h988v-204h-376v-1196l-68 -104q78 -21 124 -76t46 -124q0 -93 -74.5 -154.5t-187.5 -61.5q-111 0 -186 60l76 108q42 -32 98 -32q44 0 72 24t28 60t-28 60t-72 24q-24 0 -56 -4l-40 44l94 176h-62z" />
    <glyph glyph-name="tcommaaccent" unicode="&#x163;" horiz-adv-x="768" 
d="M354 -216q-24 0 -56 -4l-40 44l106 200q-148 81 -148 318v494h-172v200h172v280l228 20v-300h262v-200h-262v-492q0 -89 42 -128.5t142 -39.5q50 0 90 4v-196q-44 -8 -110 -8q-52 0 -94 6l-56 -86q78 -21 124 -76t46 -124q0 -93 -74.5 -154.5t-187.5 -61.5
q-111 0 -186 60l76 108q42 -32 98 -32q44 0 72 24t28 60t-28 60t-72 24z" />
    <glyph glyph-name="Tcaron" unicode="&#x164;" horiz-adv-x="1108" 
d="M924 1850l-292 -342h-156l-292 342h222l148 -170l148 170h222zM436 0v1196h-376v204h988v-204h-376v-1196h-236z" />
    <glyph glyph-name="tcaron" unicode="&#x165;" horiz-adv-x="1100" 
d="M444 836v-492q0 -89 42 -128.5t142 -39.5q50 0 90 4v-196q-44 -8 -110 -8q-203 0 -297.5 88t-94.5 278v494h-172v200h172v280l228 20v-300h262v-200h-262zM776 1342q0 60 41 101t101 41t101 -41t41 -101q0 -31 -16 -66l-136 -294h-144l102 226q-40 15 -65 51t-25 83z" />
    <glyph glyph-name="Tbar" unicode="&#x166;" horiz-adv-x="1108" 
d="M924 614h-252v-614h-236v614h-252v172h252v410h-376v204h988v-204h-376v-410h252v-172z" />
    <glyph glyph-name="tbar" unicode="&#x167;" horiz-adv-x="768" 
d="M66 460v152h150v224h-172v200h172v280l228 20v-300h262v-200h-262v-224h222v-152h-222v-116q0 -89 42 -128.5t142 -39.5q50 0 90 4v-196q-44 -8 -110 -8q-203 0 -297.5 88t-94.5 278v118h-150z" />
    <glyph glyph-name="Utilde" unicode="&#x168;" horiz-adv-x="1336" 
d="M682 1566q-72 40 -104 40q-47 0 -64 -77l-193 39q22 110 69 164t124 54q60 0 140 -46q72 -40 104 -40q47 0 64 77l193 -39q-22 -110 -69 -164t-124 -54q-60 0 -140 46zM1186 1400v-904q0 -154 -70 -273.5t-187.5 -182t-260.5 -62.5t-260.5 62.5t-187.5 182t-70 273.5v904
h236v-932q0 -126 81 -204t201 -78t201 78t81 204v932h236z" />
    <glyph glyph-name="utilde" unicode="&#x169;" horiz-adv-x="1220" 
d="M852 348v688h228v-1036h-228v120q-59 -65 -141.5 -104.5t-168.5 -39.5q-188 0 -305 119t-117 313v628h228v-616q0 -106 66 -173t172 -67q74 0 147 49.5t119 118.5zM604 1242q-72 40 -104 40q-47 0 -64 -77l-193 39q22 110 69 164t124 54q59 0 140 -46q72 -40 104 -40
q47 0 64 77l193 -39q-22 -110 -69 -164t-124 -54q-60 0 -140 46z" />
    <glyph glyph-name="Umacron" unicode="&#x16a;" horiz-adv-x="1336" 
d="M368 1570v176h600v-176h-600zM1186 1400v-904q0 -154 -70 -273.5t-187.5 -182t-260.5 -62.5t-260.5 62.5t-187.5 182t-70 273.5v904h236v-932q0 -126 81 -204t201 -78t201 78t81 204v932h236z" />
    <glyph glyph-name="umacron" unicode="&#x16b;" horiz-adv-x="1220" 
d="M852 348v688h228v-1036h-228v120q-59 -65 -141.5 -104.5t-168.5 -39.5q-188 0 -305 119t-117 313v628h228v-616q0 -106 66 -173t172 -67q74 0 147 49.5t119 118.5zM296 1246v176h600v-176h-600z" />
    <glyph glyph-name="Ubreve" unicode="&#x16c;" horiz-adv-x="1336" 
d="M668 1488q-134 0 -232.5 89t-105.5 225h200q1 -63 41 -104.5t97 -41.5t97 41.5t41 104.5h200q-7 -136 -105.5 -225t-232.5 -89zM1186 1400v-904q0 -154 -70 -273.5t-187.5 -182t-260.5 -62.5t-260.5 62.5t-187.5 182t-70 273.5v904h236v-932q0 -126 81 -204t201 -78
t201 78t81 204v932h236z" />
    <glyph glyph-name="ubreve" unicode="&#x16d;" horiz-adv-x="1220" 
d="M852 348v688h228v-1036h-228v120q-59 -65 -141.5 -104.5t-168.5 -39.5q-188 0 -305 119t-117 313v628h228v-616q0 -106 66 -173t172 -67q74 0 147 49.5t119 118.5zM590 1164q-134 0 -232.5 89t-105.5 225h200q1 -63 41 -104.5t97 -41.5t97 41.5t41 104.5h200
q-7 -136 -105.5 -225t-232.5 -89z" />
    <glyph glyph-name="Uring" unicode="&#x16e;" horiz-adv-x="1336" 
d="M596 1686q0 -30 20.5 -50t51.5 -20t51.5 20t20.5 50t-20.5 50t-51.5 20t-51.5 -20t-20.5 -50zM452 1686q0 84 61.5 141t154.5 57t154.5 -57t61.5 -141t-61.5 -141t-154.5 -57t-154.5 57t-61.5 141zM1186 1400v-904q0 -154 -70 -273.5t-187.5 -182t-260.5 -62.5
t-260.5 62.5t-187.5 182t-70 273.5v904h236v-932q0 -126 81 -204t201 -78t201 78t81 204v932h236z" />
    <glyph glyph-name="uring" unicode="&#x16f;" horiz-adv-x="1220" 
d="M852 348v688h228v-1036h-228v120q-59 -65 -141.5 -104.5t-168.5 -39.5q-188 0 -305 119t-117 313v628h228v-616q0 -106 66 -173t172 -67q74 0 147 49.5t119 118.5zM508 1362q0 -30 20.5 -50t51.5 -20t51.5 20t20.5 50t-20.5 50t-51.5 20t-51.5 -20t-20.5 -50zM364 1362
q0 84 61.5 141t154.5 57t154.5 -57t61.5 -141t-61.5 -141t-154.5 -57t-154.5 57t-61.5 141z" />
    <glyph glyph-name="Uhungarumlaut" unicode="&#x170;" horiz-adv-x="1336" 
d="M1186 1400v-904q0 -154 -70 -273.5t-187.5 -182t-260.5 -62.5t-260.5 62.5t-187.5 182t-70 273.5v904h236v-932q0 -126 81 -204t201 -78t201 78t81 204v932h236zM373 1508l272 342h229l-279 -342h-222zM703 1508l272 342h229l-279 -342h-222z" />
    <glyph glyph-name="uhungarumlaut" unicode="&#x171;" horiz-adv-x="1220" 
d="M852 348v688h228v-1036h-228v120q-59 -65 -141.5 -104.5t-168.5 -39.5q-188 0 -305 119t-117 313v628h228v-616q0 -106 66 -173t172 -67q74 0 147 49.5t119 118.5zM283 1184l272 342h229l-279 -342h-222zM613 1184l272 342h229l-279 -342h-222z" />
    <glyph glyph-name="Uogonek" unicode="&#x172;" horiz-adv-x="1336" 
d="M1186 1400v-904q0 -196 -110 -331.5t-284 -172.5q-146 -126 -146 -214q0 -41 27.5 -67.5t68.5 -26.5q43 0 74 22l50 -118q-69 -46 -164 -46q-98 0 -164 60t-66 148q0 123 140 230q-200 18 -331 158.5t-131 357.5v904h236v-932q0 -126 81 -204t201 -78t201 78t81 204v932
h236z" />
    <glyph glyph-name="uogonek" unicode="&#x173;" horiz-adv-x="1220" 
d="M852 0v120q-59 -65 -141.5 -104.5t-168.5 -39.5q-188 0 -305 119t-117 313v628h228v-616q0 -106 66 -173t172 -67q74 0 147 49.5t119 118.5v688h228v-1036q-158 -131 -158 -222q0 -41 27.5 -67.5t68.5 -26.5q43 0 74 22l50 -118q-69 -46 -164 -46q-98 0 -164 60t-66 148
q0 68 45 132.5t123 117.5h-64z" />
    <glyph glyph-name="Wcircumflex" unicode="&#x174;" horiz-adv-x="1960" 
d="M864 1400h232l302 -1054l274 1054h248l-398 -1400h-232l-310 1076l-310 -1076h-232l-398 1400h248l274 -1054zM1058 1850l292 -342h-222l-148 170l-148 -170h-222l292 342h156z" />
    <glyph glyph-name="wcircumflex" unicode="&#x175;" horiz-adv-x="1576" 
d="M670 1036h236l206 -738l208 738h236l-324 -1036h-236l-208 744l-208 -744h-236l-324 1036h236l208 -738zM866 1526l292 -342h-222l-148 170l-148 -170h-222l292 342h156z" />
    <glyph glyph-name="Ycircumflex" unicode="&#x176;" horiz-adv-x="1292" 
d="M292 1400l354 -596l354 596h252l-488 -826v-574h-236v574l-488 826h252zM724 1850l292 -342h-222l-148 170l-148 -170h-222l292 342h156z" />
    <glyph glyph-name="ycircumflex" unicode="&#x177;" horiz-adv-x="1056" 
d="M234 -464l176 464l-390 1036h236l270 -748l274 748h236l-566 -1500h-236zM604 1526l292 -342h-222l-148 170l-148 -170h-222l292 342h156z" />
    <glyph glyph-name="Ydieresis" unicode="&#x178;" horiz-adv-x="1292" 
d="M292 1400l354 -596l354 596h252l-488 -826v-574h-236v574l-488 826h252zM330 1664q0 56 38 94t94 38t94 -38t38 -94t-38 -94t-94 -38t-94 38t-38 94zM698 1664q0 56 38 94t94 38t94 -38t38 -94t-38 -94t-94 -38t-94 38t-38 94z" />
    <glyph glyph-name="Zacute" unicode="&#x179;" horiz-adv-x="1214" 
d="M120 204l680 992h-650v204h934v-204l-680 -992h700v-204h-984v204zM421 1508l272 342h229l-279 -342h-222z" />
    <glyph glyph-name="zacute" unicode="&#x17a;" horiz-adv-x="1022" 
d="M96 0v200l532 636h-506v200h780v-200l-532 -636h552v-200h-826zM325 1184l272 342h229l-279 -342h-222z" />
    <glyph glyph-name="Zdotaccent" unicode="&#x17b;" horiz-adv-x="1214" 
d="M120 204l680 992h-650v204h934v-204l-680 -992h700v-204h-984v204zM476 1664q0 56 38 94t94 38t94 -38t38 -94t-38 -94t-94 -38t-94 38t-38 94z" />
    <glyph glyph-name="zdotaccent" unicode="&#x17c;" horiz-adv-x="1022" 
d="M96 0v200l532 636h-506v200h780v-200l-532 -636h552v-200h-826zM380 1340q0 56 38 94t94 38t94 -38t38 -94t-38 -94t-94 -38t-94 38t-38 94z" />
    <glyph glyph-name="Zcaron" unicode="&#x17d;" horiz-adv-x="1214" 
d="M120 204l680 992h-650v204h934v-204l-680 -992h700v-204h-984v204zM978 1850l-292 -342h-156l-292 342h222l148 -170l148 170h222z" />
    <glyph glyph-name="zcaron" unicode="&#x17e;" horiz-adv-x="1022" 
d="M96 0v200l532 636h-506v200h780v-200l-532 -636h552v-200h-826zM870 1506l-292 -342h-156l-292 342h222l148 -170l148 170h222z" />
    <glyph glyph-name="longs" unicode="&#x17f;" horiz-adv-x="754" 
d="M710 1452v-196q-40 4 -90 4q-100 0 -142 -39.5t-42 -128.5v-1092h-228v836h-164v200h164v58q0 190 94.5 278t297.5 88q66 0 110 -8z" />
    <glyph glyph-name="uni0191" unicode="&#x191;" horiz-adv-x="1072" 
d="M396 602v-700q0 -187 -94.5 -276.5t-289.5 -89.5q-54 0 -106 8v196q40 -4 82 -4q92 0 132 40t40 128v1496h832v-204h-596v-390h548v-204h-548z" />
    <glyph glyph-name="florin" unicode="&#x192;" horiz-adv-x="754" 
d="M436 836v-934q0 -190 -94.5 -278t-297.5 -88q-66 0 -110 8v196q40 -4 90 -4q100 0 142 39.5t42 128.5v932h-164v200h164v58q0 190 94.5 278t297.5 88q66 0 110 -8v-196q-40 4 -90 4q-100 0 -142 -39.5t-42 -128.5v-56h274v-200h-274z" />
    <glyph glyph-name="Aringacute" unicode="&#x1fa;" horiz-adv-x="1376" 
d="M472 1470q0 84 61.5 141t154.5 57t154.5 -57t61.5 -141q0 -82 -59 -139l491 -1331h-256l-116 338h-552l-116 -338h-256l491 1331q-59 57 -59 139zM688 1142l-206 -600h412zM779 1708h-218l189 242h227zM616 1470q0 -29 18.5 -48.5t47.5 -21.5h6q31 0 51.5 20t20.5 50
t-20.5 50t-51.5 20t-51.5 -20t-20.5 -50z" />
    <glyph glyph-name="aringacute" unicode="&#x1fb;" horiz-adv-x="1312" 
d="M640 180q100 0 181.5 50.5t122.5 135.5v302q-41 85 -123 136.5t-181 51.5q-142 0 -240 -98t-98 -240t98 -240t240 -98zM600 1060q208 0 344 -136v112h228v-1036h-228v112q-136 -136 -344 -136q-150 0 -272.5 74t-190 198t-67.5 270t67.5 270t190 198t272.5 74zM560 1330
q0 -30 20.5 -50t51.5 -20t51.5 20t20.5 50t-20.5 50t-51.5 20t-51.5 -20t-20.5 -50zM416 1330q0 84 61.5 141t154.5 57t154.5 -57t61.5 -141t-61.5 -141t-154.5 -57t-154.5 57t-61.5 141zM719 1568h-218l205 262h227z" />
    <glyph glyph-name="AEacute" unicode="&#x1fc;" horiz-adv-x="1850" 
d="M268 0h-268l792 1400h930v-204h-596v-390h548v-204h-548v-398h614v-204h-850v338h-437zM890 1132l-325 -590h325v590zM759 1508l272 342h229l-279 -342h-222z" />
    <glyph glyph-name="aeacute" unicode="&#x1fd;" horiz-adv-x="2034" 
d="M1954 444h-853q20 -119 113.5 -195.5t221.5 -76.5q175 0 308 136l156 -144q-173 -188 -458 -188q-139 0 -255.5 53t-188.5 143q-68 -90 -181 -143t-247 -53q-215 0 -357.5 100t-142.5 248q0 92 63.5 167.5t171 118t235.5 42.5q92 0 181.5 -23.5t146.5 -60.5v46
q0 105 -86 177.5t-218 72.5q-89 0 -177 -34t-155 -90l-86 172q87 71 197 109.5t227 38.5q135 0 248.5 -53.5t180.5 -144.5q71 92 183.5 145t243.5 53q154 0 278 -71t192 -190t68 -261q0 -51 -10 -94zM298 324q0 -64 80 -108t204 -44q204 0 284 122v99q-106 83 -284 83
q-124 0 -204 -44t-80 -108zM1426 864q-108 0 -196 -65t-120 -167h615q-27 102 -108 167t-191 65zM838 1184l272 342h229l-279 -342h-222z" />
    <glyph glyph-name="Oslashacute" unicode="&#x1fe;" horiz-adv-x="1652" 
d="M826 1424q205 0 378 -96l104 132h206l-178 -226q112 -100 174 -238t62 -296q0 -201 -98 -367t-269 -261.5t-379 -95.5q-220 0 -398 106l-112 -142h-206l189 240q-104 100 -161.5 233.5t-57.5 286.5q0 201 98 367t269 261.5t379 95.5zM826 184q212 0 359 149t147 367
q0 208 -137 356l-630 -801q120 -71 261 -71zM320 700q0 -197 121 -339l626 794q-111 61 -241 61q-212 0 -359 -149t-147 -367zM659 1508l272 342h229l-279 -342h-222z" />
    <glyph glyph-name="oslashacute" unicode="&#x1ff;" horiz-adv-x="1280" 
d="M996 1096h198l-150 -190q79 -74 122.5 -174.5t43.5 -213.5q0 -149 -73.5 -273.5t-204.5 -196.5t-292 -72q-150 0 -278 65l-80 -101h-198l151 191q-79 75 -122 174.5t-43 212.5q0 149 73.5 273.5t204.5 196.5t292 72q149 0 276 -65zM640 180q142 0 240 98t98 240
q0 120 -73 212l-409 -519q67 -31 144 -31zM302 518q0 -121 71 -211l409 518q-67 31 -142 31q-142 0 -240 -98t-98 -240zM480 1184l272 342h229l-279 -342h-222z" />
    <glyph glyph-name="Scommaaccent" unicode="&#x218;" horiz-adv-x="1188" 
d="M98 202l148 160q73 -80 163 -129t185 -49q123 0 198.5 54t75.5 146q0 86 -68 146.5t-238 95.5q-218 46 -326 150.5t-108 259.5q0 173 127 280.5t329 107.5q277 0 452 -178l-140 -168q-152 138 -302 138q-99 0 -162.5 -45t-63.5 -119q0 -85 69 -140.5t225 -91.5
q239 -55 342.5 -161.5t103.5 -274.5q0 -183 -135 -295.5t-369 -112.5q-148 0 -283 60t-223 166zM590 -470h-205l154 342h229z" />
    <glyph glyph-name="scommaaccent" unicode="&#x219;" horiz-adv-x="942" 
d="M70 148l128 152q50 -58 120 -93t148 -35q82 0 130 33.5t48 90.5q0 56 -44.5 90t-153.5 56q-173 34 -255.5 115t-82.5 211q0 128 99.5 210t264.5 82q104 0 197 -38.5t161 -101.5l-122 -154q-61 49 -111 73.5t-107 24.5q-67 0 -110.5 -27t-43.5 -73q0 -105 184 -142
q182 -37 267 -117t85 -213q0 -139 -105 -227.5t-285 -88.5q-126 0 -235 46t-177 126zM452 -470h-205l154 342h229z" />
    <glyph glyph-name="uni021A" unicode="&#x21a;" horiz-adv-x="1108" 
d="M436 0v1196h-376v204h988v-204h-376v-1196h-236zM530 -470h-205l154 342h229z" />
    <glyph glyph-name="uni021B" unicode="&#x21b;" horiz-adv-x="768" 
d="M444 836v-492q0 -89 42 -128.5t142 -39.5q50 0 90 4v-196q-44 -8 -110 -8q-203 0 -297.5 88t-94.5 278v494h-172v200h172v280l228 20v-300h262v-200h-262zM372 -470h-205l154 342h229z" />
    <glyph glyph-name="dotlessj" unicode="&#x237;" horiz-adv-x="528" 
d="M150 -108v1144h228v-1140q0 -194 -79 -277t-259 -83q-44 0 -80 4v196h52q73 0 105.5 35t32.5 121z" />
    <glyph glyph-name="apostrophe" unicode="&#x2bc;" horiz-adv-x="840" 
d="M284 1342q0 60 41 101t101 41t101 -41t41 -101q0 -31 -16 -66l-136 -294h-144l102 226q-40 15 -65 51t-25 83z" />
    <glyph glyph-name="circumflex" unicode="&#x2c6;" horiz-adv-x="840" 
d="M498 1460l292 -342h-222l-148 170l-148 -170h-222l292 342h156z" />
    <glyph glyph-name="caron" unicode="&#x2c7;" horiz-adv-x="840" 
d="M790 1460l-292 -342h-156l-292 342h222l148 -170l148 170h222z" />
    <glyph glyph-name="uni02C9" unicode="&#x2c9;" horiz-adv-x="840" 
d="M120 1200v176h600v-176h-600z" />
    <glyph glyph-name="breve" unicode="&#x2d8;" horiz-adv-x="840" 
d="M420 1126q-134 0 -232.5 89t-105.5 225h200q1 -63 41 -104.5t97 -41.5t97 41.5t41 104.5h200q-7 -136 -105.5 -225t-232.5 -89z" />
    <glyph glyph-name="dotaccent" unicode="&#x2d9;" horiz-adv-x="840" 
d="M288 1292q0 56 38 94t94 38t94 -38t38 -94t-38 -94t-94 -38t-94 38t-38 94z" />
    <glyph glyph-name="ring" unicode="&#x2da;" horiz-adv-x="840" 
d="M348 1286q0 -30 20.5 -50t51.5 -20t51.5 20t20.5 50t-20.5 50t-51.5 20t-51.5 -20t-20.5 -50zM204 1286q0 84 61.5 141t154.5 57t154.5 -57t61.5 -141t-61.5 -141t-154.5 -57t-154.5 57t-61.5 141z" />
    <glyph glyph-name="ogonek" unicode="&#x2db;" horiz-adv-x="840" 
d="M402 0h164q-158 -131 -158 -222q0 -41 27.5 -67.5t68.5 -26.5q43 0 74 22l50 -118q-69 -46 -164 -46q-98 0 -164 60t-66 148q0 68 45 132.5t123 117.5z" />
    <glyph glyph-name="tilde" unicode="&#x2dc;" horiz-adv-x="840" 
d="M434 1196q-72 40 -104 40q-47 0 -64 -77l-193 39q22 110 69 164t124 54q60 0 140 -46q72 -40 104 -40q47 0 64 77l193 -39q-22 -110 -69 -164t-124 -54q-60 0 -140 46z" />
    <glyph glyph-name="hungarumlaut" unicode="&#x2dd;" horiz-adv-x="840" 
d="M59 1118l272 342h229l-279 -342h-222zM389 1118l272 342h229l-279 -342h-222z" />
    <glyph glyph-name="gravecomb" unicode="&#x300;" horiz-adv-x="0" 
d="M-501 1460l272 -342h-222l-279 342h229z" />
    <glyph glyph-name="acutecomb" unicode="&#x301;" horiz-adv-x="0" 
d="M-611 1118l272 342h229l-279 -342h-222z" />
    <glyph glyph-name="uni0302" unicode="&#x302;" horiz-adv-x="0" 
d="M-342 1460l292 -342h-222l-148 170l-148 -170h-222l292 342h156z" />
    <glyph glyph-name="tildecomb" unicode="&#x303;" horiz-adv-x="0" 
d="M-406 1196q-72 40 -104 40q-47 0 -64 -77l-193 39q22 110 69 164t124 54q60 0 140 -46q72 -40 104 -40q47 0 64 77l193 -39q-22 -110 -69 -164t-124 -54q-60 0 -140 46z" />
    <glyph glyph-name="uni0304" unicode="&#x304;" horiz-adv-x="0" 
d="M-720 1202v176h600v-176h-600z" />
    <glyph glyph-name="uni0306" unicode="&#x306;" horiz-adv-x="0" 
d="M-420 1126q-134 0 -232.5 89t-105.5 225h200q1 -63 41 -104.5t97 -41.5t97 41.5t41 104.5h200q-7 -136 -105.5 -225t-232.5 -89z" />
    <glyph glyph-name="uni0307" unicode="&#x307;" horiz-adv-x="0" 
d="M-552 1292q0 56 38 94t94 38t94 -38t38 -94t-38 -94t-94 -38t-94 38t-38 94z" />
    <glyph glyph-name="uni0308" unicode="&#x308;" horiz-adv-x="0" 
d="M-736 1292q0 56 38 94t94 38t94 -38t38 -94t-38 -94t-94 -38t-94 38t-38 94zM-368 1292q0 56 38 94t94 38t94 -38t38 -94t-38 -94t-94 -38t-94 38t-38 94z" />
    <glyph glyph-name="uni030A" unicode="&#x30a;" horiz-adv-x="0" 
d="M-492 1286q0 -30 20.5 -50t51.5 -20t51.5 20t20.5 50t-20.5 50t-51.5 20t-51.5 -20t-20.5 -50zM-636 1286q0 84 61.5 141t154.5 57t154.5 -57t61.5 -141t-61.5 -141t-154.5 -57t-154.5 57t-61.5 141z" />
    <glyph glyph-name="uni030C" unicode="&#x30c;" horiz-adv-x="0" 
d="M-50 1460l-292 -342h-156l-292 342h222l148 -170l148 170h222z" />
    <glyph glyph-name="uni0327" unicode="&#x327;" horiz-adv-x="0" 
d="M-464 -216q-24 0 -56 -4l-40 44l94 176h174l-68 -104q78 -21 124 -76t46 -124q0 -93 -74.5 -154.5t-187.5 -61.5q-111 0 -186 60l76 108q42 -32 98 -32q44 0 72 24t28 60t-28 60t-72 24z" />
    <glyph glyph-name="tonos" unicode="&#x384;" horiz-adv-x="840" 
d="M448 1088h-205l154 372h229z" />
    <glyph glyph-name="dieresistonos" unicode="&#x385;" horiz-adv-x="840" 
d="M96 1140q0 59 39.5 98.5t100.5 39.5t100.5 -39.5t39.5 -98.5t-39.5 -98.5t-100.5 -39.5t-100.5 39.5t-39.5 98.5zM464 1140q0 59 39.5 98.5t100.5 39.5t100.5 -39.5t39.5 -98.5t-39.5 -98.5t-100.5 -39.5t-100.5 39.5t-39.5 98.5zM507 1314h-218l205 262h227z" />
    <glyph glyph-name="Alphatonos" unicode="&#x386;" horiz-adv-x="1396" 
d="M840 1400l516 -1400h-256l-116 338h-552l-116 -338h-256l516 1400h264zM708 1142l-206 -600h412zM230 1028h-205l154 372h229z" />
    <glyph glyph-name="anoteleia" unicode="&#x387;" horiz-adv-x="600" 
d="M152 650q0 63 42.5 105.5t105.5 42.5t105.5 -42.5t42.5 -105.5t-42.5 -105.5t-105.5 -42.5t-105.5 42.5t-42.5 105.5z" />
    <glyph glyph-name="Epsilontonos" unicode="&#x388;" horiz-adv-x="1466" 
d="M486 0v1400h852v-204h-616v-390h568v-204h-568v-398h634v-204h-870zM230 1028h-205l154 372h229z" />
    <glyph glyph-name="Etatonos" unicode="&#x389;" horiz-adv-x="1734" 
d="M486 0v1400h236v-594h616v594h236v-1400h-236v602h-616v-602h-236zM230 1028h-205l154 372h229z" />
    <glyph glyph-name="Iotatonos" unicode="&#x38a;" horiz-adv-x="892" 
d="M486 1400h236v-1400h-236v1400zM230 1028h-205l154 372h229z" />
    <glyph glyph-name="Omicrontonos" unicode="&#x38c;" horiz-adv-x="1854" 
d="M1028 184q212 0 359 149t147 367t-147 367t-359 149t-359 -149t-147 -367t147 -367t359 -149zM1028 1424q208 0 379 -95.5t269 -261.5t98 -367t-98 -367t-269 -261.5t-379 -95.5t-379 95.5t-269 261.5t-98 367t98 367t269 261.5t379 95.5zM230 1028h-205l154 372h229z
" />
    <glyph glyph-name="Upsilontonos" unicode="&#x38e;" horiz-adv-x="1698" 
d="M698 1400l354 -596l354 596h252l-488 -826v-574h-236v574l-488 826h252zM230 1028h-205l154 372h229z" />
    <glyph glyph-name="Omegatonos" unicode="&#x38f;" horiz-adv-x="1824" 
d="M1406 208h302v-208h-580v200q163 82 259.5 225.5t96.5 310.5q0 201 -137 340.5t-335 139.5t-335 -139.5t-137 -340.5q0 -167 96.5 -310.5t259.5 -225.5v-200h-580v208h302q-154 100 -236 239.5t-82 308.5q0 183 94 336.5t257.5 242.5t360.5 89t360.5 -89t257.5 -242.5
t94 -336.5q0 -169 -82 -308.5t-236 -239.5zM230 1028h-205l154 372h229z" />
    <glyph glyph-name="iotadieresistonos" unicode="&#x390;" horiz-adv-x="552" 
d="M150 234v802h228v-740q0 -96 96 -96h34v-196q-36 -4 -80 -4q-139 0 -208.5 60t-69.5 174zM-62 1274q0 59 39.5 98.5t100.5 39.5t100.5 -39.5t39.5 -98.5t-39.5 -98.5t-100.5 -39.5t-100.5 39.5t-39.5 98.5zM306 1274q0 59 39.5 98.5t100.5 39.5t100.5 -39.5t39.5 -98.5
t-39.5 -98.5t-100.5 -39.5t-100.5 39.5t-39.5 98.5zM349 1448h-218l205 262h227z" />
    <glyph glyph-name="Alpha" unicode="&#x391;" horiz-adv-x="1376" 
d="M820 1400l516 -1400h-256l-116 338h-552l-116 -338h-256l516 1400h264zM688 1142l-206 -600h412z" />
    <glyph glyph-name="Beta" unicode="&#x392;" horiz-adv-x="1246" 
d="M746 0h-586v1400h512q192 0 298 -100.5t106 -277.5q0 -199 -164 -274q104 -28 174 -119t70 -221q0 -183 -110.5 -295.5t-299.5 -112.5zM836 1010q0 90 -49 138t-131 48h-260v-372h260q82 0 131 48t49 138zM916 416q0 98 -52.5 155t-137.5 57h-330v-424h330
q85 0 137.5 57.5t52.5 154.5z" />
    <glyph glyph-name="Gamma" unicode="&#x393;" horiz-adv-x="1032" 
d="M160 0v1400h832v-204h-596v-1196h-236z" />
    <glyph glyph-name="uni0394" unicode="&#x394;" horiz-adv-x="1376" 
d="M820 1400l516 -1400h-1296l516 1400h264zM688 1142l-326 -938h652z" />
    <glyph glyph-name="Epsilon" unicode="&#x395;" horiz-adv-x="1140" 
d="M160 0v1400h852v-204h-616v-390h568v-204h-568v-398h634v-204h-870z" />
    <glyph glyph-name="Zeta" unicode="&#x396;" horiz-adv-x="1214" 
d="M120 204l680 992h-650v204h934v-204l-680 -992h700v-204h-984v204z" />
    <glyph glyph-name="Eta" unicode="&#x397;" horiz-adv-x="1408" 
d="M160 0v1400h236v-594h616v594h236v-1400h-236v602h-616v-602h-236z" />
    <glyph glyph-name="Theta" unicode="&#x398;" horiz-adv-x="1652" 
d="M538 602v196h576v-196h-576zM826 184q212 0 359 149t147 367t-147 367t-359 149t-359 -149t-147 -367t147 -367t359 -149zM826 1424q208 0 379 -95.5t269 -261.5t98 -367t-98 -367t-269 -261.5t-379 -95.5t-379 95.5t-269 261.5t-98 367t98 367t269 261.5t379 95.5z" />
    <glyph glyph-name="Iota" unicode="&#x399;" horiz-adv-x="576" 
d="M170 1400h236v-1400h-236v1400z" />
    <glyph glyph-name="Kappa" unicode="&#x39a;" horiz-adv-x="1216" 
d="M396 1400v-594h85l397 594h268l-466 -692l546 -708h-276l-462 602h-92v-602h-236v1400h236z" />
    <glyph glyph-name="Lambda" unicode="&#x39b;" horiz-adv-x="1376" 
d="M1080 0l-392 1122l-392 -1122h-256l516 1400h264l516 -1400h-256z" />
    <glyph glyph-name="Mu" unicode="&#x39c;" horiz-adv-x="1712" 
d="M930 428h-148l-394 586v-1014h-228v1400h220l476 -712l476 712h220v-1400h-228v1014z" />
    <glyph glyph-name="Nu" unicode="&#x39d;" horiz-adv-x="1408" 
d="M160 0v1400h228l632 -992v992h228v-1400h-228l-632 992v-992h-228z" />
    <glyph glyph-name="Xi" unicode="&#x39e;" horiz-adv-x="1170" 
d="M128 1196v204h914v-204h-914zM110 0v204h950v-204h-950zM974 602h-798v204h798v-204z" />
    <glyph glyph-name="Omicron" unicode="&#x39f;" horiz-adv-x="1652" 
d="M826 184q212 0 359 149t147 367t-147 367t-359 149t-359 -149t-147 -367t147 -367t359 -149zM826 1424q208 0 379 -95.5t269 -261.5t98 -367t-98 -367t-269 -261.5t-379 -95.5t-379 95.5t-269 261.5t-98 367t98 367t269 261.5t379 95.5z" />
    <glyph glyph-name="Pi" unicode="&#x3a0;" horiz-adv-x="1356" 
d="M1196 1400v-1400h-236v1196h-564v-1196h-236v1400h1036z" />
    <glyph glyph-name="Rho" unicode="&#x3a1;" horiz-adv-x="1186" 
d="M632 508h-236v-508h-236v1400h472q225 0 354.5 -121t129.5 -325t-129.5 -325t-354.5 -121zM876 954q0 113 -65.5 177.5t-188.5 64.5h-226v-484h226q123 0 188.5 64.5t65.5 177.5z" />
    <glyph glyph-name="Sigma" unicode="&#x3a3;" horiz-adv-x="1170" 
d="M120 200l382 502l-382 498v200h930v-204h-642l346 -448v-94l-348 -450h644v-204h-930v200z" />
    <glyph glyph-name="Tau" unicode="&#x3a4;" horiz-adv-x="1108" 
d="M436 0v1196h-376v204h988v-204h-376v-1196h-236z" />
    <glyph glyph-name="Upsilon" unicode="&#x3a5;" horiz-adv-x="1292" 
d="M292 1400l354 -596l354 596h252l-488 -826v-574h-236v574l-488 826h252z" />
    <glyph glyph-name="Phi" unicode="&#x3a6;" horiz-adv-x="1536" 
d="M650 0v192q-159 0 -292 66.5t-210.5 183t-77.5 256.5t77.5 256.5t210.5 183t292 66.5v196h236v-196q159 0 292 -66.5t210.5 -183t77.5 -256.5t-77.5 -256.5t-210.5 -183t-292 -66.5v-192h-236zM1226 698q0 125 -99 213.5t-241 88.5v-604q142 0 241 88.5t99 213.5z
M310 698q0 -125 99 -213.5t241 -88.5v604q-142 0 -241 -88.5t-99 -213.5z" />
    <glyph glyph-name="Chi" unicode="&#x3a7;" horiz-adv-x="1272" 
d="M986 0l-350 542l-350 -542h-256l466 712l-448 688h256l332 -518l332 518h256l-448 -688l466 -712h-256z" />
    <glyph glyph-name="Psi" unicode="&#x3a8;" horiz-adv-x="1396" 
d="M816 1400v-865q96 37 155 125.5t59 199.5v540h236v-554q0 -197 -126.5 -344t-323.5 -185v-317h-236v317q-197 38 -323.5 185t-126.5 344v554h236v-540q0 -111 59 -199.5t155 -125.5v865h236z" />
    <glyph glyph-name="uni03A9" unicode="&#x3a9;" horiz-adv-x="1604" 
d="M1196 208h302v-208h-580v200q163 82 259.5 225.5t96.5 310.5q0 201 -137 340.5t-335 139.5t-335 -139.5t-137 -340.5q0 -167 96.5 -310.5t259.5 -225.5v-200h-580v208h302q-154 100 -236 239.5t-82 308.5q0 183 94 336.5t257.5 242.5t360.5 89t360.5 -89t257.5 -242.5
t94 -336.5q0 -169 -82 -308.5t-236 -239.5z" />
    <glyph glyph-name="Iotadieresis" unicode="&#x3aa;" horiz-adv-x="576" 
d="M170 1400h236v-1400h-236v1400zM-28 1664q0 56 38 94t94 38t94 -38t38 -94t-38 -94t-94 -38t-94 38t-38 94zM340 1664q0 56 38 94t94 38t94 -38t38 -94t-38 -94t-94 -38t-94 38t-38 94z" />
    <glyph glyph-name="Upsilondieresis" unicode="&#x3ab;" horiz-adv-x="1292" 
d="M292 1400l354 -596l354 596h252l-488 -826v-574h-236v574l-488 826h252zM330 1664q0 56 38 94t94 38t94 -38t38 -94t-38 -94t-94 -38t-94 38t-38 94zM698 1664q0 56 38 94t94 38t94 -38t38 -94t-38 -94t-94 -38t-94 38t-38 94z" />
    <glyph glyph-name="alphatonos" unicode="&#x3ac;" horiz-adv-x="1386" 
d="M1262 0q-141 0 -208.5 27.5t-91.5 106.5q-135 -158 -362 -158q-150 0 -272.5 74t-190 198t-67.5 270t67.5 270t190 198t272.5 74q208 0 344 -136v112h228v-720q0 -51 33 -83.5t85 -32.5h52v-196q-36 -4 -80 -4zM640 180q100 0 181.5 50.5t122.5 135.5v302
q-41 85 -123 136.5t-181 51.5q-142 0 -240 -98t-98 -240t98 -240t240 -98zM445 1184l272 342h229l-279 -342h-222z" />
    <glyph glyph-name="epsilontonos" unicode="&#x3ad;" horiz-adv-x="954" 
d="M298 318q0 -62 56 -104t140 -42q155 0 244 118l156 -128q-58 -87 -162.5 -136.5t-237.5 -49.5q-180 0 -302 94t-122 232q0 90 58 162t144 98q-75 25 -117.5 84t-42.5 130q0 120 108 202t268 82q131 0 223.5 -49t138.5 -137l-182 -112q-23 47 -70 74.5t-110 27.5
q-64 0 -106 -30.5t-42 -75.5t42 -75.5t106 -30.5h154v-188h-148q-84 0 -140 -42t-56 -104zM285 1184l272 342h229l-279 -342h-222z" />
    <glyph glyph-name="etatonos" unicode="&#x3ae;" horiz-adv-x="1220" 
d="M368 688v-688h-228v1036h228v-120q59 65 141.5 104.5t168.5 39.5q188 0 305 -119t117 -313v-1092h-228v1080q0 106 -66 173t-172 67q-74 0 -147 -49.5t-119 -118.5zM453 1184l272 342h229l-279 -342h-222z" />
    <glyph glyph-name="iotatonos" unicode="&#x3af;" horiz-adv-x="552" 
d="M150 234v802h228v-740q0 -96 96 -96h34v-196q-36 -4 -80 -4q-139 0 -208.5 60t-69.5 174zM110 1184l272 342h229l-279 -342h-222z" />
    <glyph glyph-name="upsilondieresistonos" unicode="&#x3b0;" horiz-adv-x="1148" 
d="M574 -24q-192 0 -323 125t-131 307v628h228v-616q0 -102 65 -171t161 -69t161 69t65 171v616h228v-628q0 -182 -131 -307t-323 -125zM254 1274q0 59 39.5 98.5t100.5 39.5t100.5 -39.5t39.5 -98.5t-39.5 -98.5t-100.5 -39.5t-100.5 39.5t-39.5 98.5zM622 1274
q0 59 39.5 98.5t100.5 39.5t100.5 -39.5t39.5 -98.5t-39.5 -98.5t-100.5 -39.5t-100.5 39.5t-39.5 98.5zM665 1448h-218l205 262h227z" />
    <glyph glyph-name="alpha" unicode="&#x3b1;" horiz-adv-x="1386" 
d="M1262 0q-141 0 -208.5 27.5t-91.5 106.5q-135 -158 -362 -158q-150 0 -272.5 74t-190 198t-67.5 270t67.5 270t190 198t272.5 74q208 0 344 -136v112h228v-720q0 -51 33 -83.5t85 -32.5h52v-196q-36 -4 -80 -4zM640 180q100 0 181.5 50.5t122.5 135.5v302
q-41 85 -123 136.5t-181 51.5q-142 0 -240 -98t-98 -240t98 -240t240 -98z" />
    <glyph glyph-name="beta" unicode="&#x3b2;" horiz-adv-x="1210" 
d="M1010 1046q0 -89 -58.5 -163.5t-157.5 -110.5q139 -22 237.5 -126t98.5 -254q0 -177 -124 -296.5t-304 -119.5q-107 0 -194 46t-122 124v-610h-236v1500q0 169 122.5 278.5t307.5 109.5q184 0 307 -108.5t123 -269.5zM770 1036q0 81 -55.5 134.5t-136.5 53.5
q-82 0 -137 -55.5t-55 -144.5v-572q0 -128 74 -200t188 -72q104 0 173 64.5t69 163.5q0 106 -83 174t-217 68h-48v198q113 0 170.5 53.5t57.5 134.5z" />
    <glyph glyph-name="gamma" unicode="&#x3b3;" horiz-adv-x="1056" 
d="M414 -464v460l-394 1040h236l272 -748l272 748h236l-394 -1040v-460h-228z" />
    <glyph glyph-name="delta" unicode="&#x3b4;" horiz-adv-x="1136" 
d="M302 444q0 -113 78 -190.5t188 -77.5t188 77.5t78 190.5t-78 190.5t-188 77.5t-188 -77.5t-78 -190.5zM508 908l-298 300v192h726v-204h-434l444 -448q57 -57 88.5 -139t31.5 -165q0 -134 -71 -242.5t-185.5 -167t-245.5 -58.5q-127 0 -240 58.5t-183.5 167t-70.5 242.5
q0 93 36 176t96 142.5t139.5 97.5t166.5 48z" />
    <glyph glyph-name="epsilon" unicode="&#x3b5;" horiz-adv-x="954" 
d="M298 318q0 -62 56 -104t140 -42q155 0 244 118l156 -128q-58 -87 -162.5 -136.5t-237.5 -49.5q-180 0 -302 94t-122 232q0 90 58 162t144 98q-75 25 -117.5 84t-42.5 130q0 120 108 202t268 82q131 0 223.5 -49t138.5 -137l-182 -112q-23 47 -70 74.5t-110 27.5
q-64 0 -106 -30.5t-42 -75.5t42 -75.5t106 -30.5h154v-188h-148q-84 0 -140 -42t-56 -104z" />
    <glyph glyph-name="zeta" unicode="&#x3b6;" horiz-adv-x="944" 
d="M70 368q0 95 47.5 185t132.5 193l368 450h-446v204h712v-192l-456 -566q-62 -76 -97 -142t-35 -132q0 -134 168 -210l242 -110q178 -80 178 -264q0 -121 -88 -248h-222q84 112 84 214q0 46 -26.5 83t-69.5 55l-220 96q-131 57 -201.5 157t-70.5 227z" />
    <glyph glyph-name="eta" unicode="&#x3b7;" horiz-adv-x="1220" 
d="M368 688v-688h-228v1036h228v-120q59 65 141.5 104.5t168.5 39.5q188 0 305 -119t117 -313v-1092h-228v1080q0 106 -66 173t-172 67q-74 0 -147 -49.5t-119 -118.5z" />
    <glyph glyph-name="theta" unicode="&#x3b8;" horiz-adv-x="1280" 
d="M70 700q0 197 69 361t200.5 263.5t300.5 99.5t300.5 -99.5t200.5 -263.5t69 -361t-69 -361t-200.5 -263.5t-300.5 -99.5t-300.5 99.5t-200.5 263.5t-69 361zM640 180q133 0 222 120t110 302h-665q21 -182 110.5 -302t222.5 -120zM640 1220q-133 0 -222.5 -120
t-110.5 -302h665q-21 182 -110 302t-222 120z" />
    <glyph glyph-name="iota" unicode="&#x3b9;" horiz-adv-x="552" 
d="M150 234v802h228v-740q0 -96 96 -96h34v-196q-36 -4 -80 -4q-139 0 -208.5 60t-69.5 174z" />
    <glyph glyph-name="kappa" unicode="&#x3ba;" horiz-adv-x="1040" 
d="M780 0l-314 478h-98v-478h-228v1036h228v-362h101l249 362h268l-330 -460l384 -576h-260z" />
    <glyph glyph-name="lambda" unicode="&#x3bb;" horiz-adv-x="1056" 
d="M412 1020l-168 440h236l556 -1460h-236l-276 728l-268 -728h-236z" />
    <glyph glyph-name="uni03BC" unicode="&#x3bc;" horiz-adv-x="1240" 
d="M140 -464v1500h228v-696q22 -71 89 -115.5t149 -44.5q74 0 147 49.5t119 118.5v688h228v-1036h-228v120q-54 -65 -131 -104.5t-159 -39.5q-61 0 -117.5 26.5t-96.5 71.5v-538h-228z" />
    <glyph glyph-name="nu" unicode="&#x3bd;" horiz-adv-x="1056" 
d="M1036 1036l-390 -1036h-236l-390 1036h236l272 -740l272 740h236z" />
    <glyph glyph-name="xi" unicode="&#x3be;" horiz-adv-x="954" 
d="M306 376q0 -175 198 -250l186 -70q95 -36 149.5 -108t54.5 -164q0 -121 -88 -248h-222q84 112 84 214q0 48 -24.5 84t-71.5 54l-176 64q-145 53 -230.5 167.5t-85.5 246.5q0 130 83.5 237t209.5 157q-103 40 -167 126.5t-64 187.5q0 148 115 249t283 101q207 0 332 -138
l-150 -160q-87 110 -182 110q-72 0 -121 -53.5t-49 -134.5t49 -134.5t121 -53.5h226v-188h-184q-118 0 -197 -86t-79 -210z" />
    <glyph glyph-name="omicron" unicode="&#x3bf;" horiz-adv-x="1280" 
d="M640 180q142 0 240 98t98 240t-98 240t-240 98t-240 -98t-98 -240t98 -240t240 -98zM640 1060q161 0 292 -72t204.5 -196.5t73.5 -273.5t-73.5 -273.5t-204.5 -196.5t-292 -72t-292 72t-204.5 196.5t-73.5 273.5t73.5 273.5t204.5 196.5t292 72z" />
    <glyph glyph-name="pi" unicode="&#x3c0;" horiz-adv-x="1152" 
d="M420 832v-832h-228v832h-142v204h1052v-204h-142v-832h-228v832h-312z" />
    <glyph glyph-name="rho" unicode="&#x3c1;" horiz-adv-x="1292" 
d="M120 -464v982q0 150 69 273.5t196 196t287 72.5q159 0 285.5 -72.5t195.5 -196t69 -273.5q0 -146 -67.5 -270t-190 -198t-272.5 -74q-208 0 -344 136v-576h-228zM348 518v-152q41 -85 122.5 -135.5t181.5 -50.5q142 0 240 98t98 240q0 144 -91 241t-229 97
q-140 0 -231 -97t-91 -241z" />
    <glyph glyph-name="sigma1" unicode="&#x3c2;" horiz-adv-x="1080" 
d="M70 518q0 149 73.5 273.5t204.5 196.5t292 72q219 0 380 -132l-118 -178q-131 106 -262 106q-142 0 -240 -98t-98 -240q0 -110 58 -199t168 -139l290 -130q178 -80 178 -266q0 -121 -88 -248h-222q84 112 84 214q0 46 -26.5 83t-69.5 55l-268 118q-154 67 -245 202.5
t-91 309.5z" />
    <glyph glyph-name="sigma" unicode="&#x3c3;" horiz-adv-x="1330" 
d="M70 506q0 146 74 267.5t202 192t282 70.5h652v-204h-242q69 -68 108.5 -157t39.5 -189q0 -138 -74 -255.5t-202.5 -186t-281.5 -68.5q-154 0 -282 70.5t-202 192t-74 267.5zM954 506q0 138 -94 232t-232 94t-232 -94t-94 -232t94 -232t232 -94t232 94t94 232z" />
    <glyph glyph-name="tau" unicode="&#x3c4;" horiz-adv-x="978" 
d="M364 356v476h-320v204h890v-204h-342v-480q0 -86 32.5 -121t105.5 -35h52v-196q-36 -4 -80 -4q-180 0 -259 83t-79 277z" />
    <glyph glyph-name="upsilon" unicode="&#x3c5;" horiz-adv-x="1148" 
d="M574 -24q-192 0 -323 125t-131 307v628h228v-616q0 -102 65 -171t161 -69t161 69t65 171v616h228v-628q0 -182 -131 -307t-323 -125z" />
    <glyph glyph-name="phi" unicode="&#x3c6;" horiz-adv-x="1400" 
d="M266 946l162 -144q-126 -123 -126 -284q0 -128 81 -222t205 -112v876h172q161 0 292 -72t204.5 -196.5t73.5 -273.5q0 -214 -145 -367t-369 -172v-443h-228v443q-225 17 -371.5 170.5t-146.5 368.5q0 131 54 242t142 186zM1098 518q0 127 -80 220t-202 113v-667
q122 20 202 113.5t80 220.5z" />
    <glyph glyph-name="chi" unicode="&#x3c7;" horiz-adv-x="1028" 
d="M1008 1036l-364 -730l384 -770h-244l-270 550l-270 -550h-244l384 770l-364 730h244l250 -512l250 512h244z" />
    <glyph glyph-name="psi" unicode="&#x3c8;" horiz-adv-x="1376" 
d="M804 1036v-838q99 32 159.5 112.5t60.5 185.5v540h232v-550q0 -187 -127 -326t-325 -174v-450h-232v450q-198 35 -325 174t-127 326v550h232v-540q0 -105 60.5 -185.5t159.5 -112.5v838h232z" />
    <glyph glyph-name="omega" unicode="&#x3c9;" horiz-adv-x="1600" 
d="M914 818v-310q0 -140 55 -234t137 -94t137 94t55 234q0 230 -174 528h228q36 -59 61 -106t55 -117.5t46 -148t16 -156.5q0 -148 -53.5 -270t-147.5 -192t-207 -70q-107 0 -192 62.5t-130 159.5q-45 -97 -130 -159.5t-192 -62.5q-113 0 -207 70t-147.5 192t-53.5 270
q0 79 16 156.5t46 148t55 117.5t61 106h228q-174 -298 -174 -528q0 -140 55 -234t137 -94t137 94t55 234v310h228z" />
    <glyph glyph-name="iotadieresis" unicode="&#x3ca;" horiz-adv-x="552" 
d="M150 234v802h228v-740q0 -96 96 -96h34v-196q-36 -4 -80 -4q-139 0 -208.5 60t-69.5 174zM-52 1340q0 56 38 94t94 38t94 -38t38 -94t-38 -94t-94 -38t-94 38t-38 94zM316 1340q0 56 38 94t94 38t94 -38t38 -94t-38 -94t-94 -38t-94 38t-38 94z" />
    <glyph glyph-name="upsilondieresis" unicode="&#x3cb;" horiz-adv-x="1148" 
d="M258 1340q0 56 38 94t94 38t94 -38t38 -94t-38 -94t-94 -38t-94 38t-38 94zM626 1340q0 56 38 94t94 38t94 -38t38 -94t-38 -94t-94 -38t-94 38t-38 94zM574 -24q-192 0 -323 125t-131 307v628h228v-616q0 -102 65 -171t161 -69t161 69t65 171v616h228v-628
q0 -182 -131 -307t-323 -125z" />
    <glyph glyph-name="omicrontonos" unicode="&#x3cc;" horiz-adv-x="1280" 
d="M640 180q142 0 240 98t98 240t-98 240t-240 98t-240 -98t-98 -240t98 -240t240 -98zM640 1060q161 0 292 -72t204.5 -196.5t73.5 -273.5t-73.5 -273.5t-204.5 -196.5t-292 -72t-292 72t-204.5 196.5t-73.5 273.5t73.5 273.5t204.5 196.5t292 72zM480 1184l272 342h229
l-279 -342h-222z" />
    <glyph glyph-name="upsilontonos" unicode="&#x3cd;" horiz-adv-x="1148" 
d="M574 -24q-192 0 -323 125t-131 307v628h228v-616q0 -102 65 -171t161 -69t161 69t65 171v616h228v-628q0 -182 -131 -307t-323 -125zM403 1184l272 342h229l-279 -342h-222z" />
    <glyph glyph-name="omegatonos" unicode="&#x3ce;" horiz-adv-x="1600" 
d="M914 818v-310q0 -140 55 -234t137 -94t137 94t55 234q0 230 -174 528h228q36 -59 61 -106t55 -117.5t46 -148t16 -156.5q0 -148 -53.5 -270t-147.5 -192t-207 -70q-107 0 -192 62.5t-130 159.5q-45 -97 -130 -159.5t-192 -62.5q-113 0 -207 70t-147.5 192t-53.5 270
q0 79 16 156.5t46 148t55 117.5t61 106h228q-174 -298 -174 -528q0 -140 55 -234t137 -94t137 94t55 234v310h228zM651 1184l272 342h229l-279 -342h-222z" />
    <glyph glyph-name="uni0400" unicode="&#x400;" horiz-adv-x="1140" 
d="M160 0v1400h852v-204h-616v-390h568v-204h-568v-398h634v-204h-870zM463 1850l272 -342h-222l-279 342h229z" />
    <glyph glyph-name="afii10023" unicode="&#x401;" horiz-adv-x="1140" 
d="M160 0v1400h852v-204h-616v-390h568v-204h-568v-398h634v-204h-870zM272 1664q0 56 38 94t94 38t94 -38t38 -94t-38 -94t-94 -38t-94 38t-38 94zM640 1664q0 56 38 94t94 38t94 -38t38 -94t-38 -94t-94 -38t-94 38t-38 94z" />
    <glyph glyph-name="afii10051" unicode="&#x402;" horiz-adv-x="1436" 
d="M1366 498v-106q0 -167 -117.5 -281.5t-288.5 -114.5q-44 0 -80 4v196h52q84 0 141 58.5t57 145.5v86q0 89 -60 149.5t-148 60.5q-173 0 -250 -148v-548h-236v1196h-376v204h988v-204h-376v-416q51 57 125.5 88.5t158.5 31.5q173 0 291.5 -116.5t118.5 -285.5z" />
    <glyph glyph-name="afii10052" unicode="&#x403;" horiz-adv-x="1032" 
d="M160 0v1400h832v-204h-596v-1196h-236zM361 1508l272 342h229l-279 -342h-222z" />
    <glyph glyph-name="afii10053" unicode="&#x404;" horiz-adv-x="1382" 
d="M1312 1256l-124 -176q-171 136 -362 136q-185 0 -323.5 -116.5t-173.5 -297.5h687v-204h-687q35 -182 173.5 -298t323.5 -116q98 0 178 32t174 94l118 -178q-206 -156 -470 -156q-208 0 -379 95.5t-269 261.5t-98 367t98 367t269 261.5t379 95.5q280 0 486 -168z" />
    <glyph glyph-name="afii10054" unicode="&#x405;" horiz-adv-x="1188" 
d="M98 202l148 160q73 -80 163 -129t185 -49q123 0 198.5 54t75.5 146q0 86 -68 146.5t-238 95.5q-218 46 -326 150.5t-108 259.5q0 173 127 280.5t329 107.5q277 0 452 -178l-140 -168q-152 138 -302 138q-99 0 -162.5 -45t-63.5 -119q0 -85 69 -140.5t225 -91.5
q239 -55 342.5 -161.5t103.5 -274.5q0 -183 -135 -295.5t-369 -112.5q-148 0 -283 60t-223 166z" />
    <glyph glyph-name="afii10055" unicode="&#x406;" horiz-adv-x="576" 
d="M170 1400h236v-1400h-236v1400z" />
    <glyph glyph-name="afii10056" unicode="&#x407;" horiz-adv-x="576" 
d="M170 1400h236v-1400h-236v1400zM-28 1664q0 56 38 94t94 38t94 -38t38 -94t-38 -94t-94 -38t-94 38t-38 94zM340 1664q0 56 38 94t94 38t94 -38t38 -94t-38 -94t-94 -38t-94 38t-38 94z" />
    <glyph glyph-name="afii10057" unicode="&#x408;" horiz-adv-x="924" 
d="M538 446v954h236v-954q0 -243 -114 -356.5t-340 -113.5q-73 0 -150 18.5t-130 49.5l76 198q98 -58 200 -58q110 0 166 62t56 200z" />
    <glyph glyph-name="afii10058" unicode="&#x409;" horiz-adv-x="2004" 
d="M1214 1400v-508h236q225 0 354.5 -121t129.5 -325t-129.5 -325t-354.5 -121h-472v1196h-508v-840q0 -192 -84.5 -276t-265.5 -84q-44 0 -80 4v200h56q73 0 105.5 35t32.5 121v1044h980zM1694 446q0 113 -65.5 177.5t-188.5 64.5h-226v-484h226q123 0 188.5 64.5
t65.5 177.5z" />
    <glyph glyph-name="afii10059" unicode="&#x40a;" horiz-adv-x="2018" 
d="M1228 1400v-508h236q225 0 354.5 -121t129.5 -325t-129.5 -325t-354.5 -121h-472v602h-596v-602h-236v1400h236v-594h596v594h236zM1708 446q0 113 -65.5 177.5t-188.5 64.5h-226v-484h226q123 0 188.5 64.5t65.5 177.5z" />
    <glyph glyph-name="afii10060" unicode="&#x40b;" horiz-adv-x="1486" 
d="M1366 498v-498h-236v486q0 89 -60 149.5t-148 60.5q-173 0 -250 -148v-548h-236v1196h-376v204h988v-204h-376v-416q51 57 125.5 88.5t158.5 31.5q173 0 291.5 -116.5t118.5 -285.5z" />
    <glyph glyph-name="afii10061" unicode="&#x40c;" horiz-adv-x="1216" 
d="M396 1400v-594h85l397 594h268l-466 -692l546 -708h-276l-462 602h-92v-602h-236v1400h236zM421 1508l272 342h229l-279 -342h-222z" />
    <glyph glyph-name="uni040D" unicode="&#x40d;" horiz-adv-x="1408" 
d="M1248 1400v-1400h-228v992l-632 -992h-228v1400h228v-992l632 992h228zM593 1850l272 -342h-222l-279 342h229z" />
    <glyph glyph-name="afii10062" unicode="&#x40e;" horiz-adv-x="1292" 
d="M1252 1400l-580 -1198q-98 -202 -304 -202h-166v204h132q90 0 136 92l58 118l-488 986h246l364 -752l356 752h246zM650 1488q-134 0 -232.5 89t-105.5 225h200q1 -63 41 -104.5t97 -41.5t97 41.5t41 104.5h200q-7 -136 -105.5 -225t-232.5 -89z" />
    <glyph glyph-name="afii10145" unicode="&#x40f;" horiz-adv-x="1356" 
d="M960 204v1196h236v-1400h-400v-280h-236v280h-400v1400h236v-1196h564z" />
    <glyph glyph-name="afii10017" unicode="&#x410;" horiz-adv-x="1376" 
d="M820 1400l516 -1400h-256l-116 338h-552l-116 -338h-256l516 1400h264zM688 1142l-206 -600h412z" />
    <glyph glyph-name="afii10018" unicode="&#x411;" horiz-adv-x="1196" 
d="M396 892h236q225 0 354.5 -121t129.5 -325t-129.5 -325t-354.5 -121h-472v1400h846v-204h-610v-304zM876 446q0 113 -65.5 177.5t-188.5 64.5h-226v-484h226q123 0 188.5 64.5t65.5 177.5z" />
    <glyph glyph-name="afii10019" unicode="&#x412;" horiz-adv-x="1246" 
d="M746 0h-586v1400h512q192 0 298 -100.5t106 -277.5q0 -199 -164 -274q104 -28 174 -119t70 -221q0 -183 -110.5 -295.5t-299.5 -112.5zM836 1010q0 90 -49 138t-131 48h-260v-372h260q82 0 131 48t49 138zM916 416q0 98 -52.5 155t-137.5 57h-330v-424h330
q85 0 137.5 57.5t52.5 154.5z" />
    <glyph glyph-name="afii10020" unicode="&#x413;" horiz-adv-x="1032" 
d="M160 0v1400h832v-204h-596v-1196h-236z" />
    <glyph glyph-name="afii10021" unicode="&#x414;" horiz-adv-x="1330" 
d="M1270 204v-484h-236v280h-738v-280h-236v484h106q174 401 174 1036v160h810v-1196h120zM414 204h500v992h-342q0 -258 -41 -522.5t-117 -469.5z" />
    <glyph glyph-name="afii10022" unicode="&#x415;" horiz-adv-x="1140" 
d="M160 0v1400h852v-204h-616v-390h568v-204h-568v-398h634v-204h-870z" />
    <glyph glyph-name="afii10024" unicode="&#x416;" horiz-adv-x="1796" 
d="M338 1400l380 -594h62v594h236v-594h62l380 594h268l-446 -692l526 -708h-276l-444 602h-70v-602h-236v602h-70l-444 -602h-276l526 708l-446 692h268z" />
    <glyph glyph-name="afii10025" unicode="&#x417;" horiz-adv-x="1068" 
d="M258 1120l-140 142q139 162 382 162q183 0 299.5 -107t116.5 -267q0 -91 -53 -166t-139 -112q119 -44 191.5 -139t72.5 -215q0 -187 -140.5 -314.5t-347.5 -127.5q-137 0 -253 61t-187 167l148 148q120 -176 292 -176q109 0 182.5 71t73.5 175q0 108 -80 177t-216 69
h-140v192h140q105 0 168.5 51.5t63.5 132.5q0 78 -61 129t-151 51q-128 0 -222 -104z" />
    <glyph glyph-name="afii10026" unicode="&#x418;" horiz-adv-x="1408" 
d="M1248 1400v-1400h-228v992l-632 -992h-228v1400h228v-992l632 992h228z" />
    <glyph glyph-name="afii10027" unicode="&#x419;" horiz-adv-x="1408" 
d="M704 1488q-134 0 -232.5 89t-105.5 225h200q1 -63 41 -104.5t97 -41.5t97 41.5t41 104.5h200q-7 -136 -105.5 -225t-232.5 -89zM1248 1400v-1400h-228v992l-632 -992h-228v1400h228v-992l632 992h228z" />
    <glyph glyph-name="afii10028" unicode="&#x41a;" horiz-adv-x="1216" 
d="M396 1400v-594h85l397 594h268l-466 -692l546 -708h-276l-462 602h-92v-602h-236v1400h236z" />
    <glyph glyph-name="afii10029" unicode="&#x41b;" horiz-adv-x="1410" 
d="M1250 1400v-1400h-236v1196h-544v-840q0 -192 -84.5 -276t-265.5 -84q-44 0 -80 4v200h56q73 0 105.5 35t32.5 121v1044h1016z" />
    <glyph glyph-name="afii10030" unicode="&#x41c;" horiz-adv-x="1712" 
d="M930 428h-148l-394 586v-1014h-228v1400h220l476 -712l476 712h220v-1400h-228v1014z" />
    <glyph glyph-name="afii10031" unicode="&#x41d;" horiz-adv-x="1408" 
d="M160 0v1400h236v-594h616v594h236v-1400h-236v602h-616v-602h-236z" />
    <glyph glyph-name="afii10032" unicode="&#x41e;" horiz-adv-x="1652" 
d="M826 184q212 0 359 149t147 367t-147 367t-359 149t-359 -149t-147 -367t147 -367t359 -149zM826 1424q208 0 379 -95.5t269 -261.5t98 -367t-98 -367t-269 -261.5t-379 -95.5t-379 95.5t-269 261.5t-98 367t98 367t269 261.5t379 95.5z" />
    <glyph glyph-name="afii10033" unicode="&#x41f;" horiz-adv-x="1356" 
d="M1196 1400v-1400h-236v1196h-564v-1196h-236v1400h1036z" />
    <glyph glyph-name="afii10034" unicode="&#x420;" horiz-adv-x="1186" 
d="M632 508h-236v-508h-236v1400h472q225 0 354.5 -121t129.5 -325t-129.5 -325t-354.5 -121zM876 954q0 113 -65.5 177.5t-188.5 64.5h-226v-484h226q123 0 188.5 64.5t65.5 177.5z" />
    <glyph glyph-name="afii10035" unicode="&#x421;" horiz-adv-x="1382" 
d="M1188 320l124 -176q-206 -168 -486 -168q-208 0 -379 95.5t-269 261.5t-98 367t98 367t269 261.5t379 95.5q264 0 470 -156l-118 -178q-94 62 -174 94t-178 32q-212 0 -359 -149t-147 -367t147 -367t359 -149q191 0 362 136z" />
    <glyph glyph-name="afii10036" unicode="&#x422;" horiz-adv-x="1108" 
d="M436 0v1196h-376v204h988v-204h-376v-1196h-236z" />
    <glyph glyph-name="afii10037" unicode="&#x423;" horiz-adv-x="1292" 
d="M1252 1400l-580 -1198q-98 -202 -304 -202h-166v204h132q90 0 136 92l58 118l-488 986h246l364 -752l356 752h246z" />
    <glyph glyph-name="afii10038" unicode="&#x424;" horiz-adv-x="1536" 
d="M650 0v192q-159 0 -292 66.5t-210.5 183t-77.5 256.5t77.5 256.5t210.5 183t292 66.5v196h236v-196q159 0 292 -66.5t210.5 -183t77.5 -256.5t-77.5 -256.5t-210.5 -183t-292 -66.5v-192h-236zM1226 698q0 125 -99 213.5t-241 88.5v-604q142 0 241 88.5t99 213.5z
M310 698q0 -125 99 -213.5t241 -88.5v604q-142 0 -241 -88.5t-99 -213.5z" />
    <glyph glyph-name="afii10039" unicode="&#x425;" horiz-adv-x="1272" 
d="M986 0l-350 542l-350 -542h-256l466 712l-448 688h256l332 -518l332 518h256l-448 -688l466 -712h-256z" />
    <glyph glyph-name="afii10040" unicode="&#x426;" horiz-adv-x="1376" 
d="M1080 0h-920v1400h236v-1196h564v1196h236v-1196h120v-484h-236v280z" />
    <glyph glyph-name="afii10041" unicode="&#x427;" horiz-adv-x="1250" 
d="M120 922v478h236v-466q0 -98 65.5 -164t162.5 -66q87 0 160 44t110 114v538h236v-1400h-236v630q-51 -58 -135 -94t-169 -36q-182 0 -306 122t-124 300z" />
    <glyph glyph-name="afii10042" unicode="&#x428;" horiz-adv-x="1952" 
d="M1556 204v1196h236v-1400h-1632v1400h236v-1196h462v1196h236v-1196h462z" />
    <glyph glyph-name="afii10043" unicode="&#x429;" horiz-adv-x="1972" 
d="M1676 0h-1516v1400h236v-1196h462v1196h236v-1196h462v1196h236v-1196h120v-484h-236v280z" />
    <glyph glyph-name="afii10044" unicode="&#x42a;" horiz-adv-x="1426" 
d="M636 892h236q225 0 354.5 -121t129.5 -325t-129.5 -325t-354.5 -121h-472v1196h-340v204h576v-508zM1116 446q0 113 -65.5 177.5t-188.5 64.5h-226v-484h226q123 0 188.5 64.5t65.5 177.5z" />
    <glyph glyph-name="afii10045" unicode="&#x42b;" horiz-adv-x="1666" 
d="M160 1400h236v-508h236q225 0 354.5 -121t129.5 -325t-129.5 -325t-354.5 -121h-472v1400zM876 446q0 113 -65.5 177.5t-188.5 64.5h-226v-484h226q123 0 188.5 64.5t65.5 177.5zM1270 1400h236v-1400h-236v1400z" />
    <glyph glyph-name="afii10046" unicode="&#x42c;" horiz-adv-x="1186" 
d="M160 1400h236v-508h236q225 0 354.5 -121t129.5 -325t-129.5 -325t-354.5 -121h-472v1400zM876 446q0 113 -65.5 177.5t-188.5 64.5h-226v-484h226q123 0 188.5 64.5t65.5 177.5z" />
    <glyph glyph-name="afii10047" unicode="&#x42d;" horiz-adv-x="1382" 
d="M194 1080l-124 176q206 168 486 168q208 0 379 -95.5t269 -261.5t98 -367t-98 -367t-269 -261.5t-379 -95.5q-264 0 -470 156l118 178q94 -62 174 -94t178 -32q185 0 323.5 116.5t172.5 297.5h-686v204h686q-34 181 -172.5 297.5t-323.5 116.5q-191 0 -362 -136z" />
    <glyph glyph-name="afii10048" unicode="&#x42e;" horiz-adv-x="2142" 
d="M396 602v-602h-236v1400h236v-594h181q25 176 127 317t262.5 221t349.5 80q208 0 379 -95.5t269 -261.5t98 -367t-98 -367t-269 -261.5t-379 -95.5q-191 0 -352 81t-262.5 224t-125.5 321h-180zM1316 184q212 0 359 149t147 367t-147 367t-359 149t-359 -149t-147 -367
t147 -367t359 -149z" />
    <glyph glyph-name="afii10049" unicode="&#x42f;" horiz-adv-x="1214" 
d="M582 1400h472v-1400h-236v508h-139l-349 -508h-260l362 524q-158 38 -246 151t-88 279q0 204 129.5 325t354.5 121zM818 1196h-226q-123 0 -188.5 -64.5t-65.5 -177.5t65.5 -177.5t188.5 -64.5h226v484z" />
    <glyph glyph-name="afii10065" unicode="&#x430;" horiz-adv-x="1312" 
d="M640 180q100 0 181.5 50.5t122.5 135.5v302q-41 85 -123 136.5t-181 51.5q-142 0 -240 -98t-98 -240t98 -240t240 -98zM600 1060q208 0 344 -136v112h228v-1036h-228v112q-136 -136 -344 -136q-150 0 -272.5 74t-190 198t-67.5 270t67.5 270t190 198t272.5 74z" />
    <glyph glyph-name="afii10066" unicode="&#x431;" horiz-adv-x="1228" 
d="M338 822q63 62 150 98t182 36q205 0 346.5 -142t141.5 -348q0 -213 -150 -351.5t-384 -138.5q-114 0 -210.5 38.5t-169 111.5t-113.5 188t-41 260q0 237 42 396.5t139 264.5t244 156.5t369 68.5l32 -204q-166 -15 -270 -43t-169.5 -81t-95 -124.5t-43.5 -185.5zM322 574
q0 -191 84 -292.5t218 -101.5q131 0 216.5 82t85.5 204q0 121 -84 203.5t-208 82.5q-95 0 -175 -48.5t-137 -129.5z" />
    <glyph glyph-name="afii10067" unicode="&#x432;" horiz-adv-x="1040" 
d="M596 0h-456v1036h424q144 0 241 -80t97 -198q0 -70 -39.5 -128t-102.5 -84q81 -19 135.5 -90.5t54.5 -157.5q0 -126 -102 -212t-252 -86zM584 438h-216v-242h216q60 0 99 34.5t39 85.5t-39.5 86.5t-98.5 35.5zM368 626h180q55 0 90.5 30.5t35.5 77.5q0 46 -36 76t-90 30
h-180v-214z" />
    <glyph glyph-name="afii10068" unicode="&#x433;" horiz-adv-x="828" 
d="M784 832h-416v-832h-228v1036h644v-204z" />
    <glyph glyph-name="afii10069" unicode="&#x434;" horiz-adv-x="1110" 
d="M1066 200v-412h-228v212h-566v-212h-228v412h108q78 164 111 369t33 467h642v-836h128zM394 200h320v636h-202q0 -153 -31.5 -326.5t-86.5 -309.5z" />
    <glyph glyph-name="afii10070" unicode="&#x435;" horiz-adv-x="1236" 
d="M1156 444h-853q20 -119 113.5 -195.5t221.5 -76.5q175 0 308 136l156 -144q-173 -188 -458 -188q-126 0 -234 42.5t-182 115.5t-116 172.5t-42 211.5t42.5 212t116 172.5t177.5 115t222 42.5q154 0 278 -71t192 -190t68 -261q0 -51 -10 -94zM628 864q-108 0 -196 -65
t-120 -167h615q-27 102 -108 167t-191 65z" />
    <glyph glyph-name="afii10072" unicode="&#x436;" horiz-adv-x="1572" 
d="M1312 0l-312 458h-100v-458h-228v458h-102l-310 -458h-260l384 556l-330 480h268l250 -382h100v382h228v-382h98l252 382h268l-330 -480l384 -556h-260z" />
    <glyph glyph-name="afii10073" unicode="&#x437;" horiz-adv-x="978" 
d="M660 318q0 62 -56 104t-140 42h-148v188h154q64 0 106 30.5t42 75.5t-42 75.5t-106 30.5q-63 0 -110 -27.5t-70 -74.5l-182 112q46 88 138.5 137t223.5 49q160 0 268 -82t108 -202q0 -71 -42.5 -130t-117.5 -84q86 -26 144 -98t58 -162q0 -138 -122 -232t-302 -94
q-133 0 -237.5 49.5t-162.5 136.5l156 128q89 -118 244 -118q84 0 140 42t56 104z" />
    <glyph glyph-name="afii10074" unicode="&#x438;" horiz-adv-x="1240" 
d="M1100 1036v-1036h-220v718l-524 -718h-216v1036h220v-718l524 718h216z" />
    <glyph glyph-name="afii10075" unicode="&#x439;" horiz-adv-x="1240" 
d="M620 1164q-134 0 -232.5 89t-105.5 225h200q1 -63 41 -104.5t97 -41.5t97 41.5t41 104.5h200q-7 -136 -105.5 -225t-232.5 -89zM1100 1036v-1036h-220v718l-524 -718h-216v1036h220v-718l524 718h216z" />
    <glyph glyph-name="afii10076" unicode="&#x43a;" horiz-adv-x="1040" 
d="M780 0l-314 478h-98v-478h-228v1036h228v-362h101l249 362h268l-330 -460l384 -576h-260z" />
    <glyph glyph-name="afii10077" unicode="&#x43b;" horiz-adv-x="1234" 
d="M1094 1036v-1036h-228v832h-420v-528q0 -132 -88 -222t-218 -90q-56 0 -96 8v202h50q54 0 89 34t35 88v712h876z" />
    <glyph glyph-name="afii10078" unicode="&#x43c;" horiz-adv-x="1362" 
d="M350 1036l330 -510l332 510h210v-1036h-220v690l-254 -382h-134l-254 382v-690h-220v1036h210z" />
    <glyph glyph-name="afii10079" unicode="&#x43d;" horiz-adv-x="1240" 
d="M1100 1036v-1036h-228v434h-504v-434h-228v1036h228v-398h504v398h228z" />
    <glyph glyph-name="afii10080" unicode="&#x43e;" horiz-adv-x="1280" 
d="M640 180q142 0 240 98t98 240t-98 240t-240 98t-240 -98t-98 -240t98 -240t240 -98zM640 1060q161 0 292 -72t204.5 -196.5t73.5 -273.5t-73.5 -273.5t-204.5 -196.5t-292 -72t-292 72t-204.5 196.5t-73.5 273.5t73.5 273.5t204.5 196.5t292 72z" />
    <glyph glyph-name="afii10081" unicode="&#x43f;" horiz-adv-x="1240" 
d="M1100 1036v-1036h-228v832h-504v-832h-228v1036h960z" />
    <glyph glyph-name="afii10082" unicode="&#x440;" horiz-adv-x="1312" 
d="M672 180q142 0 240 98t98 240t-98 240t-240 98q-99 0 -181 -51.5t-123 -136.5v-302q41 -85 122.5 -135.5t181.5 -50.5zM712 1060q150 0 272.5 -74t190 -198t67.5 -270t-67.5 -270t-190 -198t-272.5 -74q-208 0 -344 136v-576h-228v1500h228v-112q136 136 344 136z" />
    <glyph glyph-name="afii10083" unicode="&#x441;" horiz-adv-x="1104" 
d="M640 -24q-161 0 -292 72t-204.5 196.5t-73.5 273.5t73.5 273.5t204.5 196.5t292 72q219 0 380 -132l-118 -178q-131 106 -262 106q-142 0 -240 -98t-98 -240t98 -240t240 -98q144 0 266 112l134 -166q-163 -150 -400 -150z" />
    <glyph glyph-name="afii10084" unicode="&#x442;" horiz-adv-x="948" 
d="M360 832h-316v204h860v-204h-316v-832h-228v832z" />
    <glyph glyph-name="afii10085" unicode="&#x443;" horiz-adv-x="1056" 
d="M234 -464l176 464l-390 1036h236l270 -748l274 748h236l-566 -1500h-236z" />
    <glyph glyph-name="afii10086" unicode="&#x444;" horiz-adv-x="2116" 
d="M1476 180q142 0 240 98t98 240t-98 240t-240 98q-99 0 -181 -51.5t-123 -136.5v-302q41 -85 122.5 -135.5t181.5 -50.5zM640 180q100 0 181.5 50.5t122.5 135.5v302q-41 85 -123 136.5t-181 51.5q-142 0 -240 -98t-98 -240t98 -240t240 -98zM944 924v536h228v-536
q136 136 344 136q150 0 272.5 -74t190 -198t67.5 -270t-67.5 -270t-190 -198t-272.5 -74q-208 0 -344 136v-576h-228v576q-136 -136 -344 -136q-150 0 -272.5 74t-190 198t-67.5 270t67.5 270t190 198t272.5 74q208 0 344 -136z" />
    <glyph glyph-name="afii10087" unicode="&#x445;" horiz-adv-x="1056" 
d="M784 0l-256 376l-256 -376h-252l364 528l-338 508h252l230 -356l230 356h252l-338 -508l364 -528h-252z" />
    <glyph glyph-name="afii10088" unicode="&#x446;" horiz-adv-x="1264" 
d="M1100 1036v-832h120v-484h-228v280h-852v1036h228v-832h504v832h228z" />
    <glyph glyph-name="afii10089" unicode="&#x447;" horiz-adv-x="1110" 
d="M742 0v416q-49 -61 -118.5 -94.5t-151.5 -33.5q-161 0 -271.5 113.5t-110.5 278.5v356h228v-344q0 -86 56.5 -143t141.5 -57q77 0 134 41t92 107v396h228v-1036h-228z" />
    <glyph glyph-name="afii10090" unicode="&#x448;" horiz-adv-x="1588" 
d="M1448 1036v-1036h-1308v1036h228v-832h312v832h228v-832h312v832h228z" />
    <glyph glyph-name="afii10091" unicode="&#x449;" horiz-adv-x="1612" 
d="M1340 0h-1200v1036h228v-832h312v832h228v-832h312v832h228v-832h120v-484h-228v280z" />
    <glyph glyph-name="afii10092" unicode="&#x44a;" horiz-adv-x="1204" 
d="M764 0h-436v840h-284v196h512v-324h208q161 0 270.5 -103.5t109.5 -252.5t-109.5 -252.5t-270.5 -103.5zM916 356q0 69 -49.5 114.5t-122.5 45.5h-188v-320h188q73 0 122.5 45.5t49.5 114.5z" />
    <glyph glyph-name="afii10093" unicode="&#x44b;" horiz-adv-x="1448" 
d="M576 0h-436v1036h228v-324h208q161 0 270.5 -103.5t109.5 -252.5t-109.5 -252.5t-270.5 -103.5zM728 356q0 69 -49.5 114.5t-122.5 45.5h-188v-320h188q73 0 122.5 45.5t49.5 114.5zM1080 0v1036h228v-1036h-228z" />
    <glyph glyph-name="afii10094" unicode="&#x44c;" horiz-adv-x="1016" 
d="M576 0h-436v1036h228v-324h208q161 0 270.5 -103.5t109.5 -252.5t-109.5 -252.5t-270.5 -103.5zM728 356q0 69 -49.5 114.5t-122.5 45.5h-188v-320h188q73 0 122.5 45.5t49.5 114.5z" />
    <glyph glyph-name="afii10095" unicode="&#x44d;" horiz-adv-x="1104" 
d="M464 -24q-237 0 -400 150l134 166q122 -112 266 -112q116 0 205.5 67.5t119.5 174.5h-459v188h460q-30 109 -119.5 177.5t-206.5 68.5q-131 0 -262 -106l-118 178q161 132 380 132q161 0 292 -72t204.5 -196.5t73.5 -273.5t-73.5 -273.5t-204.5 -196.5t-292 -72z" />
    <glyph glyph-name="afii10096" unicode="&#x44e;" horiz-adv-x="1710" 
d="M1070 1060q161 0 292 -72t204.5 -196.5t73.5 -273.5t-73.5 -273.5t-204.5 -196.5t-292 -72q-216 0 -370.5 124.5t-190.5 317.5h-141v-418h-228v1036h228v-414h142q37 191 191 314.5t369 123.5zM1070 180q142 0 240 98t98 240t-98 240t-240 98t-240 -98t-98 -240t98 -240
t240 -98z" />
    <glyph glyph-name="afii10097" unicode="&#x44f;" horiz-adv-x="1102" 
d="M90 696q0 144 113 242t279 98h480v-1036h-228v356h-139l-281 -356h-250l295 372q-121 33 -195 121t-74 203zM734 840h-244q-74 0 -123 -40.5t-49 -103.5t49 -103.5t123 -40.5h244v288z" />
    <glyph glyph-name="uni0450" unicode="&#x450;" horiz-adv-x="1236" 
d="M1156 444h-853q20 -119 113.5 -195.5t221.5 -76.5q175 0 308 136l156 -144q-173 -188 -458 -188q-126 0 -234 42.5t-182 115.5t-116 172.5t-42 211.5t42.5 212t116 172.5t177.5 115t222 42.5q154 0 278 -71t192 -190t68 -261q0 -51 -10 -94zM628 864q-108 0 -196 -65
t-120 -167h615q-27 102 -108 167t-191 65zM531 1526l272 -342h-222l-279 342h229z" />
    <glyph glyph-name="afii10071" unicode="&#x451;" horiz-adv-x="1236" 
d="M1156 444h-853q20 -119 113.5 -195.5t221.5 -76.5q175 0 308 136l156 -144q-173 -188 -458 -188q-126 0 -234 42.5t-182 115.5t-116 172.5t-42 211.5t42.5 212t116 172.5t177.5 115t222 42.5q154 0 278 -71t192 -190t68 -261q0 -51 -10 -94zM628 864q-108 0 -196 -65
t-120 -167h615q-27 102 -108 167t-191 65zM302 1340q0 56 38 94t94 38t94 -38t38 -94t-38 -94t-94 -38t-94 38t-38 94zM670 1340q0 56 38 94t94 38t94 -38t38 -94t-38 -94t-94 -38t-94 38t-38 94z" />
    <glyph glyph-name="afii10099" unicode="&#x452;" horiz-adv-x="1240" 
d="M20 1160v152h140v148h228v-148h322v-152h-322v-244q59 65 141.5 104.5t168.5 39.5q188 0 305 -119t117 -313v-726q0 -190 -94.5 -278t-297.5 -88q-66 0 -110 8v196q40 -4 90 -4q100 0 142 39.5t42 128.5v712q0 106 -66 173t-172 67q-74 0 -147 -49.5t-119 -118.5v-688
h-228v1160h-140z" />
    <glyph glyph-name="afii10100" unicode="&#x453;" horiz-adv-x="828" 
d="M784 832h-416v-832h-228v1036h644v-204zM223 1184l272 342h229l-279 -342h-222z" />
    <glyph glyph-name="afii10101" unicode="&#x454;" horiz-adv-x="1104" 
d="M634 -24q-161 0 -292 72t-204.5 196.5t-73.5 273.5t73.5 273.5t204.5 196.5t292 72q219 0 380 -132l-118 -178q-131 106 -262 106q-117 0 -206.5 -68.5t-119.5 -177.5h460v-188h-459q30 -108 119 -175t206 -67q144 0 266 112l134 -166q-163 -150 -400 -150z" />
    <glyph glyph-name="afii10102" unicode="&#x455;" horiz-adv-x="942" 
d="M70 148l128 152q50 -58 120 -93t148 -35q82 0 130 33.5t48 90.5q0 56 -44.5 90t-153.5 56q-173 34 -255.5 115t-82.5 211q0 128 99.5 210t264.5 82q104 0 197 -38.5t161 -101.5l-122 -154q-61 49 -111 73.5t-107 24.5q-67 0 -110.5 -27t-43.5 -73q0 -105 184 -142
q182 -37 267 -117t85 -213q0 -139 -105 -227.5t-285 -88.5q-126 0 -235 46t-177 126z" />
    <glyph glyph-name="afii10103" unicode="&#x456;" horiz-adv-x="528" 
d="M150 0v1036h228v-1036h-228zM122 1318q0 60 41 101t101 41t101 -41t41 -101t-41 -101t-101 -41t-101 41t-41 101z" />
    <glyph glyph-name="afii10104" unicode="&#x457;" horiz-adv-x="528" 
d="M150 0v1036h228v-1036h-228zM-52 1340q0 56 38 94t94 38t94 -38t38 -94t-38 -94t-94 -38t-94 38t-38 94zM316 1340q0 56 38 94t94 38t94 -38t38 -94t-38 -94t-94 -38t-94 38t-38 94z" />
    <glyph glyph-name="afii10105" unicode="&#x458;" horiz-adv-x="528" 
d="M122 1318q0 60 41 101t101 41t101 -41t41 -101t-41 -101t-101 -41t-101 41t-41 101zM150 -108v1144h228v-1140q0 -194 -79 -277t-259 -83q-44 0 -80 4v196h52q73 0 105.5 35t32.5 121z" />
    <glyph glyph-name="afii10106" unicode="&#x459;" horiz-adv-x="1702" 
d="M1262 0h-436v832h-380v-528q0 -132 -88 -222t-218 -90q-56 0 -96 8v202h50q54 0 89 34t35 88v712h836v-324h208q161 0 270.5 -103.5t109.5 -252.5t-109.5 -252.5t-270.5 -103.5zM1414 356q0 69 -49.5 114.5t-122.5 45.5h-188v-320h188q73 0 122.5 45.5t49.5 114.5z" />
    <glyph glyph-name="afii10107" unicode="&#x45a;" horiz-adv-x="1708" 
d="M1268 0h-436v434h-464v-434h-228v1036h228v-398h464v398h228v-324h208q161 0 270.5 -103.5t109.5 -252.5t-109.5 -252.5t-270.5 -103.5zM1420 356q0 69 -49.5 114.5t-122.5 45.5h-188v-320h188q73 0 122.5 45.5t49.5 114.5z" />
    <glyph glyph-name="afii10108" unicode="&#x45b;" horiz-adv-x="1240" 
d="M20 1160v152h140v148h228v-148h322v-152h-322v-244q59 65 141.5 104.5t168.5 39.5q188 0 305 -119t117 -313v-628h-228v616q0 106 -66 173t-172 67q-74 0 -147 -49.5t-119 -118.5v-688h-228v1160h-140z" />
    <glyph glyph-name="afii10109" unicode="&#x45c;" horiz-adv-x="1040" 
d="M780 0l-314 478h-98v-478h-228v1036h228v-362h101l249 362h268l-330 -460l384 -576h-260zM325 1184l272 342h229l-279 -342h-222z" />
    <glyph glyph-name="uni045D" unicode="&#x45d;" horiz-adv-x="1240" 
d="M1100 1036v-1036h-220v718l-524 -718h-216v1036h220v-718l524 718h216zM521 1526l272 -342h-222l-279 342h229z" />
    <glyph glyph-name="afii10110" unicode="&#x45e;" horiz-adv-x="1056" 
d="M234 -464l176 464l-390 1036h236l270 -748l274 748h236l-566 -1500h-236zM526 1164q-134 0 -232.5 89t-105.5 225h200q1 -63 41 -104.5t97 -41.5t97 41.5t41 104.5h200q-7 -136 -105.5 -225t-232.5 -89z" />
    <glyph glyph-name="afii10193" unicode="&#x45f;" horiz-adv-x="1240" 
d="M734 0v-280h-228v280h-366v1036h228v-832h504v832h228v-1036h-366z" />
    <glyph glyph-name="afii10050" unicode="&#x490;" horiz-adv-x="1032" 
d="M756 1400v280h236v-484h-596v-1196h-236v1400h596z" />
    <glyph glyph-name="afii10098" unicode="&#x491;" horiz-adv-x="828" 
d="M556 1036v280h228v-484h-416v-832h-228v1036h416z" />
    <glyph glyph-name="Wgrave" unicode="&#x1e80;" horiz-adv-x="1960" 
d="M864 1400h232l302 -1054l274 1054h248l-398 -1400h-232l-310 1076l-310 -1076h-232l-398 1400h248l274 -1054zM871 1850l272 -342h-222l-279 342h229z" />
    <glyph glyph-name="wgrave" unicode="&#x1e81;" horiz-adv-x="1576" 
d="M670 1036h236l206 -738l208 738h236l-324 -1036h-236l-208 744l-208 -744h-236l-324 1036h236l208 -738zM663 1526l272 -342h-222l-279 342h229z" />
    <glyph glyph-name="Wacute" unicode="&#x1e82;" horiz-adv-x="1960" 
d="M864 1400h232l302 -1054l274 1054h248l-398 -1400h-232l-310 1076l-310 -1076h-232l-398 1400h248l274 -1054zM822 1508l272 342h229l-279 -342h-222z" />
    <glyph glyph-name="wacute" unicode="&#x1e83;" horiz-adv-x="1576" 
d="M670 1036h236l206 -738l208 738h236l-324 -1036h-236l-208 744l-208 -744h-236l-324 1036h236l208 -738zM632 1184l272 342h229l-279 -342h-222z" />
    <glyph glyph-name="Wdieresis" unicode="&#x1e84;" horiz-adv-x="1960" 
d="M864 1400h232l302 -1054l274 1054h248l-398 -1400h-232l-310 1076l-310 -1076h-232l-398 1400h248l274 -1054zM664 1664q0 56 38 94t94 38t94 -38t38 -94t-38 -94t-94 -38t-94 38t-38 94zM1032 1664q0 56 38 94t94 38t94 -38t38 -94t-38 -94t-94 -38t-94 38t-38 94z" />
    <glyph glyph-name="wdieresis" unicode="&#x1e85;" horiz-adv-x="1576" 
d="M670 1036h236l206 -738l208 738h236l-324 -1036h-236l-208 744l-208 -744h-236l-324 1036h236l208 -738zM472 1340q0 56 38 94t94 38t94 -38t38 -94t-38 -94t-94 -38t-94 38t-38 94zM840 1340q0 56 38 94t94 38t94 -38t38 -94t-38 -94t-94 -38t-94 38t-38 94z" />
    <glyph glyph-name="Ygrave" unicode="&#x1ef2;" horiz-adv-x="1292" 
d="M292 1400l354 -596l354 596h252l-488 -826v-574h-236v574l-488 826h252zM533 1850l272 -342h-222l-279 342h229z" />
    <glyph glyph-name="ygrave" unicode="&#x1ef3;" horiz-adv-x="1056" 
d="M234 -464l176 464l-390 1036h236l270 -748l274 748h236l-566 -1500h-236zM401 1526l272 -342h-222l-279 342h229z" />
    <glyph glyph-name="thinspace" unicode="&#x2009;" horiz-adv-x="400" 
 />
    <glyph glyph-name="uni2010" unicode="&#x2010;" horiz-adv-x="812" 
d="M692 556h-572v216h572v-216z" />
    <glyph glyph-name="figuredash" unicode="&#x2012;" horiz-adv-x="1200" 
d="M1100 556h-1000v216h1000v-216z" />
    <glyph glyph-name="endash" unicode="&#x2013;" horiz-adv-x="1000" 
d="M1000 556h-1000v216h1000v-216z" />
    <glyph glyph-name="emdash" unicode="&#x2014;" horiz-adv-x="2000" 
d="M2000 556h-2000v216h2000v-216z" />
    <glyph glyph-name="afii00208" unicode="&#x2015;" horiz-adv-x="2000" 
d="M1800 556h-1600v216h1600v-216z" />
    <glyph glyph-name="uni2016" unicode="&#x2016;" horiz-adv-x="900" 
d="M172 -280v1780h202v-1780h-202zM526 -280v1780h202v-1780h-202z" />
    <glyph glyph-name="underscoredbl" unicode="&#x2017;" horiz-adv-x="1200" 
d="M100 -464v168h1000v-168h-1000zM100 -192v168h1000v-168h-1000z" />
    <glyph glyph-name="quoteleft" unicode="&#x2018;" horiz-adv-x="600" 
d="M448 1184q0 -63 -42.5 -105.5t-105.5 -42.5t-105.5 42.5t-42.5 105.5q0 36 16 68l142 306h146l-106 -234q44 -15 71 -53t27 -87z" />
    <glyph glyph-name="quoteright" unicode="&#x2019;" horiz-adv-x="600" 
d="M152 1410q0 63 42.5 105.5t105.5 42.5t105.5 -42.5t42.5 -105.5q0 -36 -16 -68l-142 -306h-146l106 234q-44 15 -71 53t-27 87z" />
    <glyph glyph-name="quotesinglbase" unicode="&#x201a;" horiz-adv-x="600" 
d="M152 124q0 63 42.5 105.5t105.5 42.5t105.5 -42.5t42.5 -105.5q0 -36 -16 -68l-142 -306h-146l106 234q-44 15 -71 53t-27 87z" />
    <glyph glyph-name="quotereversed" unicode="&#x201b;" horiz-adv-x="600" 
d="M448 1410q0 -49 -27 -87t-71 -53l106 -234h-146l-142 306q-16 32 -16 68q0 63 42.5 105.5t105.5 42.5t105.5 -42.5t42.5 -105.5z" />
    <glyph glyph-name="quotedblleft" unicode="&#x201c;" horiz-adv-x="956" 
d="M448 1184q0 -63 -42.5 -105.5t-105.5 -42.5t-105.5 42.5t-42.5 105.5q0 36 16 68l142 306h146l-106 -234q44 -15 71 -53t27 -87zM804 1184q0 -63 -42.5 -105.5t-105.5 -42.5t-105.5 42.5t-42.5 105.5q0 36 16 68l142 306h146l-106 -234q44 -15 71 -53t27 -87z" />
    <glyph glyph-name="quotedblright" unicode="&#x201d;" horiz-adv-x="956" 
d="M152 1410q0 63 42.5 105.5t105.5 42.5t105.5 -42.5t42.5 -105.5q0 -36 -16 -68l-142 -306h-146l106 234q-44 15 -71 53t-27 87zM508 1410q0 63 42.5 105.5t105.5 42.5t105.5 -42.5t42.5 -105.5q0 -36 -16 -68l-142 -306h-146l106 234q-44 15 -71 53t-27 87z" />
    <glyph glyph-name="quotedblbase" unicode="&#x201e;" horiz-adv-x="956" 
d="M152 124q0 63 42.5 105.5t105.5 42.5t105.5 -42.5t42.5 -105.5q0 -36 -16 -68l-142 -306h-146l106 234q-44 15 -71 53t-27 87zM508 124q0 63 42.5 105.5t105.5 42.5t105.5 -42.5t42.5 -105.5q0 -36 -16 -68l-142 -306h-146l106 234q-44 15 -71 53t-27 87z" />
    <glyph glyph-name="uni201F" unicode="&#x201f;" horiz-adv-x="956" 
d="M448 1410q0 -49 -27 -87t-71 -53l106 -234h-146l-142 306q-16 32 -16 68q0 63 42.5 105.5t105.5 42.5t105.5 -42.5t42.5 -105.5zM804 1410q0 -49 -27 -87t-71 -53l106 -234h-146l-142 306q-16 32 -16 68q0 63 42.5 105.5t105.5 42.5t105.5 -42.5t42.5 -105.5z" />
    <glyph glyph-name="dagger" unicode="&#x2020;" horiz-adv-x="1120" 
d="M442 -262v1214h-318v204h318v340h236v-340h318v-204h-318v-1214h-236z" />
    <glyph glyph-name="daggerdbl" unicode="&#x2021;" horiz-adv-x="1120" 
d="M124 78v204h318v670h-318v204h318v340h236v-340h318v-204h-318v-670h318v-204h-318v-340h-236v340h-318z" />
    <glyph glyph-name="bullet" unicode="&#x2022;" 
d="M400 402q-108 0 -186 77t-78 185t78 185t186 77t186 -77t78 -185t-78 -185t-186 -77z" />
    <glyph glyph-name="onedotenleader" unicode="&#x2024;" horiz-adv-x="600" 
d="M152 124q0 63 42.5 105.5t105.5 42.5t105.5 -42.5t42.5 -105.5t-42.5 -105.5t-105.5 -42.5t-105.5 42.5t-42.5 105.5z" />
    <glyph glyph-name="twodotenleader" unicode="&#x2025;" horiz-adv-x="1200" 
d="M152 124q0 63 42.5 105.5t105.5 42.5t105.5 -42.5t42.5 -105.5t-42.5 -105.5t-105.5 -42.5t-105.5 42.5t-42.5 105.5zM752 124q0 63 42.5 105.5t105.5 42.5t105.5 -42.5t42.5 -105.5t-42.5 -105.5t-105.5 -42.5t-105.5 42.5t-42.5 105.5z" />
    <glyph glyph-name="ellipsis" unicode="&#x2026;" horiz-adv-x="1800" 
d="M152 124q0 63 42.5 105.5t105.5 42.5t105.5 -42.5t42.5 -105.5t-42.5 -105.5t-105.5 -42.5t-105.5 42.5t-42.5 105.5zM752 124q0 63 42.5 105.5t105.5 42.5t105.5 -42.5t42.5 -105.5t-42.5 -105.5t-105.5 -42.5t-105.5 42.5t-42.5 105.5zM1352 124q0 63 42.5 105.5
t105.5 42.5t105.5 -42.5t42.5 -105.5t-42.5 -105.5t-105.5 -42.5t-105.5 42.5t-42.5 105.5z" />
    <glyph glyph-name="perthousand" unicode="&#x2030;" horiz-adv-x="2594" 
d="M416 0l722 1400h236l-720 -1400h-238zM308 1058q0 -68 41 -116t103 -48t103 48t41 116t-41 116t-103 48t-103 -48t-41 -116zM86 1058q0 150 106 253t260 103t260 -103t106 -253t-106 -253t-260 -103t-260 103t-106 253zM1196 342q0 -68 41 -116t103 -48t103 48t41 116
t-41 116t-103 48t-103 -48t-41 -116zM974 342q0 150 106 253t260 103t260 -103t106 -253t-106 -253t-260 -103t-260 103t-106 253zM1998 342q0 -68 41 -116t103 -48t103 48t41 116t-41 116t-103 48t-103 -48t-41 -116zM1776 342q0 150 106 253t260 103t260 -103t106 -253
t-106 -253t-260 -103t-260 103t-106 253z" />
    <glyph glyph-name="minute" unicode="&#x2032;" horiz-adv-x="560" 
d="M85 1028l181 372h229l-205 -372h-205z" />
    <glyph glyph-name="second" unicode="&#x2033;" horiz-adv-x="904" 
d="M85 1028l181 372h229l-205 -372h-205zM429 1028l181 372h229l-205 -372h-205z" />
    <glyph glyph-name="guilsinglleft" unicode="&#x2039;" horiz-adv-x="794" 
d="M104 564v120l568 350v-210l-336 -200l336 -200v-210z" />
    <glyph glyph-name="guilsinglright" unicode="&#x203a;" horiz-adv-x="794" 
d="M690 684v-120l-568 -350v210l336 200l-336 200v210z" />
    <glyph glyph-name="exclamdbl" unicode="&#x203c;" horiz-adv-x="1062" 
d="M194 404v996h236v-996h-236zM164 124q0 63 42.5 105.5t105.5 42.5t105.5 -42.5t42.5 -105.5t-42.5 -105.5t-105.5 -42.5t-105.5 42.5t-42.5 105.5zM632 404v996h236v-996h-236zM602 124q0 63 42.5 105.5t105.5 42.5t105.5 -42.5t42.5 -105.5t-42.5 -105.5t-105.5 -42.5
t-105.5 42.5t-42.5 105.5z" />
    <glyph glyph-name="uni203E" unicode="&#x203e;" horiz-adv-x="840" 
d="M120 1200v176h600v-176h-600z" />
    <glyph glyph-name="fraction" unicode="&#x2044;" horiz-adv-x="332" 
d="M-274 0l684 1400h196l-682 -1400h-198z" />
    <glyph glyph-name="zerosuperior" unicode="&#x2070;" 
d="M56 926q0 142 36.5 252.5t116 178t191.5 67.5t191.5 -67.5t116 -178t36.5 -252.5t-36.5 -252.5t-116 -178t-191.5 -67.5t-191.5 67.5t-116 178t-36.5 252.5zM256 926q0 -152 36 -239t108 -87t108 87t36 239t-36 239t-108 87t-108 -87t-36 -239z" />
    <glyph glyph-name="uni2071" unicode="&#x2071;" 
d="M302 452v670h196v-670h-196zM282 1286q0 47 34.5 80.5t83.5 33.5t83.5 -33.5t34.5 -80.5t-34.5 -79.5t-83.5 -32.5t-83.5 32.5t-34.5 79.5z" />
    <glyph glyph-name="foursuperior" unicode="&#x2074;" 
d="M36 626v156l420 618h192v-602h98v-172h-98v-174h-202v174h-410zM256 796h190v290z" />
    <glyph glyph-name="fivesuperior" unicode="&#x2075;" 
d="M374 428q-103 0 -186.5 45.5t-134.5 130.5l143 112q79 -124 174 -124q67 0 111.5 46t44.5 114t-44.5 114t-111.5 46q-35 0 -67 -18t-51 -46l-148 18l58 534h532v-166h-350l-22 -174q36 12 86 12q132 0 226 -86.5t94 -229.5q0 -146 -95.5 -237t-258.5 -91z" />
    <glyph glyph-name="sixsuperior" unicode="&#x2076;" 
d="M618 1400l-210 -324h12q134 0 233 -91t99 -231q0 -94 -50.5 -169.5t-130 -116t-169.5 -40.5q-144 0 -250 92.5t-106 233.5q0 95 50 170l310 476h212zM550 754q0 67 -44.5 113.5t-107.5 46.5q-62 0 -106 -46.5t-44 -113.5q0 -68 44 -115t106 -47q63 0 107.5 46.5
t44.5 115.5z" />
    <glyph glyph-name="sevensuperior" unicode="&#x2077;" 
d="M90 1400h624v-146l-332 -802h-226l330 782h-396v166z" />
    <glyph glyph-name="eightsuperior" unicode="&#x2078;" 
d="M400 428q-146 0 -246 88.5t-100 221.5q0 75 39 138.5t107 99.5q-44 31 -71 79t-27 103q0 111 84 188.5t214 77.5t214 -77.5t84 -188.5q0 -53 -27.5 -101.5t-70.5 -80.5q68 -36 107 -99.5t39 -138.5q0 -133 -100 -221.5t-246 -88.5zM400 888q-61 0 -102.5 -43t-41.5 -105
t41.5 -105t102.5 -43t102.5 43t41.5 105t-41.5 105t-102.5 43zM400 1048q43 0 72.5 32t29.5 76t-29.5 74t-72.5 30t-72.5 -30t-29.5 -74t29.5 -76t72.5 -32z" />
    <glyph glyph-name="ninesuperior" unicode="&#x2079;" 
d="M182 452l210 324h-12q-134 0 -233 91t-99 231q0 94 50.5 169.5t130 116t169.5 40.5q144 0 250 -92.5t106 -233.5q0 -95 -50 -170l-310 -476h-212zM250 1098q0 -67 44.5 -113.5t107.5 -46.5q62 0 106 46.5t44 113.5q0 68 -44 115t-106 47q-63 0 -107.5 -46.5t-44.5 -115.5
z" />
    <glyph glyph-name="uni207A" unicode="&#x207a;" 
d="M300 610v230h-228v172h228v230h200v-230h228v-172h-228v-230h-200z" />
    <glyph glyph-name="uni207B" unicode="&#x207b;" 
d="M728 840h-656v172h656v-172z" />
    <glyph glyph-name="uni207C" unicode="&#x207c;" 
d="M728 680h-656v172h656v-172zM728 1000h-656v172h656v-172z" />
    <glyph glyph-name="uni207D" unicode="&#x207d;" 
d="M280 926q0 166 62.5 319.5t177.5 272.5l140 -96q-86 -103 -131 -230.5t-45 -265.5t45 -265.5t131 -230.5l-140 -96q-115 119 -177.5 272.5t-62.5 319.5z" />
    <glyph glyph-name="uni207E" unicode="&#x207e;" 
d="M520 926q0 -166 -62.5 -319.5t-177.5 -272.5l-140 96q86 103 131 230.5t45 265.5t-45 265.5t-131 230.5l140 96q115 -119 177.5 -272.5t62.5 -319.5z" />
    <glyph glyph-name="uni207F" unicode="&#x207f;" 
d="M296 886v-434h-196v670h196v-40q57 54 140 54q120 0 195 -78.5t75 -205.5v-400h-196v396q0 52 -28.5 85t-73.5 33q-74 0 -112 -80z" />
    <glyph glyph-name="zeroinferior" unicode="&#x2080;" 
d="M56 212q0 142 36.5 252.5t116 178t191.5 67.5t191.5 -67.5t116 -178t36.5 -252.5t-36.5 -252.5t-116 -178t-191.5 -67.5t-191.5 67.5t-116 178t-36.5 252.5zM256 212q0 -152 36 -239t108 -87t108 87t36 239t-36 239t-108 87t-108 -87t-36 -239z" />
    <glyph glyph-name="oneinferior" unicode="&#x2081;" 
d="M380 686h172v-948h-202v746l-144 -78l-78 148z" />
    <glyph glyph-name="twoinferior" unicode="&#x2082;" 
d="M564 124l-206 -222h340v-164h-606v146l316 342q54 58 76 102t22 92q0 57 -33 91.5t-87 34.5q-50 0 -83.5 -31t-58.5 -101l-173 67q33 112 114.5 170.5t200.5 58.5q141 0 231.5 -79t90.5 -211q0 -80 -33 -146t-111 -150z" />
    <glyph glyph-name="threeinferior" unicode="&#x2083;" 
d="M520 40q0 67 -44.5 113.5t-111.5 46.5q-21 0 -54 -10l-76 94l194 236h-324v166h572v-152l-176 -210q102 -27 162 -109.5t60 -190.5q0 -121 -98 -215.5t-254 -94.5q-102 0 -185 46.5t-135 129.5l136 114q87 -126 178 -126q67 0 111.5 47t44.5 115z" />
    <glyph glyph-name="fourinferior" unicode="&#x2084;" 
d="M36 -88v156l420 618h192v-602h98v-172h-98v-174h-202v174h-410zM256 82h190v290z" />
    <glyph glyph-name="fiveinferior" unicode="&#x2085;" 
d="M374 -286q-103 0 -186.5 45.5t-134.5 130.5l143 112q79 -124 174 -124q67 0 111.5 46t44.5 114t-44.5 114t-111.5 46q-35 0 -67 -18t-51 -46l-148 18l58 534h532v-166h-350l-22 -174q36 12 86 12q132 0 226 -86.5t94 -229.5q0 -146 -95.5 -237t-258.5 -91z" />
    <glyph glyph-name="sixinferior" unicode="&#x2086;" 
d="M618 686l-210 -324h12q134 0 233 -91t99 -231q0 -94 -50.5 -169.5t-130 -116t-169.5 -40.5q-144 0 -250 92.5t-106 233.5q0 95 50 170l310 476h212zM550 40q0 67 -44.5 113.5t-107.5 46.5q-62 0 -106 -46.5t-44 -113.5q0 -68 44 -115t106 -47q63 0 107.5 46.5t44.5 115.5
z" />
    <glyph glyph-name="seveninferior" unicode="&#x2087;" 
d="M90 686h624v-146l-332 -802h-226l330 782h-396v166z" />
    <glyph glyph-name="eightinferior" unicode="&#x2088;" 
d="M400 -286q-146 0 -246 88.5t-100 221.5q0 75 39 138.5t107 99.5q-44 31 -71 79t-27 103q0 111 84 188.5t214 77.5t214 -77.5t84 -188.5q0 -53 -27.5 -101.5t-70.5 -80.5q68 -36 107 -99.5t39 -138.5q0 -133 -100 -221.5t-246 -88.5zM400 174q-61 0 -102.5 -43t-41.5 -105
t41.5 -105t102.5 -43t102.5 43t41.5 105t-41.5 105t-102.5 43zM400 334q43 0 72.5 32t29.5 76t-29.5 74t-72.5 30t-72.5 -30t-29.5 -74t29.5 -76t72.5 -32z" />
    <glyph glyph-name="nineinferior" unicode="&#x2089;" 
d="M182 -262l210 324h-12q-134 0 -233 91t-99 231q0 94 50.5 169.5t130 116t169.5 40.5q144 0 250 -92.5t106 -233.5q0 -95 -50 -170l-310 -476h-212zM250 384q0 -67 44.5 -113.5t107.5 -46.5q62 0 106 46.5t44 113.5q0 68 -44 115t-106 47q-63 0 -107.5 -46.5t-44.5 -115.5
z" />
    <glyph glyph-name="uni208A" unicode="&#x208a;" 
d="M300 -104v230h-228v172h228v230h200v-230h228v-172h-228v-230h-200z" />
    <glyph glyph-name="uni208B" unicode="&#x208b;" 
d="M728 126h-656v172h656v-172z" />
    <glyph glyph-name="uni208C" unicode="&#x208c;" 
d="M728 -34h-656v172h656v-172zM728 286h-656v172h656v-172z" />
    <glyph glyph-name="uni208D" unicode="&#x208d;" 
d="M280 212q0 166 62.5 319.5t177.5 272.5l140 -96q-86 -103 -131 -230.5t-45 -265.5t45 -265.5t131 -230.5l-140 -96q-115 119 -177.5 272.5t-62.5 319.5z" />
    <glyph glyph-name="uni208E" unicode="&#x208e;" 
d="M520 212q0 -166 -62.5 -319.5t-177.5 -272.5l-140 96q86 103 131 230.5t45 265.5t-45 265.5t-131 230.5l140 96q115 -119 177.5 -272.5t62.5 -319.5z" />
    <glyph glyph-name="uni2090" unicode="&#x2090;" 
d="M526 -28v184q-18 40 -54 64t-80 24q-66 0 -110 -51t-44 -129t44 -129t110 -51q44 0 80 24t54 64zM526 -272v50q-64 -64 -156 -64q-141 0 -235.5 100.5t-94.5 249.5t94.5 249.5t235.5 100.5q92 0 156 -64v50h198v-672h-198z" />
    <glyph glyph-name="uni2091" unicode="&#x2091;" 
d="M738 0h-484q17 -55 60 -89.5t98 -34.5q45 0 93 26t85 68l122 -122q-56 -65 -133.5 -99.5t-164.5 -34.5q-159 0 -258.5 101.5t-99.5 248.5q0 148 101 249t249 101q147 0 242.5 -97.5t95.5 -240.5q0 -40 -6 -76zM406 252q-49 0 -87.5 -26.5t-57.5 -71.5h281
q-16 45 -52 71.5t-84 26.5z" />
    <glyph glyph-name="uni2092" unicode="&#x2092;" 
d="M400 -116q66 0 111 52.5t45 127.5t-45 127.5t-111 52.5t-111 -52.5t-45 -127.5t45 -127.5t111 -52.5zM400 414q152 0 253 -101t101 -249t-101 -249t-253 -101t-253 101t-101 249t101 249t253 101z" />
    <glyph glyph-name="uni2093" unicode="&#x2093;" 
d="M292 400l106 -174l108 174h220l-212 -326l226 -346h-216l-124 198l-122 -198h-220l226 348l-210 324h218z" />
    <glyph glyph-name="uni2094" unicode="&#x2094;" 
d="M56 52q0 40 6 76h483q-17 55 -60 89.5t-97 34.5q-45 0 -93 -26t-85 -68l-122 122q56 65 133.5 99.5t164.5 34.5q159 0 258.5 -101.5t99.5 -248.5q0 -148 -101 -249t-249 -101q-147 0 -242.5 97.5t-95.5 240.5zM394 -124q49 0 87 26.5t57 71.5h-281q17 -46 53 -72t84 -26z
" />
    <glyph glyph-name="uni20A0" unicode="&#x20a0;" horiz-adv-x="1574" 
d="M810 0v469q-105 -47 -222 -47q-108 0 -204.5 39t-165 105.5t-108.5 159.5t-40 196q0 212 149 357t369 145q185 0 348 -126l-108 -166q-70 48 -125 72t-115 24q-124 0 -209 -88t-85 -218q0 -129 85.5 -216.5t208.5 -87.5q118 0 222 68v284h622v-192h-400v-194h368v-192
h-368v-200h412v-192h-634z" />
    <glyph glyph-name="colonmonetary" unicode="&#x20a1;" horiz-adv-x="1382" 
d="M1120 1604l-39 -221q114 -40 215 -115l-118 -178q-78 52 -135 78l-174 -982q168 14 319 134l124 -176q-203 -165 -480 -168l-32 -180h-152l34 193q-67 13 -104 25l-38 -218h-152l50 281q-165 95 -261.5 259.5t-96.5 363.5q0 266 166 462.5t427 246.5l35 195h152l-32 -180
q46 0 107 -7l33 187h152zM320 700q0 -114 42.5 -212t118.5 -169l152 859q-141 -57 -227 -186t-86 -292zM616 228q53 -23 102 -33l180 1016q-38 5 -72 5q-24 0 -35 -1z" />
    <glyph glyph-name="uni20A2" unicode="&#x20a2;" horiz-adv-x="1382" 
d="M1188 320l124 -176q-206 -168 -486 -168q-208 0 -379 95.5t-269 261.5t-98 367t98 367t269 261.5t379 95.5q264 0 470 -156l-118 -178q-94 62 -174 94t-178 32q-212 0 -359 -149t-147 -367q0 -175 97.5 -309.5t254.5 -183.5v623h208v-80q70 94 164 94q52 0 100 -24
l-18 -176q-64 24 -92 24q-43 0 -85 -29.5t-69 -78.5v-373q165 19 308 133z" />
    <glyph glyph-name="franc" unicode="&#x20a3;" horiz-adv-x="1102" 
d="M790 464h-324v-464h-236v464h-180v130h180v92h-180v130h180v584h832v-204h-596v-380h324v-130h-324v-92h324v-130z" />
    <glyph glyph-name="lira" unicode="&#x20a4;" horiz-adv-x="1160" 
d="M306 454h-226v130h224q-9 54 -20 92h-204v130h151q-45 112 -45 216q0 170 125 286t309 116q145 0 252 -72t152 -180l-200 -106q-57 150 -204 150q-84 0 -139 -55t-55 -139q0 -75 59 -216h335v-130h-292q11 -49 17 -92h275v-130h-273q-17 -143 -131 -246h634v-208h-904
v204q65 44 107.5 108.5t52.5 141.5z" />
    <glyph glyph-name="uni20A6" unicode="&#x20a6;" horiz-adv-x="1468" 
d="M1418 534h-140v-534h-224l-331 534h-309v-534h-224v534h-140v120h140v92h-140v120h140v534h224l331 -534h309v534h224v-534h140v-120h-140v-92h140v-120zM414 746v-92h234l-57 92h-177zM819 746l57 -92h178v92h-235zM951 534l103 -166v166h-103zM414 1032v-166h103z" />
    <glyph glyph-name="peseta" unicode="&#x20a7;" horiz-adv-x="2398" 
d="M1532 196h419q69 0 109 31.5t40 86.5q0 52 -39.5 85.5t-129.5 54.5q-313 73 -313 320q0 124 92.5 205t246.5 81q97 0 183 -38.5t148 -102.5l-116 -162q-61 54 -106.5 80.5t-92.5 26.5q-56 0 -92 -25t-36 -69q0 -101 157 -136q168 -38 247 -117.5t79 -206.5
q0 -134 -97.5 -222t-264.5 -88h-452q-189 0 -276.5 86t-87.5 276v474h-148q-32 -153 -145.5 -240.5t-288.5 -87.5h-174v-508h-234v1400h408q185 0 301 -97.5t139 -266.5h142v279l227 22v-301h226v-200h-226v-472q0 -89 35 -128.5t120 -39.5zM776 954q0 113 -56 177.5
t-161 64.5h-165v-484h165q105 0 161 64.5t56 177.5z" />
    <glyph glyph-name="uni20A8" unicode="&#x20a8;" horiz-adv-x="1952" 
d="M160 1400h454q217 0 341.5 -121t124.5 -325q0 -166 -84 -279t-235 -150l345 -525h-257l-332 508h-121v-508h-236v1400zM1109 148l127 158q50 -61 116.5 -97.5t137.5 -36.5q76 0 119.5 33.5t43.5 90.5q0 54 -43 89.5t-140 56.5q-326 72 -326 326q0 128 96 210t256 82
q100 0 189.5 -38.5t155.5 -102.5l-119 -158q-61 52 -109 77.5t-100 25.5q-62 0 -101 -27t-39 -73q0 -106 170 -142q175 -37 257 -117.5t82 -212.5q0 -139 -101.5 -227.5t-275.5 -88.5q-122 0 -226.5 46t-169.5 126zM605 1196h-209v-484h209q114 0 174.5 64.5t60.5 177.5
t-60.5 177.5t-174.5 64.5z" />
    <glyph glyph-name="uni20A9" unicode="&#x20a9;" horiz-adv-x="2000" 
d="M1960 538h-265l-153 -538h-228l-154 538h-320l-154 -538h-228l-154 538h-264v120h230l-26 92h-204v120h170l-150 530h244l137 -530h295l152 530h224l151 -530h296l137 530h244l-151 -530h171v-120h-205l-26 -92h231v-120zM901 750l-27 -92h251l-26 92h-198zM1297 750
l26 -92h181l24 92h-231zM472 750l24 -92h180l26 92h-230zM1000 1096l-65 -226h129zM1357 538l61 -212l55 212h-116zM527 538l55 -212l60 212h-115z" />
    <glyph glyph-name="afii57636" unicode="&#x20aa;" horiz-adv-x="1748" 
d="M160 0v1400h528q213 0 356.5 -135t143.5 -333v-408h-236v408q0 115 -74 189.5t-190 74.5h-292v-1196h-236zM1588 1400v-1400h-532q-213 0 -356.5 135t-143.5 333v408h236v-408q0 -115 74 -189.5t190 -74.5h296v1196h236z" />
    <glyph glyph-name="dong" unicode="&#x20ab;" horiz-adv-x="1332" 
d="M622 1160v152h322v148h228v-148h140v-152h-140v-1160h-228v112q-136 -136 -344 -136q-150 0 -272.5 74t-190 198t-67.5 270t67.5 270t190 198t272.5 74q208 0 344 -136v236h-322zM640 180q100 0 181.5 50.5t122.5 135.5v302q-41 85 -123 136.5t-181 51.5q-142 0 -240 -98
t-98 -240t98 -240t240 -98zM360 -340v176h720v-176h-720z" />
    <glyph glyph-name="Euro" unicode="&#x20ac;" horiz-adv-x="1442" 
d="M980 504h-564q57 -145 183.5 -232.5t286.5 -87.5q191 0 362 136l124 -176q-206 -168 -486 -168q-261 0 -458.5 147t-261.5 381h-146v134h122q-2 40 -2 62q0 26 2 62h-122v134h146q64 234 261.5 381t458.5 147q264 0 470 -156l-118 -178q-94 62 -174 94t-178 32
q-159 0 -286 -88t-184 -232h564v-134h-597q-3 -32 -3 -62q0 -32 3 -62h597v-134z" />
    <glyph glyph-name="afii61248" unicode="&#x2105;" horiz-adv-x="2097" 
d="M521 577q-193 0 -322 122.5t-129 300.5t129 301t322 123q173 0 312 -113l-111 -167q-114 93 -201 93q-97 0 -164 -68.5t-67 -168.5q0 -99 67 -167.5t164 -68.5q98 0 202 97l126 -156q-141 -128 -328 -128zM1577 163q97 0 163.5 68.5t66.5 167.5q0 100 -66.5 168.5
t-163.5 68.5t-164 -68.5t-67 -168.5q0 -99 67 -167.5t164 -68.5zM1577 823q193 0 321.5 -123t128.5 -301t-128.5 -300.5t-321.5 -122.5t-322 122.5t-129 300.5t129 301t322 123zM566 0l684 1400h216l-682 -1400h-218z" />
    <glyph glyph-name="uni2109" unicode="&#x2109;" horiz-adv-x="1614" 
d="M206 1154q0 -48 32.5 -81t81.5 -33t81.5 33t32.5 81t-32.5 81t-81.5 33t-81.5 -33t-32.5 -81zM40 1154q0 114 81 192t199 78t199 -78t81 -192t-81 -192t-199 -78t-199 78t-81 192zM702 0v1400h832v-204h-596v-390h548v-204h-548v-602h-236z" />
    <glyph glyph-name="afii61289" unicode="&#x2113;" horiz-adv-x="1134" 
d="M70 448q129 49 220 87v537q0 150 109.5 251t268.5 101t268.5 -101t109.5 -251v-56q0 -331 -520 -596v-78q0 -70 41 -116t103 -46q63 0 113 40t81 108l190 -114q-54 -109 -155 -173.5t-229 -64.5q-158 0 -267.5 97.5t-112.5 240.5q-65 -26 -156 -58zM526 1054v-403
q144 84 214 176.5t70 208.5v18q0 73 -40 119.5t-102 46.5t-102 -46.5t-40 -119.5z" />
    <glyph glyph-name="afii61352" unicode="&#x2116;" horiz-adv-x="2219" 
d="M160 0v1400h226l512 -952v952h227v-1400h-226l-512 952v-952h-227zM2069 324h-780v196h780v-196zM1269 1042q0 161 119 271.5t291 110.5t291 -110.5t119 -271.5t-119 -271.5t-291 -110.5t-291 110.5t-119 271.5zM1493 1042q0 -80 53.5 -133t132.5 -53t132.5 53t53.5 133
t-53.5 133t-132.5 53t-132.5 -53t-53.5 -133z" />
    <glyph glyph-name="uni2117" unicode="&#x2117;" horiz-adv-x="1608" 
d="M862 572h-132v-258h-172v770h304q121 0 201.5 -72.5t80.5 -183.5t-80.5 -183.5t-201.5 -72.5zM970 828q0 42 -32 69t-82 27h-126v-192h126q50 0 82 27t32 69zM80 700q0 149 56.5 283t153.5 231t231 153.5t283 56.5t283 -56.5t231 -153.5t153.5 -231t56.5 -283t-56.5 -283
t-153.5 -231t-231 -153.5t-283 -56.5t-283 56.5t-231 153.5t-153.5 231t-56.5 283zM212 700q0 -165 78.5 -303t214.5 -217.5t299 -79.5t299 79.5t214.5 217.5t78.5 303t-78.5 303t-214.5 217.5t-299 79.5t-299 -79.5t-214.5 -217.5t-78.5 -303z" />
    <glyph glyph-name="uni2120" unicode="&#x2120;" horiz-adv-x="1580" 
d="M70 780l108 118q45 -48 92.5 -77t85.5 -29q46 0 75 21.5t29 58.5q0 35 -29 60t-101 40q-240 52 -240 226q0 96 72 155t186 59q158 0 260 -108l-100 -122q-97 86 -156 86q-35 0 -58.5 -17t-23.5 -45q0 -68 122 -96q133 -31 190.5 -89t57.5 -149q0 -100 -76 -162t-206 -62
q-81 0 -157.5 35t-130.5 97zM1138 874h-110l-150 232v-446h-174v740h160l218 -334l218 334h160v-740h-174v442z" />
    <glyph glyph-name="uni2121" unicode="&#x2121;" horiz-adv-x="2190" 
d="M1704 444h-683q15 -119 85 -195.5t164 -76.5q123 0 237 147l159 -140q-142 -203 -390 -203q-141 0 -251.5 72.5t-169.5 195.5t-59 274q0 149 60 273.5t167 196.5t239 72q130 0 233.5 -71t160 -189.5t56.5 -261.5q0 -59 -8 -94zM420 0v1196h-360v204h948v-204h-360v-1196
h-228zM1812 0v1460h218v-1460h-218zM1262 864q-80 0 -145 -65t-88 -167h453q-20 102 -80 167t-140 65z" />
    <glyph glyph-name="trademark" unicode="&#x2122;" horiz-adv-x="1556" 
d="M248 660v598h-188v142h554v-142h-188v-598h-178zM1114 874h-110l-150 232v-446h-174v740h160l218 -334l218 334h160v-740h-174v442z" />
    <glyph glyph-name="Omega" unicode="&#x2126;" horiz-adv-x="1604" 
d="M1196 208h302v-208h-580v200q163 82 259.5 225.5t96.5 310.5q0 201 -137 340.5t-335 139.5t-335 -139.5t-137 -340.5q0 -167 96.5 -310.5t259.5 -225.5v-200h-580v208h302q-154 100 -236 239.5t-82 308.5q0 183 94 336.5t257.5 242.5t360.5 89t360.5 -89t257.5 -242.5
t94 -336.5q0 -169 -82 -308.5t-236 -239.5z" />
    <glyph glyph-name="estimated" unicode="&#x212e;" horiz-adv-x="1608" 
d="M1528 639h-1138v-371q81 -80 188 -124t226 -44q148 0 275 67t209 184l106 -74q-102 -143 -258 -222t-332 -79q-149 0 -283 56.5t-231 153.5t-153.5 231t-56.5 283t56.5 283t153.5 231t231 153.5t283 56.5t283 -56.5t231 -153.5t153.5 -231t56.5 -283v-61zM804 1300
q-120 0 -226.5 -44.5t-187.5 -124.5v-370h828v370q-81 80 -187.5 124.5t-226.5 44.5z" />
    <glyph glyph-name="onethird" unicode="&#x2153;" horiz-adv-x="1930" 
d="M526 0l684 1400h196l-682 -1400h-198zM380 1400h172v-948h-202v746l-144 -78l-78 148zM1650 302q0 67 -44.5 113.5t-111.5 46.5q-21 0 -54 -10l-76 94l194 236h-324v166h572v-152l-176 -210q102 -27 162 -109.5t60 -190.5q0 -121 -98 -215.5t-254 -94.5q-102 0 -185 46.5
t-135 129.5l136 114q87 -126 178 -126q67 0 111.5 47t44.5 115z" />
    <glyph glyph-name="twothirds" unicode="&#x2154;" horiz-adv-x="1930" 
d="M564 838l-206 -222h340v-164h-606v146l316 342q54 58 76 102t22 92q0 57 -33 91.5t-87 34.5q-50 0 -83.5 -31t-58.5 -101l-173 67q33 112 114.5 170.5t200.5 58.5q141 0 231.5 -79t90.5 -211q0 -80 -33 -146t-111 -150zM1650 302q0 67 -44.5 113.5t-111.5 46.5
q-21 0 -54 -10l-76 94l194 236h-324v166h572v-152l-176 -210q102 -27 162 -109.5t60 -190.5q0 -121 -98 -215.5t-254 -94.5q-102 0 -185 46.5t-135 129.5l136 114q87 -126 178 -126q67 0 111.5 47t44.5 115zM526 0l684 1400h196l-682 -1400h-198z" />
    <glyph glyph-name="onefifth" unicode="&#x2155;" horiz-adv-x="1930" 
d="M1504 -26q-103 0 -186.5 45.5t-134.5 130.5l143 112q79 -124 174 -124q67 0 111.5 46t44.5 114t-44.5 114t-111.5 46q-35 0 -67 -18t-51 -46l-148 18l58 534h532v-166h-350l-22 -174q36 12 86 12q132 0 226 -86.5t94 -229.5q0 -146 -95.5 -237t-258.5 -91zM380 1400h172
v-948h-202v746l-144 -78l-78 148zM526 0l684 1400h196l-682 -1400h-198z" />
    <glyph glyph-name="twofifths" unicode="&#x2156;" horiz-adv-x="1930" 
d="M564 838l-206 -222h340v-164h-606v146l316 342q54 58 76 102t22 92q0 57 -33 91.5t-87 34.5q-50 0 -83.5 -31t-58.5 -101l-173 67q33 112 114.5 170.5t200.5 58.5q141 0 231.5 -79t90.5 -211q0 -80 -33 -146t-111 -150zM1504 -26q-103 0 -186.5 45.5t-134.5 130.5
l143 112q79 -124 174 -124q67 0 111.5 46t44.5 114t-44.5 114t-111.5 46q-35 0 -67 -18t-51 -46l-148 18l58 534h532v-166h-350l-22 -174q36 12 86 12q132 0 226 -86.5t94 -229.5q0 -146 -95.5 -237t-258.5 -91zM526 0l684 1400h196l-682 -1400h-198z" />
    <glyph glyph-name="threefifths" unicode="&#x2157;" horiz-adv-x="1930" 
d="M520 754q0 67 -44.5 113.5t-111.5 46.5q-21 0 -54 -10l-76 94l194 236h-324v166h572v-152l-176 -210q102 -27 162 -109.5t60 -190.5q0 -121 -98 -215.5t-254 -94.5q-102 0 -185 46.5t-135 129.5l136 114q87 -126 178 -126q67 0 111.5 47t44.5 115zM1504 -26
q-103 0 -186.5 45.5t-134.5 130.5l143 112q79 -124 174 -124q67 0 111.5 46t44.5 114t-44.5 114t-111.5 46q-35 0 -67 -18t-51 -46l-148 18l58 534h532v-166h-350l-22 -174q36 12 86 12q132 0 226 -86.5t94 -229.5q0 -146 -95.5 -237t-258.5 -91zM526 0l684 1400h196
l-682 -1400h-198z" />
    <glyph glyph-name="fourfifths" unicode="&#x2158;" horiz-adv-x="1930" 
d="M36 626v156l420 618h192v-602h98v-172h-98v-174h-202v174h-410zM256 796h190v290zM1504 -26q-103 0 -186.5 45.5t-134.5 130.5l143 112q79 -124 174 -124q67 0 111.5 46t44.5 114t-44.5 114t-111.5 46q-35 0 -67 -18t-51 -46l-148 18l58 534h532v-166h-350l-22 -174
q36 12 86 12q132 0 226 -86.5t94 -229.5q0 -146 -95.5 -237t-258.5 -91zM526 0l684 1400h196l-682 -1400h-198z" />
    <glyph glyph-name="onesixth" unicode="&#x2159;" horiz-adv-x="1930" 
d="M1748 948l-210 -324h12q134 0 233 -91t99 -231q0 -94 -50.5 -169.5t-130 -116t-169.5 -40.5q-144 0 -250 92.5t-106 233.5q0 95 50 170l310 476h212zM1680 302q0 67 -44.5 113.5t-107.5 46.5q-62 0 -106 -46.5t-44 -113.5q0 -68 44 -115t106 -47q63 0 107.5 46.5
t44.5 115.5zM380 1400h172v-948h-202v746l-144 -78l-78 148zM526 0l684 1400h196l-682 -1400h-198z" />
    <glyph glyph-name="fivesixths" unicode="&#x215a;" horiz-adv-x="1930" 
d="M374 428q-103 0 -186.5 45.5t-134.5 130.5l143 112q79 -124 174 -124q67 0 111.5 46t44.5 114t-44.5 114t-111.5 46q-35 0 -67 -18t-51 -46l-148 18l58 534h532v-166h-350l-22 -174q36 12 86 12q132 0 226 -86.5t94 -229.5q0 -146 -95.5 -237t-258.5 -91zM1748 948
l-210 -324h12q134 0 233 -91t99 -231q0 -94 -50.5 -169.5t-130 -116t-169.5 -40.5q-144 0 -250 92.5t-106 233.5q0 95 50 170l310 476h212zM1680 302q0 67 -44.5 113.5t-107.5 46.5q-62 0 -106 -46.5t-44 -113.5q0 -68 44 -115t106 -47q63 0 107.5 46.5t44.5 115.5zM526 0
l684 1400h196l-682 -1400h-198z" />
    <glyph glyph-name="oneeighth" unicode="&#x215b;" horiz-adv-x="1930" 
d="M1530 -26q-146 0 -246 88.5t-100 221.5q0 75 39 138.5t107 99.5q-44 31 -71 79t-27 103q0 111 84 188.5t214 77.5t214 -77.5t84 -188.5q0 -53 -27.5 -101.5t-70.5 -80.5q68 -36 107 -99.5t39 -138.5q0 -133 -100 -221.5t-246 -88.5zM1530 434q-61 0 -102.5 -43
t-41.5 -105t41.5 -105t102.5 -43t102.5 43t41.5 105t-41.5 105t-102.5 43zM1530 594q43 0 72.5 32t29.5 76t-29.5 74t-72.5 30t-72.5 -30t-29.5 -74t29.5 -76t72.5 -32zM380 1400h172v-948h-202v746l-144 -78l-78 148zM526 0l684 1400h196l-682 -1400h-198z" />
    <glyph glyph-name="threeeighths" unicode="&#x215c;" horiz-adv-x="1930" 
d="M520 754q0 67 -44.5 113.5t-111.5 46.5q-21 0 -54 -10l-76 94l194 236h-324v166h572v-152l-176 -210q102 -27 162 -109.5t60 -190.5q0 -121 -98 -215.5t-254 -94.5q-102 0 -185 46.5t-135 129.5l136 114q87 -126 178 -126q67 0 111.5 47t44.5 115zM1530 -26
q-146 0 -246 88.5t-100 221.5q0 75 39 138.5t107 99.5q-44 31 -71 79t-27 103q0 111 84 188.5t214 77.5t214 -77.5t84 -188.5q0 -53 -27.5 -101.5t-70.5 -80.5q68 -36 107 -99.5t39 -138.5q0 -133 -100 -221.5t-246 -88.5zM1530 434q-61 0 -102.5 -43t-41.5 -105t41.5 -105
t102.5 -43t102.5 43t41.5 105t-41.5 105t-102.5 43zM1530 594q43 0 72.5 32t29.5 76t-29.5 74t-72.5 30t-72.5 -30t-29.5 -74t29.5 -76t72.5 -32zM526 0l684 1400h196l-682 -1400h-198z" />
    <glyph glyph-name="fiveeighths" unicode="&#x215d;" horiz-adv-x="1930" 
d="M374 428q-103 0 -186.5 45.5t-134.5 130.5l143 112q79 -124 174 -124q67 0 111.5 46t44.5 114t-44.5 114t-111.5 46q-35 0 -67 -18t-51 -46l-148 18l58 534h532v-166h-350l-22 -174q36 12 86 12q132 0 226 -86.5t94 -229.5q0 -146 -95.5 -237t-258.5 -91zM1530 -26
q-146 0 -246 88.5t-100 221.5q0 75 39 138.5t107 99.5q-44 31 -71 79t-27 103q0 111 84 188.5t214 77.5t214 -77.5t84 -188.5q0 -53 -27.5 -101.5t-70.5 -80.5q68 -36 107 -99.5t39 -138.5q0 -133 -100 -221.5t-246 -88.5zM1530 434q-61 0 -102.5 -43t-41.5 -105t41.5 -105
t102.5 -43t102.5 43t41.5 105t-41.5 105t-102.5 43zM1530 594q43 0 72.5 32t29.5 76t-29.5 74t-72.5 30t-72.5 -30t-29.5 -74t29.5 -76t72.5 -32zM526 0l684 1400h196l-682 -1400h-198z" />
    <glyph glyph-name="seveneighths" unicode="&#x215e;" horiz-adv-x="1930" 
d="M90 1400h624v-146l-332 -802h-226l330 782h-396v166zM526 0l684 1400h196l-682 -1400h-198zM1530 -26q-146 0 -246 88.5t-100 221.5q0 75 39 138.5t107 99.5q-44 31 -71 79t-27 103q0 111 84 188.5t214 77.5t214 -77.5t84 -188.5q0 -53 -27.5 -101.5t-70.5 -80.5
q68 -36 107 -99.5t39 -138.5q0 -133 -100 -221.5t-246 -88.5zM1530 434q-61 0 -102.5 -43t-41.5 -105t41.5 -105t102.5 -43t102.5 43t41.5 105t-41.5 105t-102.5 43zM1530 594q43 0 72.5 32t29.5 76t-29.5 74t-72.5 30t-72.5 -30t-29.5 -74t29.5 -76t72.5 -32z" />
    <glyph glyph-name="uni215F" unicode="&#x215f;" horiz-adv-x="1930" 
d="M526 0l684 1400h196l-682 -1400h-198zM380 1400h172v-948h-202v746l-144 -78l-78 148z" />
    <glyph glyph-name="arrowleft" unicode="&#x2190;" horiz-adv-x="1720" 
d="M1648 758v-188h-1130v-232l-446 326l446 326v-232h1130z" />
    <glyph glyph-name="arrowup" unicode="&#x2191;" horiz-adv-x="1720" 
d="M954 -76h-188v1130h-232l326 446l326 -446h-232v-1130z" />
    <glyph glyph-name="arrowright" unicode="&#x2192;" horiz-adv-x="1720" 
d="M72 570v188h1130v232l446 -326l-446 -326v232h-1130z" />
    <glyph glyph-name="arrowdown" unicode="&#x2193;" horiz-adv-x="1720" 
d="M766 1500h188v-1130h232l-326 -446l-326 446h232v1130z" />
    <glyph glyph-name="arrowboth" unicode="&#x2194;" horiz-adv-x="1720" 
d="M518 990v-232h684v232l446 -326l-446 -326v232h-684v-232l-446 326z" />
    <glyph glyph-name="arrowupdn" unicode="&#x2195;" horiz-adv-x="1720" 
d="M534 370h232v684h-232l326 446l326 -446h-232v-684h232l-326 -446z" />
    <glyph glyph-name="arrowupdnbse" unicode="&#x21a8;" horiz-adv-x="1720" 
d="M534 370h232v684h-232l326 446l326 -446h-232v-684h232l-306 -418h286v-128h-612v128h286z" />
    <glyph glyph-name="partialdiff" unicode="&#x2202;" horiz-adv-x="1232" 
d="M572 920q97 0 184.5 -38.5t146.5 -100.5q-14 209 -100.5 324t-236.5 115q-156 0 -280 -124l-100 180q151 148 380 148q182 0 313.5 -93t197 -256t65.5 -379q0 -172 -43.5 -310t-119.5 -227t-176.5 -136t-216.5 -47q-142 0 -260.5 62.5t-187 171t-68.5 238.5
q0 97 41.5 185t110 150.5t160.5 99.5t190 37zM586 180q120 0 205 92.5t108 290.5q-62 73 -143 113t-170 40q-119 0 -199.5 -77t-80.5 -191t80.5 -191t199.5 -77z" />
    <glyph glyph-name="Delta" unicode="&#x2206;" horiz-adv-x="1376" 
d="M820 1400l516 -1400h-1296l516 1400h264zM688 1142l-326 -938h652z" />
    <glyph glyph-name="product" unicode="&#x220f;" horiz-adv-x="1356" 
d="M1196 1480v-1702h-236v1498h-564v-1498h-236v1702h1036z" />
    <glyph glyph-name="summation" unicode="&#x2211;" horiz-adv-x="1312" 
d="M120 -26l510 666l-510 644v196h1072v-204h-786l460 -584v-104l-458 -606h784v-204h-1072v196z" />
    <glyph glyph-name="minus" unicode="&#x2212;" horiz-adv-x="1160" 
d="M1040 566h-920v196h920v-196z" />
    <glyph glyph-name="uni2215" unicode="&#x2215;" horiz-adv-x="332" 
d="M-274 0l684 1400h196l-682 -1400h-198z" />
    <glyph glyph-name="uni2219" unicode="&#x2219;" horiz-adv-x="600" 
d="M152 650q0 63 42.5 105.5t105.5 42.5t105.5 -42.5t42.5 -105.5t-42.5 -105.5t-105.5 -42.5t-105.5 42.5t-42.5 105.5z" />
    <glyph glyph-name="radical" unicode="&#x221a;" horiz-adv-x="1128" 
d="M630 0h-252l-338 750h254l192 -462l358 1252h244z" />
    <glyph glyph-name="infinity" unicode="&#x221e;" horiz-adv-x="1532" 
d="M416 792q-61 0 -100.5 -35t-39.5 -93t39.5 -93t100.5 -35q59 0 110 26t120 102q-69 76 -120 102t-110 26zM766 542q-170 -178 -360 -178q-137 0 -231.5 85t-94.5 215t94.5 215t231.5 85q188 0 360 -180q172 180 360 180q137 0 231.5 -85t94.5 -215t-94.5 -215t-231.5 -85
q-190 0 -360 178zM1116 792q-59 0 -110 -26t-120 -102q69 -76 120 -102t110 -26q61 0 100.5 35t39.5 93t-39.5 93t-100.5 35z" />
    <glyph glyph-name="orthogonal" unicode="&#x221f;" horiz-adv-x="1230" 
d="M1190 204v-204h-1030v1150h236v-946h794z" />
    <glyph glyph-name="intersection" unicode="&#x2229;" horiz-adv-x="1288" 
d="M644 1234q105 0 198.5 -39t160.5 -105.5t106 -158.5t39 -195v-736h-236v716q0 135 -77 224.5t-191 89.5t-191 -89.5t-77 -224.5v-716h-236v736q0 103 39 195t106 158.5t160.5 105.5t198.5 39z" />
    <glyph glyph-name="integral" unicode="&#x222b;" horiz-adv-x="864" 
d="M318 -96v1270q0 190 94.5 278t297.5 88q66 0 110 -8v-196q-40 4 -90 4q-100 0 -142 -39.5t-42 -128.5v-1270q0 -190 -94.5 -278t-297.5 -88q-66 0 -110 8v196q40 -4 90 -4q100 0 142 39.5t42 128.5z" />
    <glyph glyph-name="approxequal" unicode="&#x2248;" horiz-adv-x="1160" 
d="M548 774q-34 33 -52.5 49t-47.5 32.5t-52 16.5q-85 0 -114 -162l-217 55q27 150 103.5 230.5t197.5 80.5q69 0 133.5 -27t112.5 -73q34 -33 52.5 -49t47.5 -32.5t52 -16.5q85 0 114 162l217 -55q-27 -150 -103.5 -230.5t-197.5 -80.5q-69 0 -133.5 27t-112.5 73zM548 334
q-34 33 -52.5 49t-47.5 32.5t-52 16.5q-85 0 -114 -162l-217 55q27 150 103.5 230.5t197.5 80.5q69 0 133.5 -27t112.5 -73q34 -33 52.5 -49t47.5 -32.5t52 -16.5q85 0 114 162l217 -55q-27 -150 -103.5 -230.5t-197.5 -80.5q-69 0 -133.5 27t-112.5 73z" />
    <glyph glyph-name="notequal" unicode="&#x2260;" horiz-adv-x="1160" 
d="M1040 344h-533l-141 -270h-176l141 270h-211v196h313l130 248h-443v196h545l129 246h176l-129 -246h199v-196h-301l-130 -248h431v-196z" />
    <glyph glyph-name="equivalence" unicode="&#x2261;" horiz-adv-x="1160" 
d="M1040 892h-920v196h920v-196zM1040 240h-920v196h920v-196zM1040 566h-920v196h920v-196z" />
    <glyph glyph-name="lessequal" unicode="&#x2264;" horiz-adv-x="1160" 
d="M1040 0h-920v196h920v-196zM120 684v180l910 374v-217l-625 -247l625 -247v-217z" />
    <glyph glyph-name="greaterequal" unicode="&#x2265;" horiz-adv-x="1160" 
d="M1040 0h-920v196h920v-196zM1040 864v-180l-910 -374v217l625 247l-625 247v217z" />
    <glyph glyph-name="house" unicode="&#x2302;" horiz-adv-x="1288" 
d="M376 204h536v416l-268 308l-268 -308v-416zM1148 0h-1008v696l504 576l504 -576v-696z" />
    <glyph glyph-name="revlogicalnot" unicode="&#x2310;" horiz-adv-x="1160" 
d="M348 566v-336h-228v532h920v-196h-692z" />
    <glyph glyph-name="uni2318" unicode="&#x2318;" horiz-adv-x="1612" 
d="M688 528h236v236h-236v-236zM394 928h110v112q0 49 -31 80.5t-79 31.5t-79 -31.5t-31 -80.5t31 -80.5t79 -31.5zM1108 928h110q48 0 79 31.5t31 80.5t-31 80.5t-79 31.5t-79 -31.5t-31 -80.5v-112zM504 364h-110q-48 0 -79 -31.5t-31 -80.5t31 -80.5t79 -31.5t79 31.5
t31 80.5v112zM1218 364h-110v-112q0 -49 31 -80.5t79 -31.5t79 31.5t31 80.5t-31 80.5t-79 31.5zM394 528h110v236h-110q-125 0 -209.5 79.5t-84.5 196.5t84.5 196.5t209.5 79.5t209.5 -79.5t84.5 -196.5v-112h236v112q0 117 84.5 196.5t209.5 79.5t209.5 -79.5t84.5 -196.5
t-84.5 -196.5t-209.5 -79.5h-110v-236h110q125 0 209.5 -79.5t84.5 -196.5t-84.5 -196.5t-209.5 -79.5t-209.5 79.5t-84.5 196.5v112h-236v-112q0 -117 -84.5 -196.5t-209.5 -79.5t-209.5 79.5t-84.5 196.5t84.5 196.5t209.5 79.5z" />
    <glyph glyph-name="lozenge" unicode="&#x25ca;" horiz-adv-x="1156" 
d="M1066 604l-488 -918l-488 918l488 918zM822 604l-244 464l-244 -464l244 -464z" />
    <glyph glyph-name="H18533" unicode="&#x25cf;" horiz-adv-x="2000" 
d="M324 652q0 137 53.5 262t144.5 216t216 144.5t262 53.5t262 -53.5t216 -144.5t144.5 -216t53.5 -262t-53.5 -262t-144.5 -216t-216 -144.5t-262 -53.5t-262 53.5t-216 144.5t-144.5 216t-53.5 262z" />
    <glyph glyph-name="commaaccent" horiz-adv-x="840" 
d="M420 -458h-205l154 342h229z" />
    <glyph glyph-name="zero.tnum" horiz-adv-x="1120" 
d="M80 700q0 208 51 368.5t161 258t268 97.5q118 0 211 -55.5t151 -154.5t88 -229.5t30 -284.5t-30 -284.5t-88 -229.5t-151 -154.5t-211 -55.5q-158 0 -268 97.5t-161 258t-51 368.5zM312 700q0 -241 60.5 -376.5t187.5 -135.5t187.5 135.5t60.5 376.5t-60.5 376.5
t-187.5 135.5t-187.5 -135.5t-60.5 -376.5z" />
    <glyph glyph-name="one.tnum" horiz-adv-x="944" 
d="M432 1400h212v-1400h-232v1168l-234 -124l-98 170z" />
    <glyph glyph-name="two.tnum" horiz-adv-x="1042" 
d="M748 576l-346 -376h542v-200h-846v190l470 510q86 93 122 163t36 145q0 98 -60.5 157t-157.5 59q-86 0 -144.5 -46.5t-98.5 -142.5l-193 83q48 142 159.5 224t276.5 82q197 0 323.5 -112.5t126.5 -301.5q0 -118 -48.5 -214t-161.5 -220z" />
    <glyph glyph-name="three.tnum" horiz-adv-x="1098" 
d="M776 444q0 111 -78.5 189.5t-195.5 78.5q-29 0 -66 -10l-90 114l312 380h-514v204h796v-204l-284 -336q163 -25 257.5 -147t94.5 -291q0 -82 -35 -161.5t-97 -143t-158 -102.5t-208 -39q-141 0 -256 61.5t-191 175.5l160 132q116 -169 279 -169q117 0 195.5 78.5
t78.5 189.5z" />
    <glyph glyph-name="four.tnum" horiz-adv-x="1164" 
d="M70 264v210l622 926h232v-924h150v-212h-150v-264h-232v264h-622zM324 474h368v546z" />
    <glyph glyph-name="five.tnum" horiz-adv-x="1108" 
d="M520 -24q-141 0 -257 59.5t-189 174.5l167 134q111 -168 271 -168q118 0 196 76.5t78 189.5t-78 189.5t-196 76.5q-63 0 -117 -25.5t-83 -66.5l-164 20l84 764h734v-204h-528l-40 -338q66 46 172 46q90 0 170.5 -31.5t142.5 -88.5t98.5 -144.5t36.5 -191.5
q0 -210 -134.5 -341t-363.5 -131z" />
    <glyph glyph-name="six.tnum" horiz-adv-x="1176" 
d="M866 1400l-328 -504q36 12 82 12q122 0 228 -57.5t172 -165t66 -241.5t-70.5 -242.5t-183.5 -167t-240 -58.5q-131 0 -245.5 58.5t-185.5 167t-71 242.5q0 139 70 246l460 710h246zM854 444q0 113 -78 190.5t-188 77.5t-188 -77.5t-78 -190.5t78 -190.5t188 -77.5
t188 77.5t78 190.5z" />
    <glyph glyph-name="seven.tnum" horiz-adv-x="982" 
d="M60 1400h872v-194l-500 -1206h-260l500 1196h-612v204z" />
    <glyph glyph-name="eight.tnum" horiz-adv-x="1156" 
d="M578 -24q-206 0 -347 127t-141 315q0 122 65 217t179 137q-74 37 -123 113.5t-49 164.5q0 157 118 265.5t298 108.5t298 -108.5t118 -265.5q0 -88 -49 -164.5t-123 -113.5q114 -42 179 -137t65 -217q0 -188 -141 -315t-347 -127zM578 668q-108 0 -182 -72t-74 -174
t74 -174t182 -72t182 72t74 174t-74 174t-182 72zM578 860q80 0 136 55.5t56 128.5q0 74 -56 127t-136 53t-136 -53t-56 -127q0 -73 56 -128.5t136 -55.5z" />
    <glyph glyph-name="nine.tnum" horiz-adv-x="1176" 
d="M310 0l328 504q-36 -12 -82 -12q-122 0 -228 57.5t-172 165t-66 241.5t70.5 242.5t183.5 167t240 58.5q131 0 245.5 -58.5t185.5 -167t71 -242.5q0 -139 -70 -246l-460 -710h-246zM322 956q0 -113 78 -190.5t188 -77.5t188 77.5t78 190.5t-78 190.5t-188 77.5t-188 -77.5
t-78 -190.5z" />
    <glyph glyph-name="parenleft.case" horiz-adv-x="840" 
d="M230 700q0 265 96 507.5t272 422.5l162 -122q-143 -165 -218.5 -375t-75.5 -433t75.5 -433t218.5 -375l-162 -122q-176 180 -272 422.5t-96 507.5z" />
    <glyph glyph-name="parenright.case" horiz-adv-x="840" 
d="M610 700q0 -265 -96 -507.5t-272 -422.5l-162 122q143 165 218.5 375t75.5 433t-75.5 433t-218.5 375l162 122q176 -180 272 -422.5t96 -507.5z" />
    <glyph glyph-name="hyphen.case" horiz-adv-x="812" 
d="M692 604h-572v216h572v-216z" />
    <glyph glyph-name="at.case" horiz-adv-x="1940" 
d="M964 460q72 0 129.5 38.5t88.5 101.5v228q-31 63 -88.5 101.5t-129.5 38.5q-103 0 -173.5 -73.5t-70.5 -180.5t70.5 -180.5t173.5 -73.5zM1440 288q-70 0 -138 34.5t-108 87.5q-109 -122 -262 -122q-173 0 -289.5 125.5t-116.5 300.5t116.5 300.5t289.5 125.5
q143 0 250 -110v90h190v-614q14 -20 40.5 -33t53.5 -13q88 0 148 78t60 226q0 138 -57.5 262t-153.5 211.5t-226 139t-271 51.5q-190 0 -350.5 -92.5t-255 -254.5t-94.5 -355q0 -195 94.5 -355.5t261 -253.5t370.5 -93q264 0 476 150l76 -160q-132 -80 -265 -121t-287 -41
q-193 0 -363 66.5t-292 182t-192.5 278t-70.5 347.5q0 184 71 347.5t191 278.5t284.5 181.5t345.5 66.5q190 0 357 -63.5t286 -173.5t188 -265.5t69 -333.5q0 -219 -118 -347.5t-308 -128.5z" />
    <glyph glyph-name="bracketleft.case" horiz-adv-x="840" 
d="M228 -190v1780h572v-204h-336v-1372h336v-204h-572z" />
    <glyph glyph-name="bracketright.case" horiz-adv-x="840" 
d="M612 1590v-1780h-572v204h336v1372h-336v204h572z" />
    <glyph glyph-name="braceleft.case" horiz-adv-x="840" 
d="M144 598v204q92 0 142 46t50 132v286q0 137 101.5 230.5t254.5 93.5h108v-204h-92q-60 0 -98 -38t-38 -98v-306q0 -196 -184 -244q184 -48 184 -244v-306q0 -60 38 -98t98 -38h92v-204h-108q-153 0 -254.5 93.5t-101.5 230.5v286q0 86 -50 132t-142 46z" />
    <glyph glyph-name="braceright.case" horiz-adv-x="840" 
d="M696 802v-204q-92 0 -142 -46t-50 -132v-286q0 -137 -101.5 -230.5t-254.5 -93.5h-108v204h92q60 0 98 38t38 98v306q0 196 184 244q-184 48 -184 244v306q0 60 -38 98t-98 38h-92v204h108q153 0 254.5 -93.5t101.5 -230.5v-286q0 -86 50 -132t142 -46z" />
    <glyph glyph-name="exclamdown.case" horiz-adv-x="624" 
d="M194 0v996h236v-996h-236zM164 1276q0 63 42.5 105.5t105.5 42.5t105.5 -42.5t42.5 -105.5t-42.5 -105.5t-105.5 -42.5t-105.5 42.5t-42.5 105.5z" />
    <glyph glyph-name="guillemotleft.case" horiz-adv-x="1284" 
d="M104 612v120l568 350v-210l-336 -200l336 -200v-210zM594 612v120l568 350v-210l-336 -200l336 -200v-210z" />
    <glyph glyph-name="periodcentered.case" horiz-adv-x="600" 
d="M152 698q0 63 42.5 105.5t105.5 42.5t105.5 -42.5t42.5 -105.5t-42.5 -105.5t-105.5 -42.5t-105.5 42.5t-42.5 105.5z" />
    <glyph glyph-name="guillemotright.case" horiz-adv-x="1284" 
d="M1180 732v-120l-568 -350v210l336 200l-336 200v210zM690 732v-120l-568 -350v210l336 200l-336 200v210z" />
    <glyph glyph-name="questiondown.case" horiz-adv-x="1104" 
d="M740 996v-362q-177 0 -278.5 -71.5t-101.5 -182.5q0 -85 75 -140.5t197 -55.5q135 0 272 116l124 -169q-184 -155 -424 -155q-214 0 -349 121t-135 285q0 144 103.5 254t280.5 144v216h236zM770 1276q0 -63 -42.5 -105.5t-105.5 -42.5t-105.5 42.5t-42.5 105.5
t42.5 105.5t105.5 42.5t105.5 -42.5t42.5 -105.5z" />
    <glyph glyph-name="endash.case" horiz-adv-x="1000" 
d="M1000 604h-1000v216h1000v-216z" />
    <glyph glyph-name="emdash.case" horiz-adv-x="2000" 
d="M2000 604h-2000v216h2000v-216z" />
    <glyph glyph-name="bullet.case" 
d="M400 450q-108 0 -186 77t-78 185t78 185t186 77t186 -77t78 -185t-78 -185t-186 -77z" />
    <glyph glyph-name="guilsinglleft.case" horiz-adv-x="794" 
d="M104 612v120l568 350v-210l-336 -200l336 -200v-210z" />
    <glyph glyph-name="guilsinglright.case" horiz-adv-x="794" 
d="M690 732v-120l-568 -350v210l336 200l-336 200v210z" />
    <glyph glyph-name="zero.numerator" 
d="M56 926q0 142 36.5 252.5t116 178t191.5 67.5t191.5 -67.5t116 -178t36.5 -252.5t-36.5 -252.5t-116 -178t-191.5 -67.5t-191.5 67.5t-116 178t-36.5 252.5zM256 926q0 -152 36 -239t108 -87t108 87t36 239t-36 239t-108 87t-108 -87t-36 -239z" />
    <glyph glyph-name="one.numerator" 
d="M380 1400h172v-948h-202v746l-144 -78l-78 148z" />
    <glyph glyph-name="two.numerator" 
d="M564 838l-206 -222h340v-164h-606v146l316 342q54 58 76 102t22 92q0 57 -33 91.5t-87 34.5q-50 0 -83.5 -31t-58.5 -101l-173 67q33 112 114.5 170.5t200.5 58.5q141 0 231.5 -79t90.5 -211q0 -80 -33 -146t-111 -150z" />
    <glyph glyph-name="three.numerator" 
d="M520 754q0 67 -44.5 113.5t-111.5 46.5q-21 0 -54 -10l-76 94l194 236h-324v166h572v-152l-176 -210q102 -27 162 -109.5t60 -190.5q0 -121 -98 -215.5t-254 -94.5q-102 0 -185 46.5t-135 129.5l136 114q87 -126 178 -126q67 0 111.5 47t44.5 115z" />
    <glyph glyph-name="four.numerator" 
d="M36 626v156l420 618h192v-602h98v-172h-98v-174h-202v174h-410zM256 796h190v290z" />
    <glyph glyph-name="five.numerator" 
d="M374 428q-103 0 -186.5 45.5t-134.5 130.5l143 112q79 -124 174 -124q67 0 111.5 46t44.5 114t-44.5 114t-111.5 46q-35 0 -67 -18t-51 -46l-148 18l58 534h532v-166h-350l-22 -174q36 12 86 12q132 0 226 -86.5t94 -229.5q0 -146 -95.5 -237t-258.5 -91z" />
    <glyph glyph-name="six.numerator" 
d="M618 1400l-210 -324h12q134 0 233 -91t99 -231q0 -94 -50.5 -169.5t-130 -116t-169.5 -40.5q-144 0 -250 92.5t-106 233.5q0 95 50 170l310 476h212zM550 754q0 67 -44.5 113.5t-107.5 46.5q-62 0 -106 -46.5t-44 -113.5q0 -68 44 -115t106 -47q63 0 107.5 46.5
t44.5 115.5z" />
    <glyph glyph-name="seven.numerator" 
d="M90 1400h624v-146l-332 -802h-226l330 782h-396v166z" />
    <glyph glyph-name="eight.numerator" 
d="M400 428q-146 0 -246 88.5t-100 221.5q0 75 39 138.5t107 99.5q-44 31 -71 79t-27 103q0 111 84 188.5t214 77.5t214 -77.5t84 -188.5q0 -53 -27.5 -101.5t-70.5 -80.5q68 -36 107 -99.5t39 -138.5q0 -133 -100 -221.5t-246 -88.5zM400 888q-61 0 -102.5 -43t-41.5 -105
t41.5 -105t102.5 -43t102.5 43t41.5 105t-41.5 105t-102.5 43zM400 1048q43 0 72.5 32t29.5 76t-29.5 74t-72.5 30t-72.5 -30t-29.5 -74t29.5 -76t72.5 -32z" />
    <glyph glyph-name="nine.numerator" 
d="M182 452l210 324h-12q-134 0 -233 91t-99 231q0 94 50.5 169.5t130 116t169.5 40.5q144 0 250 -92.5t106 -233.5q0 -95 -50 -170l-310 -476h-212zM250 1098q0 -67 44.5 -113.5t107.5 -46.5q62 0 106 46.5t44 113.5q0 68 -44 115t-106 47q-63 0 -107.5 -46.5t-44.5 -115.5
z" />
    <glyph glyph-name="zero.denominator" 
d="M56 474q0 142 36.5 252.5t116 178t191.5 67.5t191.5 -67.5t116 -178t36.5 -252.5t-36.5 -252.5t-116 -178t-191.5 -67.5t-191.5 67.5t-116 178t-36.5 252.5zM256 474q0 -152 36 -239t108 -87t108 87t36 239t-36 239t-108 87t-108 -87t-36 -239z" />
    <glyph glyph-name="one.denominator" 
d="M380 948h172v-948h-202v746l-144 -78l-78 148z" />
    <glyph glyph-name="two.denominator" 
d="M564 386l-206 -222h340v-164h-606v146l316 342q54 58 76 102t22 92q0 57 -33 91.5t-87 34.5q-50 0 -83.5 -31t-58.5 -101l-173 67q33 112 114.5 170.5t200.5 58.5q141 0 231.5 -79t90.5 -211q0 -80 -33 -146t-111 -150z" />
    <glyph glyph-name="three.denominator" 
d="M520 302q0 67 -44.5 113.5t-111.5 46.5q-21 0 -54 -10l-76 94l194 236h-324v166h572v-152l-176 -210q102 -27 162 -109.5t60 -190.5q0 -121 -98 -215.5t-254 -94.5q-102 0 -185 46.5t-135 129.5l136 114q87 -126 178 -126q67 0 111.5 47t44.5 115z" />
    <glyph glyph-name="four.denominator" 
d="M36 174v156l420 618h192v-602h98v-172h-98v-174h-202v174h-410zM256 344h190v290z" />
    <glyph glyph-name="five.denominator" 
d="M374 -24q-103 0 -186.5 45.5t-134.5 130.5l143 112q79 -124 174 -124q67 0 111.5 46t44.5 114t-44.5 114t-111.5 46q-35 0 -67 -18t-51 -46l-148 18l58 534h532v-166h-350l-22 -174q36 12 86 12q132 0 226 -86.5t94 -229.5q0 -146 -95.5 -237t-258.5 -91z" />
    <glyph glyph-name="six.denominator" 
d="M618 948l-210 -324h12q134 0 233 -91t99 -231q0 -94 -50.5 -169.5t-130 -116t-169.5 -40.5q-144 0 -250 92.5t-106 233.5q0 95 50 170l310 476h212zM550 302q0 67 -44.5 113.5t-107.5 46.5q-62 0 -106 -46.5t-44 -113.5q0 -68 44 -115t106 -47q63 0 107.5 46.5
t44.5 115.5z" />
    <glyph glyph-name="seven.denominator" 
d="M90 948h624v-146l-332 -802h-226l330 782h-396v166z" />
    <glyph glyph-name="eight.denominator" 
d="M400 -24q-146 0 -246 88.5t-100 221.5q0 75 39 138.5t107 99.5q-44 31 -71 79t-27 103q0 111 84 188.5t214 77.5t214 -77.5t84 -188.5q0 -53 -27.5 -101.5t-70.5 -80.5q68 -36 107 -99.5t39 -138.5q0 -133 -100 -221.5t-246 -88.5zM400 436q-61 0 -102.5 -43t-41.5 -105
t41.5 -105t102.5 -43t102.5 43t41.5 105t-41.5 105t-102.5 43zM400 596q43 0 72.5 32t29.5 76t-29.5 74t-72.5 30t-72.5 -30t-29.5 -74t29.5 -76t72.5 -32z" />
    <glyph glyph-name="nine.denominator" 
d="M182 0l210 324h-12q-134 0 -233 91t-99 231q0 94 50.5 169.5t130 116t169.5 40.5q144 0 250 -92.5t106 -233.5q0 -95 -50 -170l-310 -476h-212zM250 646q0 -67 44.5 -113.5t107.5 -46.5q62 0 106 46.5t44 113.5q0 68 -44 115t-106 47q-63 0 -107.5 -46.5t-44.5 -115.5z
" />
    <glyph glyph-name="dollar_osf" horiz-adv-x="1048" 
d="M72 177l145 151q114 -117 249 -143v327q-360 83 -360 347q0 138 99 228.5t261 104.5v156h153v-162q176 -29 311 -152l-137 -160q-95 77 -174 102v-283q194 -48 280 -138t86 -227q0 -141 -97 -234.5t-269 -112.5v-161h-153v160q-115 13 -218 63.5t-176 133.5zM756 328
q0 95 -137 145v-283q63 16 100 52.5t37 85.5zM336 872q0 -88 130 -138v252q-59 -11 -94.5 -42t-35.5 -72z" />
    <glyph glyph-name="zero_osf" horiz-adv-x="998" 
d="M61 537q0 256 115.5 408.5t322.5 152.5q206 0 322 -153t116 -408t-116 -408t-322 -153q-207 0 -322.5 152.5t-115.5 408.5zM292 537q0 -171 54.5 -264.5t152.5 -93.5t152.5 93.5t54.5 264.5t-54.5 264.5t-152.5 93.5t-152.5 -93.5t-54.5 -264.5z" />
    <glyph glyph-name="one_osf" horiz-adv-x="850" 
d="M388 1074h203v-1074h-231v839l-216 -103l-87 180z" />
    <glyph glyph-name="two_osf" horiz-adv-x="929" 
d="M674 424l-251 -221h429v-203h-773v184l420 373q73 66 103.5 112t30.5 94q0 61 -49.5 96.5t-129.5 35.5q-148 0 -213 -145l-194 80q112 268 407 268q179 0 294.5 -91t115.5 -242q0 -96 -45.5 -175t-144.5 -166z" />
    <glyph glyph-name="three_osf" horiz-adv-x="988" 
d="M687 203q0 95 -67.5 162.5t-168.5 67.5q-32 0 -63 -11l-92 115l273 331h-451v206h739v-198l-247 -292q143 -29 225.5 -140t82.5 -261q0 -76 -32 -149.5t-89.5 -132.5t-146 -95t-191.5 -36q-130 0 -237.5 59t-180.5 169l161 131q109 -157 249 -157q101 0 168.5 67.5
t67.5 163.5z" />
    <glyph glyph-name="four_osf" horiz-adv-x="1048" 
d="M52 35v195l565 844h226v-836h135v-203h-135v-241h-231v241h-560zM313 238h299v456z" />
    <glyph glyph-name="five_osf" horiz-adv-x="997" 
d="M468 -230q-131 0 -239 57.5t-178 167.5l168 134q102 -156 242 -156q102 0 168.5 65t66.5 162t-66.5 161.5t-168.5 64.5q-55 0 -102 -23t-73 -60l-165 20l79 711h680v-203h-475l-33 -277q59 32 141 32q111 0 204.5 -49t151.5 -146.5t58 -225.5q0 -194 -124 -314.5
t-335 -120.5z" />
    <glyph glyph-name="six_osf" horiz-adv-x="1058" 
d="M801 1282l-293 -449q28 4 50 4q113 0 211 -53t158.5 -152t60.5 -223q0 -123 -65 -224t-169 -155t-221 -54q-121 0 -226.5 54t-171 154.5t-65.5 224.5q0 128 65 227l419 646h247zM758 409q0 97 -67 163t-162 66t-161.5 -66t-66.5 -163t66.5 -163.5t161.5 -66.5t162 66.5
t67 163.5z" />
    <glyph glyph-name="seven_osf" horiz-adv-x="884" 
d="M43 1074h807v-185l-454 -1095h-257l450 1077h-546v203z" />
    <glyph glyph-name="eight_osf" horiz-adv-x="1040" 
d="M520 -24q-190 0 -320 118t-130 292q0 105 55 191.5t149 130.5q-59 39 -99 107.5t-40 141.5q0 146 109 247.5t276 101.5t276 -101.5t109 -247.5q0 -73 -40 -141.5t-99 -107.5q94 -44 149 -130.5t55 -191.5q0 -174 -130 -292t-320 -118zM520 601q-93 0 -156 -62t-63 -149
t63 -149.5t156 -62.5t156 62.5t63 149.5t-63 149t-156 62zM520 796q67 0 114.5 47t47.5 109t-47 107t-115 45t-115 -45t-47 -107t47.5 -109t114.5 -47z" />
    <glyph glyph-name="nine_osf" horiz-adv-x="1058" 
d="M259 -206l291 447q-28 -4 -50 -4q-113 0 -211 53t-158.5 152t-60.5 223q0 123 65 224t169 155t221 54q121 0 226.5 -54t171 -154.5t65.5 -224.5q0 -126 -65 -227l-417 -644h-247zM300 665q0 -97 67 -163t162 -66t161.5 66t66.5 163t-66.5 163.5t-161.5 66.5t-162 -66.5
t-67 -163.5z" />
    <glyph glyph-name="cent_osf" horiz-adv-x="1136" 
d="M735 1348v-157q187 -16 349 -136l-115 -173q-135 89 -234 104v-803q125 20 242 114l119 -172q-156 -129 -361 -146v-159h-154v163q-230 32 -379 201t-149 401t148.5 400.5t379.5 201.5v161h154zM283 585q0 -144 83.5 -252.5t214.5 -141.5v788q-131 -33 -214.5 -141.5
t-83.5 -252.5z" />
    <glyph glyph-name="sterling_osf" horiz-adv-x="1025" 
d="M266 446h-148v180h102q-62 119 -62 224q0 146 112 245t278 99q130 0 228 -65.5t142 -165.5l-196 -97q-51 125 -174 125q-69 0 -114 -40t-45 -101q0 -56 54 -174q7 -16 19 -50h308v-180h-272v-19q0 -127 -90 -224h526v-203h-811v193q67 41 105.5 102.5t38.5 131.5
q0 12 -1 19z" />
    <glyph glyph-name="yen_osf" horiz-adv-x="1140" 
d="M267 1170l303 -475l303 475h255l-346 -541h218v-141h-308l-7 -11v-50h315v-141h-315v-286h-230v286h-316v141h316v50l-7 11h-309v141h219l-346 541h255z" />
    <glyph glyph-name="florin_osf" horiz-adv-x="732" 
d="M460 612v-508q0 -165 -86.5 -241.5t-271.5 -76.5q-54 0 -112 8v201q50 -5 95 -5q78 0 111.5 27.5t33.5 88.5v506h-143v204h143v44q0 165 86.5 241.5t271.5 76.5q54 0 112 -8v-201q-50 5 -95 5q-78 0 -111.5 -27.5t-33.5 -88.5v-42h240v-204h-240z" />
    <glyph glyph-name="Euro_osf" horiz-adv-x="1197" 
d="M818 395h-432q49 -99 142.5 -157.5t207.5 -58.5q155 0 299 118l120 -172q-181 -149 -419 -149q-211 0 -373 116t-222 303h-121v141h94q-2 32 -2 49v26h-92v141h114q55 196 219.5 319t382.5 123q222 0 406 -139l-115 -173q-160 109 -291 109q-121 0 -218 -65t-143 -174
h443v-141h-475q-1 -9 -1 -26q0 -25 3 -49h473v-141z" />
    <glyph glyph-name="zero.tnum_osf" horiz-adv-x="1080" 
d="M102 537q0 256 115.5 408.5t322.5 152.5q206 0 322 -153t116 -408t-116 -408t-322 -153q-207 0 -322.5 152.5t-115.5 408.5zM333 537q0 -171 54.5 -264.5t152.5 -93.5t152.5 93.5t54.5 264.5t-54.5 264.5t-152.5 93.5t-152.5 -93.5t-54.5 -264.5z" />
    <glyph glyph-name="one.tnum_osf" horiz-adv-x="1080" 
d="M512 1074h203v-1074h-231v839l-216 -103l-87 180z" />
    <glyph glyph-name="two.tnum_osf" horiz-adv-x="1080" 
d="M760 424l-251 -221h429v-203h-773v184l420 373q73 66 103.5 112t30.5 94q0 61 -49.5 96.5t-129.5 35.5q-148 0 -213 -145l-194 80q112 268 407 268q179 0 294.5 -91t115.5 -242q0 -96 -45.5 -175t-144.5 -166z" />
    <glyph glyph-name="three.tnum_osf" horiz-adv-x="1080" 
d="M718 203q0 95 -67.5 162.5t-168.5 67.5q-32 0 -63 -11l-92 115l273 331h-451v206h739v-198l-247 -292q143 -29 225.5 -140t82.5 -261q0 -76 -32 -149.5t-89.5 -132.5t-146 -95t-191.5 -36q-130 0 -237.5 59t-180.5 169l161 131q109 -157 249 -157q101 0 168.5 67.5
t67.5 163.5z" />
    <glyph glyph-name="four.tnum_osf" horiz-adv-x="1080" 
d="M59 35v195l565 844h226v-836h135v-203h-135v-241h-231v241h-560zM320 238h299v456z" />
    <glyph glyph-name="five.tnum_osf" horiz-adv-x="1080" 
d="M506 -230q-131 0 -239 57.5t-178 167.5l168 134q102 -156 242 -156q102 0 168.5 65t66.5 162t-66.5 161.5t-168.5 64.5q-55 0 -102 -23t-73 -60l-165 20l79 711h680v-203h-475l-33 -277q59 32 141 32q111 0 204.5 -49t151.5 -146.5t58 -225.5q0 -194 -124 -314.5
t-335 -120.5z" />
    <glyph glyph-name="six.tnum_osf" horiz-adv-x="1080" 
d="M810 1282l-293 -449q28 4 50 4q113 0 211 -53t158.5 -152t60.5 -223q0 -123 -65 -224t-169 -155t-221 -54q-121 0 -226.5 54t-171 154.5t-65.5 224.5q0 128 65 227l419 646h247zM767 409q0 97 -67 163t-162 66t-161.5 -66t-66.5 -163t66.5 -163.5t161.5 -66.5t162 66.5
t67 163.5z" />
    <glyph glyph-name="seven.tnum_osf" horiz-adv-x="1080" 
d="M140 1074h807v-185l-454 -1095h-257l450 1077h-546v203z" />
    <glyph glyph-name="eight.tnum_osf" horiz-adv-x="1080" 
d="M540 -24q-190 0 -320 118t-130 292q0 105 55 191.5t149 130.5q-59 39 -99 107.5t-40 141.5q0 146 109 247.5t276 101.5t276 -101.5t109 -247.5q0 -73 -40 -141.5t-99 -107.5q94 -44 149 -130.5t55 -191.5q0 -174 -130 -292t-320 -118zM540 601q-93 0 -156 -62t-63 -149
t63 -149.5t156 -62.5t156 62.5t63 149.5t-63 149t-156 62zM540 796q67 0 114.5 47t47.5 109t-47 107t-115 45t-115 -45t-47 -107t47.5 -109t114.5 -47z" />
    <glyph glyph-name="nine.tnum_osf" horiz-adv-x="1080" 
d="M272 -206l291 447q-28 -4 -50 -4q-113 0 -211 53t-158.5 152t-60.5 223q0 123 65 224t169 155t221 54q121 0 226.5 -54t171 -154.5t65.5 -224.5q0 -126 -65 -227l-417 -644h-247zM313 665q0 -97 67 -163t162 -66t161.5 66t66.5 163t-66.5 163.5t-161.5 66.5t-162 -66.5
t-67 -163.5z" />
    </font>
</defs>
</svg>
